<svg width="65" height="65" viewBox="0 0 65 65" fill="none" xmlns="http://www.w3.org/2000/svg">
<path d="M12.6533 14.0833L11.7509 8.66666H8.51175C8.02858 6.80332 6.34725 5.41666 4.33333 5.41666C1.9435 5.41666 0 7.36016 0 9.74999C0 12.1398 1.9435 14.0833 4.33333 14.0833C6.34725 14.0833 8.02858 12.6967 8.51283 10.8333H9.91467L10.4563 14.0833H10.4152L16.0171 42.2673C13.3467 42.471 11.1226 44.5272 10.8604 47.1142C10.7066 48.6362 11.2071 50.1605 12.2341 51.2937C13.2622 52.4301 14.7268 53.0833 16.25 53.0833H18.4167C18.4167 56.6681 21.3319 59.5833 24.9167 59.5833C28.5014 59.5833 31.4167 56.6681 31.4167 53.0833H43.3333C43.3333 56.6681 46.2486 59.5833 49.8333 59.5833C53.4181 59.5833 56.3333 56.6681 56.3333 53.0833H60.6667C61.2658 53.0833 61.75 52.5991 61.75 52C61.75 51.4009 61.2658 50.9167 60.6667 50.9167H55.9542C55.0593 48.3957 52.6576 46.5833 49.8333 46.5833C47.0091 46.5833 44.6073 48.3957 43.7125 50.9167H31.0375C30.1427 48.3957 27.7409 46.5833 24.9167 46.5833C22.0924 46.5833 19.6907 48.3957 18.7958 50.9167H16.25C15.3378 50.9167 14.4603 50.5245 13.8407 49.8409C13.2156 49.1487 12.922 48.2582 13.0163 47.3319C13.1809 45.6972 14.6911 44.4177 16.4537 44.4177H17.3106C17.3258 44.4177 17.3377 44.4177 17.3528 44.4177H59.5963C62.5766 44.4167 65 41.9932 65 39.0141V14.0833H12.6533ZM4.33333 11.9167C3.13842 11.9167 2.16667 10.9449 2.16667 9.74999C2.16667 8.55507 3.13842 7.58332 4.33333 7.58332C5.52825 7.58332 6.5 8.55507 6.5 9.74999C6.5 10.9449 5.52825 11.9167 4.33333 11.9167ZM49.8333 48.75C52.2232 48.75 54.1667 50.6935 54.1667 53.0833C54.1667 55.4732 52.2232 57.4167 49.8333 57.4167C47.4435 57.4167 45.5 55.4732 45.5 53.0833C45.5 50.6935 47.4435 48.75 49.8333 48.75ZM24.9167 48.75C27.3065 48.75 29.25 50.6935 29.25 53.0833C29.25 55.4732 27.3065 57.4167 24.9167 57.4167C22.5268 57.4167 20.5833 55.4732 20.5833 53.0833C20.5833 50.6935 22.5268 48.75 24.9167 48.75ZM62.8333 39.0141C62.8333 40.7983 61.3817 42.25 59.5974 42.25H18.2227L13.0553 16.25H62.8333V39.0141Z" fill="black"/>
</svg>
