<svg width="50" height="50" viewBox="0 0 132 136" fill="none" xmlns="http://www.w3.org/2000/svg">
<path d="M11.765 20.0575C8.8005 20.2282 5.86451 20.7702 3.01614 21.6725C2.99054 22.7561 2.99195 23.8461 3.0456 24.9471C3.34879 31.1616 4.95269 37.2214 7.73699 42.672C10.5213 48.1226 14.4137 52.8224 19.1223 56.419C23.8309 60.0156 29.2334 62.4155 34.9246 63.4389C40.6159 64.4622 46.4481 64.0824 51.9838 62.3278C52.0094 61.2442 52.0083 60.1541 51.9543 59.0531C51.4193 48.1338 46.8845 37.891 39.3475 30.5779C31.8105 23.2648 21.8888 19.4805 11.765 20.0575V20.0575Z" fill="#76C526"/>
<path d="M11.765 20.0575C8.8005 20.2282 5.86451 20.7702 3.01614 21.6725C2.99054 22.7561 2.99195 23.8461 3.0456 24.9471C3.34879 31.1616 4.95269 37.2214 7.73699 42.672C10.5213 48.1226 14.4137 52.8224 19.1223 56.419C23.8309 60.0156 29.2334 62.4155 34.9246 63.4389C40.6159 64.4622 46.4481 64.0824 51.9838 62.3278C52.0094 61.2442 52.0083 60.1541 51.9543 59.0531C51.4193 48.1338 46.8845 37.891 39.3475 30.5779C31.8105 23.2648 21.8888 19.4805 11.765 20.0575V20.0575Z" stroke="#363A5A" stroke-width="6" stroke-linecap="round" stroke-linejoin="round"/>
<path d="M80.1793 10.9688C79.607 8.21259 78.7428 5.53839 77.6044 3C76.7366 3.1375 75.8675 3.30098 74.9979 3.51526C70.0878 4.72491 65.4924 7.13203 61.5565 10.5561C57.6205 13.9801 54.4462 18.3321 52.2716 23.2858C50.097 28.2394 48.9786 33.666 49.0003 39.1585C49.022 44.6511 50.1832 50.067 52.3968 55C53.2645 54.8629 54.1337 54.6994 55.0032 54.4847C59.2749 53.4313 63.3147 51.4701 66.8917 48.713C70.4688 45.956 73.5132 42.4572 75.851 38.4163C78.1888 34.3755 79.7744 29.8718 80.517 25.1623C81.2597 20.4528 81.1449 15.6298 80.1793 10.9688V10.9688Z" fill="#76C526"/>
<path d="M80.1786 11.2567C79.8766 9.8135 79.4924 8.39186 79.0283 7C79.3729 15.4697 76.9589 23.8012 72.2079 30.5392C67.4569 37.2772 60.671 41.9932 53.0356 43.8634C52.1653 44.0766 51.2953 44.239 50.4271 44.3752C49.8904 43.1846 49.414 41.9632 49 40.7165C49.2086 45.6773 50.3556 50.5389 52.3699 55C53.2385 54.8638 54.1081 54.7014 54.9788 54.4881C59.2546 53.4415 63.2981 51.4931 66.8785 48.7541C70.459 46.0151 73.5062 42.5391 75.8462 38.5247C78.1862 34.5103 79.7732 30.036 80.5166 25.3574C81.2599 20.6787 81.1451 15.8873 80.1786 11.2567V11.2567Z" fill="#5FA412"/>
<path d="M80.1793 10.9688C79.607 8.21259 78.7428 5.53839 77.6044 3C76.7366 3.1375 75.8675 3.30098 74.9979 3.51526C70.0878 4.72491 65.4924 7.13203 61.5565 10.5561C57.6205 13.9801 54.4462 18.3321 52.2716 23.2858C50.097 28.2394 48.9786 33.666 49.0003 39.1585C49.022 44.6511 50.1832 50.067 52.3968 55C53.2645 54.8629 54.1337 54.6994 55.0032 54.4847C59.2749 53.4313 63.3147 51.4701 66.8917 48.713C70.4688 45.956 73.5132 42.4572 75.851 38.4163C78.1888 34.3755 79.7744 29.8718 80.517 25.1623C81.2597 20.4528 81.1449 15.6298 80.1793 10.9688V10.9688Z" stroke="#363A5A" stroke-width="6" stroke-linecap="round" stroke-linejoin="round"/>
<path d="M68 23C68 23 59.7836 34.0476 52 55" stroke="#363A5A" stroke-width="6" stroke-linecap="round" stroke-linejoin="round"/>
<path d="M19 35C19 35 41.6883 58.7314 52 62" stroke="#363A5A" stroke-width="6" stroke-linecap="round" stroke-linejoin="round"/>
<path d="M91 90.5582C90.9948 96.1871 89.9496 101.759 87.9251 106.95C85.9006 112.14 82.9373 116.847 79.2072 120.795C75.4771 124.744 71.0547 127.855 66.1969 129.95C61.3391 132.044 56.1427 133.079 50.9097 132.995C45.6768 132.911 40.5115 131.709 35.714 129.46C30.9166 127.21 26.5826 123.958 22.9639 119.891C19.3452 115.825 16.5139 111.025 14.6346 105.772C12.7552 100.518 11.8653 94.9152 12.0165 89.2886C12.5941 67.2923 28.1406 49.2212 48.9443 51.14C50.624 51.2995 52.3117 51.34 53.9964 51.2612C74.9051 50.2231 91 67.9853 91 90.5582Z" fill="#FF7D00"/>
<path d="M81.0957 63C82.8044 68.0226 83.6717 73.3287 83.6577 78.6742C83.6423 86.2643 81.8817 93.7336 78.5313 100.422C75.1809 107.111 70.3439 112.814 64.4474 117.026C58.5509 121.239 51.7764 123.831 44.7221 124.576C37.6679 125.32 30.551 124.193 24 121.294C29.6183 127.02 36.6814 130.856 44.315 132.328C51.9487 133.8 59.8178 132.842 66.9483 129.574C74.0789 126.305 80.1578 120.87 84.4328 113.94C88.7077 107.01 90.991 98.8894 91 90.5841C91 79.768 87.2809 70.0597 81.0957 63Z" fill="#FF6C22"/>
<path d="M72.52 56C58.0996 60.1379 48.5461 75.2293 46.2028 91.7367C44.7608 101.893 50.8894 126.345 68.3961 128C75.1825 124.504 80.8962 119.097 84.8907 112.389C88.8853 105.681 91.0015 97.9411 91 90.0439C91.0004 74.2543 84.8068 62.2385 72.52 56Z" fill="#FF6C22"/>
<path d="M91 90.5582C90.9948 96.1871 89.9496 101.759 87.9251 106.95C85.9006 112.14 82.9373 116.847 79.2072 120.795C75.4771 124.744 71.0547 127.855 66.1969 129.95C61.3391 132.044 56.1427 133.079 50.9097 132.995C45.6768 132.911 40.5115 131.709 35.714 129.46C30.9166 127.21 26.5826 123.958 22.9639 119.891C19.3452 115.825 16.5139 111.025 14.6346 105.772C12.7552 100.518 11.8653 94.9152 12.0165 89.2886C12.5941 67.2923 28.1406 49.2212 48.9443 51.14C50.624 51.2995 52.3117 51.34 53.9964 51.2612C74.9051 50.2231 91 67.9852 91 90.5582Z" stroke="#363A5A" stroke-width="6" stroke-linecap="round" stroke-linejoin="round"/>
<path d="M23.7173 76C23.4227 75.9997 23.1332 75.9141 22.8765 75.7513C22.6197 75.5885 22.4044 75.354 22.2511 75.0703C22.0978 74.7866 22.0117 74.4632 22.0011 74.1312C21.9905 73.7991 22.0557 73.4696 22.1905 73.1742C28.7238 58.843 41.5468 57.0804 42.0895 57.0121C42.5425 56.9547 42.9971 57.1027 43.3534 57.4234C43.7097 57.7442 43.9384 58.2114 43.9893 58.7224C44.0401 59.2334 43.909 59.7463 43.6246 60.1482C43.3403 60.5501 42.9261 60.8081 42.4731 60.8654C42.004 60.9271 30.9157 62.513 25.2468 74.9477C25.1023 75.2648 24.8831 75.5308 24.6132 75.7165C24.3434 75.9021 24.0334 76.0002 23.7173 76V76Z" fill="#FF9636"/>
<path d="M25.5 89C26.3284 89 27 88.1046 27 87C27 85.8954 26.3284 85 25.5 85C24.6716 85 24 85.8954 24 87C24 88.1046 24.6716 89 25.5 89Z" fill="#FF9636"/>
<path d="M35.5 118C36.3284 118 37 117.105 37 116C37 114.895 36.3284 114 35.5 114C34.6716 114 34 114.895 34 116C34 117.105 34.6716 118 35.5 118Z" fill="#FF9636"/>
<path d="M25.5 107C26.3284 107 27 106.105 27 105C27 103.895 26.3284 103 25.5 103C24.6716 103 24 103.895 24 105C24 106.105 24.6716 107 25.5 107Z" fill="#FF9636"/>
<path d="M41.5 96C42.3284 96 43 95.3284 43 94.5C43 93.6716 42.3284 93 41.5 93C40.6716 93 40 93.6716 40 94.5C40 95.3284 40.6716 96 41.5 96Z" fill="#FF9636"/>
<path d="M91 133C111.987 133 129 114.644 129 92C129 69.3563 111.987 51 91 51C70.0132 51 53 69.3563 53 92C53 114.644 70.0132 133 91 133Z" fill="#FF7D00"/>
<path d="M111.344 58C117.596 65.2581 121.167 74.6992 121.391 84.5639C121.614 94.4285 118.476 104.044 112.56 111.617C106.644 119.191 98.3546 124.206 89.2364 125.728C80.1182 127.25 70.7935 125.176 63 119.891C66.6674 124.146 71.142 127.516 76.1248 129.775C81.1076 132.033 86.4839 133.129 91.8944 132.988C97.3049 132.847 102.625 131.473 107.499 128.958C112.373 126.443 116.689 122.844 120.158 118.403C123.628 113.961 126.17 108.779 127.617 103.203C129.063 97.6266 129.38 91.7845 128.545 86.0669C127.711 80.3493 125.745 74.888 122.779 70.0479C119.812 65.2077 115.914 61.1003 111.344 58V58Z" fill="#FF5B00"/>
<path d="M91 128C109.778 128 125 111.882 125 92C125 72.1178 109.778 56 91 56C72.2223 56 57 72.1178 57 92C57 111.882 72.2223 128 91 128Z" fill="white"/>
<path d="M124.98 90.5999C124.977 90.4956 124.973 90.3914 124.968 90.2874C124.954 89.9197 124.935 89.5531 124.91 89.1884C124.907 89.1508 124.906 89.1132 124.903 89.0756C124.875 88.6748 124.838 88.2767 124.796 87.8796C124.786 87.7864 124.776 87.6935 124.766 87.6003C124.726 87.2463 124.682 86.894 124.634 86.5434C124.628 86.4949 124.622 86.4464 124.615 86.3983C124.558 85.9997 124.494 85.6034 124.424 85.2094C124.412 85.1365 124.398 85.0635 124.384 84.9906C124.32 84.6361 124.25 84.2832 124.176 83.9318C124.166 83.8848 124.157 83.8374 124.147 83.7908C124.061 83.3915 123.968 82.995 123.869 82.6012C123.859 82.5576 123.847 82.514 123.836 82.4707C123.742 82.1033 123.644 81.7383 123.54 81.3759C123.529 81.3383 123.518 81.298 123.507 81.2593C123.391 80.8583 123.268 80.4603 123.139 80.0656L123.134 80.0505C123.006 79.6615 122.872 79.2755 122.732 78.8925L122.703 78.8102C122.414 78.0251 122.1 77.2535 121.762 76.4952C121.755 76.4795 121.748 76.4637 121.741 76.4482C121.398 75.6825 121.031 74.9315 120.638 74.1954L120.628 74.1762C120.233 73.4342 119.813 72.7089 119.37 72C121.499 78.5889 121.977 85.6418 120.757 92.4803C119.537 99.3189 116.661 105.713 112.405 111.048C108.149 116.382 102.657 120.478 96.4561 122.941C90.2555 125.404 83.5553 126.15 77 125.11C78.5664 125.812 80.1806 126.39 81.829 126.839L81.8376 126.842C82.1077 126.915 82.3791 126.985 82.6516 127.052L82.6752 127.058C82.938 127.123 83.2023 127.183 83.4681 127.241L83.5215 127.253C83.7766 127.309 84.0328 127.36 84.29 127.409L84.3746 127.426C84.6254 127.474 84.8783 127.517 85.1313 127.559L85.2341 127.577C85.4713 127.614 85.7096 127.649 85.9482 127.683C85.9998 127.69 86.0506 127.698 86.1022 127.705C86.3319 127.736 86.5626 127.763 86.7934 127.789C86.8539 127.795 86.9141 127.804 86.9725 127.81C87.1925 127.834 87.4128 127.853 87.6339 127.873C87.7056 127.879 87.779 127.887 87.8517 127.893C88.0603 127.91 88.2702 127.922 88.4798 127.935C88.5654 127.94 88.6507 127.948 88.7364 127.952C88.9513 127.964 89.1699 127.971 89.387 127.978C89.4665 127.981 89.5454 127.986 89.6253 127.988C89.9222 127.996 90.2207 128 90.521 128C97.1582 128.006 103.656 125.999 109.232 122.222C114.808 118.444 119.226 113.057 121.954 106.707C122.184 106.173 122.402 105.632 122.608 105.084C122.917 104.262 123.198 103.426 123.45 102.576C123.873 101.148 124.211 99.6937 124.461 98.2214C124.562 97.6273 124.65 97.0285 124.723 96.4249C124.908 94.8965 125 93.3573 125 91.8165C125.001 91.409 124.993 91.0037 124.98 90.5999Z" fill="#EAE8EA"/>
<path d="M91 133C111.987 133 129 114.644 129 92C129 69.3563 111.987 51 91 51C70.0132 51 53 69.3563 53 92C53 114.644 70.0132 133 91 133Z" stroke="#363A5A" stroke-width="6" stroke-linecap="round" stroke-linejoin="round"/>
<path d="M99.2516 87.3651C98.9376 86.7377 98.5669 86.1483 98.1454 85.6061C97.5181 84.8162 97.1266 83.8254 97.0259 82.7727C96.9251 81.7201 97.1202 80.6584 97.5838 79.7367L103.322 68.5206C103.648 67.8834 104.094 67.3344 104.629 66.9121C105.165 66.4899 105.776 66.2047 106.42 66.0767C107.064 65.9488 107.725 65.9812 108.356 66.1716C108.988 66.362 109.575 66.7059 110.075 67.1788C113.97 70.8564 116.949 75.6065 118.721 80.9648C118.949 81.654 119.039 82.3908 118.985 83.1233C118.931 83.8558 118.735 84.5661 118.41 85.204C118.085 85.8419 117.639 86.3918 117.104 86.815C116.569 87.2382 115.958 87.5244 115.314 87.6532L103.971 89.9276C103.045 90.1053 102.092 89.954 101.246 89.4947C100.4 89.0353 99.703 88.2909 99.2516 87.3651V87.3651Z" fill="#FFCE43"/>
<path d="M82.7479 96.6344C83.0622 97.2615 83.4329 97.8508 83.8542 98.393C84.4817 99.183 84.8733 100.174 84.9741 101.227C85.0749 102.279 84.8798 103.341 84.4162 104.263L78.6769 115.479C78.3513 116.116 77.9052 116.665 77.3701 117.088C76.835 117.51 76.224 117.795 75.5802 117.923C74.9363 118.051 74.2753 118.019 73.6437 117.829C73.0122 117.638 72.4254 117.295 71.925 116.822C68.0298 113.144 65.0505 108.394 63.2785 103.035C63.0512 102.346 62.9613 101.609 63.0152 100.877C63.0691 100.144 63.2655 99.4339 63.5904 98.796C63.9154 98.1581 64.3611 97.6081 64.896 97.1849C65.4309 96.7617 66.042 96.4755 66.686 96.3467L78.0301 94.0723C78.956 93.8947 79.9081 94.0462 80.7538 94.5054C81.5995 94.9647 82.2966 95.7089 82.7479 96.6344Z" fill="#FFCE43"/>
<path d="M91.3392 81.7202C90.6872 81.7131 90.0361 81.7741 89.3964 81.9021C88.4574 82.1002 87.4806 81.996 86.6031 81.6041C85.7256 81.2121 84.9914 80.5521 84.5035 79.7167L78.6164 69.4635C78.2819 68.8814 78.0777 68.2322 78.0182 67.5616C77.9587 66.891 78.0454 66.2154 78.2722 65.5824C78.499 64.9494 78.8603 64.3745 79.3306 63.8981C79.801 63.4218 80.369 63.0556 80.9945 62.8255C85.8613 61.034 91.1044 60.5504 96.2113 61.4221C96.8678 61.5347 97.4919 61.7917 98.0394 62.175C98.5869 62.5583 99.0446 63.0585 99.3802 63.6403C99.7157 64.2221 99.9209 64.8713 99.9813 65.5421C100.042 66.2129 99.9557 66.8889 99.7295 67.5224L95.7476 78.6836C95.4163 79.5906 94.8136 80.3706 94.0234 80.9149C93.2333 81.4592 92.295 81.7407 91.3392 81.7202V81.7202Z" fill="#FFCE43"/>
<path d="M91.2669 103.293C91.8893 103.3 92.5107 103.236 93.1214 103.103C94.0178 102.895 94.9502 103.004 95.7878 103.415C96.6254 103.825 97.3262 104.517 97.7919 105.392L103.412 116.134C103.731 116.743 103.926 117.423 103.983 118.126C104.039 118.828 103.957 119.536 103.74 120.199C103.524 120.862 103.179 121.465 102.73 121.964C102.281 122.463 101.739 122.846 101.142 123.087C96.4959 124.964 91.491 125.471 86.6162 124.558C85.9896 124.44 85.3939 124.17 84.8713 123.769C84.3487 123.367 83.9118 122.843 83.5916 122.234C83.2713 121.624 83.0755 120.944 83.0179 120.242C82.9603 119.539 83.0423 118.831 83.2582 118.167L87.0582 106.474C87.3745 105.523 87.9499 104.706 88.7043 104.136C89.4587 103.566 90.3545 103.271 91.2669 103.293V103.293Z" fill="#FFCE43"/>
<path d="M82.3332 86.7905C82.002 87.3823 81.729 88.0085 81.5186 88.6593C81.2187 89.6201 80.6423 90.4573 79.8703 91.0536C79.0984 91.6498 78.1695 91.9752 77.2142 91.984L65.539 92C64.876 92.0012 64.2209 91.8483 63.6199 91.5521C63.0188 91.2559 62.4864 90.8236 62.0603 90.2858C61.6341 89.7479 61.3246 89.1175 61.1535 88.4392C60.9824 87.7608 60.9539 87.051 61.0701 86.3597C61.9727 80.9802 64.1777 75.9408 67.4695 71.734C67.8932 71.1934 68.4238 70.7579 69.0238 70.4583C69.6239 70.1587 70.2787 70.0022 70.942 70C71.6054 69.9978 72.2611 70.1499 72.8629 70.4455C73.4647 70.7412 73.9978 71.1731 74.4247 71.7109L81.9475 81.1781C82.5551 81.9549 82.9188 82.913 82.9879 83.919C83.0571 84.925 82.8282 85.9288 82.3332 86.7905Z" fill="#FFCE43"/>
<path d="M99.6664 97.2095C99.9977 96.6177 100.271 95.9916 100.481 95.3408C100.781 94.38 101.358 93.5428 102.13 92.9465C102.902 92.3502 103.83 92.0249 104.786 92.016L116.461 92C117.124 91.9988 117.779 92.1517 118.38 92.4479C118.981 92.7441 119.514 93.1764 119.94 93.7142C120.366 94.2521 120.675 94.8825 120.847 95.5608C121.018 96.2392 121.046 96.949 120.93 97.6403C120.028 103.02 117.823 108.059 114.531 112.266C114.108 112.807 113.577 113.242 112.977 113.542C112.377 113.841 111.722 113.998 111.059 114C110.396 114.002 109.74 113.85 109.138 113.554C108.536 113.259 108.003 112.827 107.576 112.289L100.053 102.821C99.4452 102.045 99.0814 101.087 99.0121 100.081C98.9429 99.0749 99.1716 98.0712 99.6664 97.2095Z" fill="#FFCE43"/>
<path d="M98.1446 85.6067C98.566 86.149 98.9368 86.7385 99.251 87.3658C99.7024 88.2913 100.4 89.0355 101.245 89.4947C102.091 89.9539 103.043 90.1053 103.969 89.9277L115.314 87.6531C115.958 87.5243 116.569 87.2381 117.104 86.8149C117.639 86.3917 118.084 85.8418 118.409 85.2039C118.734 84.566 118.931 83.8557 118.985 83.1232C119.039 82.3907 118.949 81.6538 118.722 80.9646C116.95 75.6062 113.97 70.8559 110.075 67.178C109.575 66.7052 108.988 66.3616 108.357 66.1713C107.725 65.9811 107.064 65.9488 106.42 66.0768C105.776 66.2049 105.165 66.4901 104.63 66.9123C104.095 67.3346 103.649 67.8836 103.323 68.5206L97.584 79.7376C97.1204 80.6592 96.9252 81.7207 97.0258 82.7733C97.1263 83.8258 97.5176 84.8166 98.1446 85.6067V85.6067Z" fill="#FFCE43"/>
<path d="M76.9462 107.306C78.7911 107.661 80.5276 108.589 81.9851 110L84.4244 104.876C84.8814 103.899 85.0738 102.774 84.9745 101.658C84.8752 100.543 84.4892 99.4928 83.8706 98.6556C83.4549 98.0811 83.0893 97.4565 82.7794 96.7918C82.3343 95.8111 81.6469 95.0224 80.813 94.5357C79.9791 94.049 79.0403 93.8885 78.1273 94.0766L71 95.6128C71.5258 104.713 73.1718 106.655 76.9462 107.306Z" fill="#FFCE43"/>
<path d="M84.5046 79.7167C84.9925 80.5521 85.7267 81.2121 86.6042 81.604C87.4817 81.996 88.4584 82.1002 89.3975 81.9021C90.0372 81.7741 90.6882 81.7132 91.3403 81.7202C92.296 81.7407 93.2343 81.4593 94.0245 80.915C94.8146 80.3707 95.4173 79.5906 95.7486 78.6835L99.7295 67.5225C99.9557 66.889 100.042 66.213 99.9813 65.5422C99.9209 64.8714 99.7157 64.2221 99.3802 63.6403C99.0446 63.0585 98.5869 62.5583 98.0394 62.175C97.4919 61.7917 96.8678 61.5347 96.2113 61.4221C91.1044 60.5504 85.8613 61.034 80.9945 62.8255C80.369 63.0557 79.801 63.4218 79.3306 63.8982C78.8603 64.3745 78.499 64.9495 78.2722 65.5825C78.0454 66.2155 77.9587 66.8911 78.0182 67.5617C78.0777 68.2323 78.2819 68.8816 78.6164 69.4636L84.5046 79.7167Z" fill="#FFCE43"/>
<path d="M97.7653 105.342C97.2976 104.485 96.5938 103.808 95.7526 103.406C94.9114 103.004 93.975 102.897 93.0748 103.1C92.4615 103.231 91.8374 103.294 91.2123 103.287C90.296 103.266 89.3965 103.555 88.639 104.113C87.8815 104.671 87.3038 105.472 86.9862 106.402L85 112.361C85.5276 112.98 86.0849 113.569 86.6698 114.124C88.3602 115.588 94.7838 116.32 94.7838 117.418C94.7838 118.194 95.9671 121.897 96.6598 124C98.1802 123.688 99.6749 123.243 101.129 122.671C101.729 122.435 102.273 122.059 102.724 121.57C103.175 121.082 103.522 120.492 103.739 119.843C103.956 119.193 104.04 118.5 103.983 117.812C103.926 117.124 103.73 116.458 103.409 115.861L97.7653 105.342Z" fill="#FFCE43"/>
<path d="M70.1099 87.7835C70.1099 89.3145 70.1247 90.7127 70.1544 92L77.3124 91.9899C78.2516 91.9811 79.1646 91.6556 79.9235 91.0592C80.6824 90.4628 81.2491 89.6254 81.544 88.6644C81.7508 88.0134 82.0191 87.387 82.3448 86.7951C82.8313 85.933 83.0562 84.9289 82.9881 83.9226C82.92 82.9164 82.5623 81.958 81.9649 81.1812L74.5694 71.7114C74.1498 71.1734 73.6256 70.7414 73.034 70.4457C72.4424 70.1499 71.7978 69.9978 71.1457 70C70.4935 70.0022 69.8498 70.1587 69.26 70.4584C68.6701 70.7581 68.1485 71.1937 67.732 71.7345C66.2659 73.6421 65.0133 75.7291 64 77.9524C67.2264 78.6007 70.1099 81.0598 70.1099 87.7835Z" fill="#FFCE43"/>
<path d="M116.461 92L104.785 92.016C103.83 92.0249 102.901 92.3503 102.129 92.9466C101.357 93.5429 100.781 94.3802 100.481 95.341C100.271 95.9918 99.9977 96.618 99.6664 97.2097C99.1716 98.0715 98.9429 99.0752 99.0121 100.081C99.0814 101.087 99.4452 102.045 100.053 102.822L107.575 112.289C108.002 112.827 108.536 113.259 109.137 113.554C109.739 113.85 110.395 114.002 111.058 114C111.721 113.998 112.376 113.841 112.976 113.542C113.576 113.242 114.107 112.807 114.531 112.266C117.822 108.059 120.027 103.02 120.93 97.6406C121.046 96.9492 121.018 96.2393 120.847 95.5609C120.675 94.8825 120.366 94.2521 119.94 93.7142C119.514 93.1763 118.981 92.744 118.38 92.4478C117.779 92.1516 117.124 91.9988 116.461 92V92Z" fill="#FFCE43"/>
<path d="M63.2794 103.354C65.0568 108.598 68.045 113.248 71.9521 116.847C72.4541 117.31 73.0426 117.646 73.6761 117.832C74.3096 118.019 74.9726 118.05 75.6184 117.925C76.2642 117.799 76.8771 117.52 77.4138 117.107C77.9505 116.694 78.398 116.157 78.7246 115.533L82 109.287C80.5175 107.984 78.751 107.127 76.8744 106.799C73.035 106.198 71.3606 104.404 70.8248 96L66.6972 96.8073C66.0512 96.9334 65.4383 97.2134 64.9018 97.6276C64.3652 98.0419 63.9182 98.5801 63.5922 99.2045C63.2663 99.8288 63.0693 100.524 63.0152 101.241C62.9612 101.958 63.0513 102.679 63.2794 103.354V103.354Z" fill="#FFB345"/>
<path d="M86.8282 113.881C86.2325 113.288 85.6647 112.661 85.1274 112L83.264 117.858C83.0433 118.552 82.9594 119.292 83.0183 120.026C83.0772 120.761 83.2774 121.472 83.6049 122.109C83.9324 122.745 84.3791 123.293 84.9135 123.713C85.4479 124.132 86.057 124.414 86.6978 124.537C90.1108 125.191 93.5992 125.152 97 124.42C96.2929 122.176 88.5494 115.443 86.8282 113.881Z" fill="#FFB345"/>
<path d="M65.5731 92L70 91.9941C69.9696 90.7117 69.9543 89.3188 69.9543 87.7937C69.9543 81.0956 66.9993 78.6458 63.6935 78C62.4488 80.6503 61.5659 83.4707 61.0708 86.3786C60.9536 87.0675 60.9822 87.7749 61.1545 88.451C61.3268 89.1271 61.6386 89.7554 62.0679 90.2915C62.4973 90.8275 63.0337 91.2584 63.6393 91.5536C64.245 91.8488 64.9051 92.0012 65.5731 92V92Z" fill="#FFB345"/>
</svg>
