<svg width="200" height="180" viewBox="0 0 200 200" fill="none" xmlns="http://www.w3.org/2000/svg">
<path d="M99.365 59.3735H111.11C111.377 59.3735 111.642 59.4434 111.889 59.5791C112.136 59.7147 112.36 59.9136 112.549 60.1644C112.738 60.4151 112.888 60.7127 112.99 61.0403C113.092 61.3679 113.145 61.719 113.145 62.0736V158.333C113.145 159.049 112.931 159.736 112.549 160.242C112.167 160.748 111.65 161.033 111.11 161.033H99.365V59.3735Z" fill="#231F20"/>
<path d="M111.11 161.364H99.365C99.2991 161.363 99.2362 161.327 99.1896 161.265C99.143 161.203 99.1163 161.12 99.115 161.033V59.3734C99.1163 59.286 99.143 59.2026 99.1896 59.1408C99.2362 59.0789 99.2991 59.0434 99.365 59.0417H111.11C111.716 59.0435 112.296 59.3635 112.724 59.9317C113.152 60.4998 113.394 61.27 113.395 62.0735V158.333C113.394 159.136 113.152 159.906 112.724 160.474C112.296 161.043 111.716 161.363 111.11 161.364ZM99.61 160.701H111.11C111.583 160.699 112.036 160.449 112.371 160.005C112.705 159.562 112.894 158.96 112.895 158.333V62.0735C112.895 61.4454 112.707 60.843 112.372 60.3988C112.037 59.9547 111.583 59.7051 111.11 59.7051H99.61V160.701Z" fill="#231F20"/>
<path d="M55.99 56.9985L50.96 60.1165L53.94 158.989H59.355L55.99 56.9985Z" fill="#231F20"/>
<path d="M59.355 159.321H53.94C53.8754 159.321 53.8133 159.288 53.7666 159.229C53.72 159.17 53.6926 159.089 53.69 159.003L50.69 60.1565C50.6873 60.0919 50.6992 60.0278 50.7241 59.9722C50.7491 59.9167 50.7859 59.8723 50.83 59.8447L55.865 56.7267C55.9014 56.7022 55.9417 56.6895 55.9825 56.6895C56.0233 56.6895 56.0636 56.7022 56.1 56.7267C56.1364 56.7538 56.1667 56.7933 56.1878 56.8411C56.2089 56.8889 56.22 56.9433 56.22 56.9987L59.585 158.99C59.5875 159.035 59.5825 159.08 59.5704 159.123C59.5583 159.165 59.5394 159.203 59.515 159.235C59.4716 159.289 59.4145 159.32 59.355 159.321ZM54.18 158.658H59.095L55.76 57.5427L51.215 60.3555L54.18 158.658Z" fill="#231F20"/>
<path d="M102.875 158.552C102.842 159.945 102.476 161.289 101.831 162.389C101.186 163.489 100.295 164.29 99.285 164.675C85.9985 169.575 71.9564 169.575 58.67 164.675C57.6603 164.29 56.7687 163.489 56.1236 162.389C55.4785 161.289 55.1131 159.945 55.08 158.552L52.77 59.3737C52.7312 57.8763 53.0802 56.4065 53.7589 55.2091C54.4376 54.0117 55.405 53.1589 56.5 52.7928C63.8603 50.5036 71.4004 49.39 78.96 49.4758C86.5212 49.3901 94.063 50.5037 101.425 52.7928C102.522 53.1572 103.492 54.0089 104.173 55.2062C104.854 56.4035 105.206 57.8742 105.17 59.3737L102.875 158.552Z" fill="white"/>
<path d="M79 168.682C72.104 168.733 65.2369 167.498 58.6 165.013C57.5396 164.609 56.6031 163.769 55.9256 162.614C55.2481 161.458 54.8645 160.048 54.83 158.585L52.5 59.3866C52.4649 57.8122 52.8358 56.269 53.5513 55.0122C54.2668 53.7553 55.284 52.8599 56.435 52.474C61.055 50.9614 68.71 49.157 78.935 49.157C89.16 49.157 96.84 50.9614 101.46 52.474C102.611 52.8599 103.628 53.7553 104.344 55.0122C105.059 56.269 105.43 57.8122 105.395 59.3866L103.085 158.565C103.051 160.028 102.667 161.439 101.989 162.594C101.312 163.749 100.375 164.589 99.315 164.993C92.7061 167.473 85.8682 168.715 79 168.682ZM79 49.8204C68.805 49.8204 61.19 51.6116 56.6 53.1374C55.5537 53.4735 54.6259 54.2751 53.9708 55.4085C53.3158 56.5419 52.9732 57.9389 53 59.3667L55.31 158.545C55.3405 159.868 55.6873 161.144 56.3003 162.189C56.9132 163.233 57.7606 163.992 58.72 164.356C71.9686 169.245 85.9714 169.245 99.22 164.356C100.179 163.991 101.025 163.231 101.638 162.187C102.251 161.143 102.598 159.867 102.63 158.545L104.94 59.3667C104.973 57.9435 104.638 56.5483 103.992 55.4118C103.345 54.2754 102.425 53.466 101.385 53.1175C96.79 51.6116 89.175 49.8204 79 49.8204Z" fill="#231F20"/>
<path d="M96.5599 62.0005H61.39C59.8408 62.0005 58.585 63.6667 58.585 65.7222V99.8275C58.585 101.883 59.8408 103.549 61.39 103.549H96.5599C98.1091 103.549 99.3649 101.883 99.3649 99.8275V65.7222C99.3649 63.6667 98.1091 62.0005 96.5599 62.0005Z" fill="#68E1FD"/>
<path d="M78.375 111.231C70.1863 111.189 62.0063 110.525 53.875 109.241C53.8086 109.23 53.7485 109.184 53.7077 109.113C53.6669 109.043 53.6488 108.954 53.6575 108.866C53.6661 108.778 53.7007 108.699 53.7537 108.644C53.8066 108.59 53.8736 108.566 53.94 108.578C54.265 108.637 86.85 114.184 103.985 106.442C104.045 106.425 104.107 106.438 104.16 106.478C104.214 106.518 104.254 106.582 104.274 106.659C104.293 106.736 104.291 106.82 104.267 106.895C104.244 106.969 104.2 107.03 104.145 107.065C97.05 110.283 87.355 111.231 78.375 111.231Z" fill="#231F20"/>
<path d="M69.3 150.491H61.335C60.8131 150.491 60.39 151.053 60.39 151.745V155.765C60.39 156.458 60.8131 157.019 61.335 157.019H69.3C69.8219 157.019 70.245 156.458 70.245 155.765V151.745C70.245 151.053 69.8219 150.491 69.3 150.491Z" fill="#68E1FD"/>
<path d="M69.295 157.351H61.335C61.018 157.351 60.7141 157.184 60.49 156.887C60.2659 156.589 60.14 156.186 60.14 155.765V151.745C60.14 151.325 60.2659 150.921 60.49 150.624C60.7141 150.327 61.018 150.16 61.335 150.16H69.295C69.4527 150.158 69.6092 150.198 69.7554 150.277C69.9015 150.355 70.0344 150.472 70.1464 150.619C70.2585 150.767 70.3474 150.942 70.4081 151.135C70.4687 151.329 70.5 151.536 70.5 151.745V155.765C70.5 155.975 70.4687 156.182 70.4081 156.375C70.3474 156.568 70.2585 156.744 70.1464 156.891C70.0344 157.039 69.9015 157.155 69.7554 157.234C69.6092 157.313 69.4527 157.353 69.295 157.351ZM61.335 150.823C61.1506 150.823 60.9739 150.92 60.8435 151.093C60.7132 151.266 60.64 151.501 60.64 151.745V155.765C60.64 156.01 60.7132 156.245 60.8435 156.417C60.9739 156.59 61.1506 156.688 61.335 156.688H69.295C69.4793 156.688 69.6561 156.59 69.7864 156.417C69.9167 156.245 69.99 156.01 69.99 155.765V151.745C69.99 151.501 69.9167 151.266 69.7864 151.093C69.6561 150.92 69.4793 150.823 69.295 150.823H61.335Z" fill="#231F20"/>
<path d="M82.9599 150.491H74.995C74.473 150.491 74.05 151.053 74.05 151.745V155.765C74.05 156.458 74.473 157.019 74.995 157.019H82.9599C83.4818 157.019 83.9049 156.458 83.9049 155.765V151.745C83.9049 151.053 83.4818 150.491 82.9599 150.491Z" fill="#D1D3D4"/>
<path d="M82.96 157.351H75C74.6831 157.351 74.3791 157.184 74.155 156.886C73.9309 156.589 73.805 156.186 73.805 155.765V151.745C73.805 151.325 73.9309 150.921 74.155 150.624C74.3791 150.327 74.6831 150.16 75 150.16H82.965C83.2819 150.16 83.5859 150.327 83.81 150.624C84.0341 150.921 84.16 151.325 84.16 151.745V155.765C84.16 155.974 84.1289 156.181 84.0685 156.374C84.0082 156.566 83.9197 156.742 83.8082 156.889C83.6967 157.036 83.5644 157.153 83.4188 157.232C83.2733 157.311 83.1173 157.352 82.96 157.351ZM75 150.823C74.9083 150.822 74.8174 150.845 74.7325 150.891C74.6476 150.937 74.5704 151.005 74.5053 151.091C74.4402 151.177 74.3886 151.278 74.3534 151.391C74.3181 151.503 74.3 151.624 74.3 151.745V155.765C74.3 156.01 74.3732 156.244 74.5036 156.417C74.6339 156.59 74.8107 156.687 74.995 156.687H82.96C83.1443 156.687 83.3211 156.59 83.4514 156.417C83.5818 156.244 83.655 156.01 83.655 155.765V151.745C83.655 151.501 83.5818 151.266 83.4514 151.093C83.3211 150.92 83.1443 150.823 82.96 150.823H75Z" fill="#231F20"/>
<path d="M96.62 150.491H88.655C88.1331 150.491 87.71 151.053 87.71 151.745V155.765C87.71 156.458 88.1331 157.019 88.655 157.019H96.62C97.1419 157.019 97.565 156.458 97.565 155.765V151.745C97.565 151.053 97.1419 150.491 96.62 150.491Z" fill="#68E1FD"/>
<path d="M96.62 157.351H88.655C88.338 157.351 88.0341 157.184 87.81 156.886C87.5859 156.589 87.46 156.186 87.46 155.765V151.745C87.46 151.325 87.5859 150.921 87.81 150.624C88.0341 150.327 88.338 150.16 88.655 150.16H96.62C96.9369 150.16 97.2408 150.327 97.465 150.624C97.6891 150.921 97.815 151.325 97.815 151.745V155.765C97.815 156.186 97.6891 156.589 97.465 156.886C97.2408 157.184 96.9369 157.351 96.62 157.351ZM88.655 150.823C88.4706 150.823 88.2939 150.92 88.1635 151.093C88.0332 151.266 87.96 151.501 87.96 151.745V155.765C87.96 156.01 88.0332 156.244 88.1635 156.417C88.2939 156.59 88.4706 156.687 88.655 156.687H96.62C96.8043 156.687 96.9811 156.59 97.1114 156.417C97.2417 156.244 97.315 156.01 97.315 155.765V151.745C97.315 151.501 97.2417 151.266 97.1114 151.093C96.9811 150.92 96.8043 150.823 96.62 150.823H88.655Z" fill="#231F20"/>
<path d="M69.295 146.902H61.335C61.018 146.902 60.7141 146.735 60.49 146.438C60.2659 146.14 60.14 145.737 60.14 145.317V141.296C60.14 140.876 60.2659 140.473 60.49 140.175C60.7141 139.878 61.018 139.711 61.335 139.711H69.295C69.6119 139.711 69.9159 139.878 70.14 140.175C70.3641 140.473 70.49 140.876 70.49 141.296V145.317C70.49 145.737 70.3641 146.14 70.14 146.438C69.9159 146.735 69.6119 146.902 69.295 146.902ZM61.335 140.374C61.1506 140.374 60.9739 140.471 60.8435 140.644C60.7132 140.817 60.64 141.052 60.64 141.296V145.317C60.64 145.561 60.7132 145.796 60.8435 145.969C60.9739 146.142 61.1506 146.239 61.335 146.239H69.295C69.4793 146.239 69.6561 146.142 69.7864 145.969C69.9167 145.796 69.99 145.561 69.99 145.317V141.296C69.99 141.052 69.9167 140.817 69.7864 140.644C69.6561 140.471 69.4793 140.374 69.295 140.374H61.335Z" fill="#231F20"/>
<path d="M82.96 146.902H75C74.6831 146.902 74.3791 146.735 74.155 146.438C73.9309 146.14 73.805 145.737 73.805 145.317V141.296C73.805 140.876 73.9309 140.473 74.155 140.175C74.3791 139.878 74.6831 139.711 75 139.711H82.965C83.2819 139.711 83.5859 139.878 83.81 140.175C84.0341 140.473 84.16 140.876 84.16 141.296V145.317C84.16 145.525 84.1289 145.732 84.0685 145.925C84.0082 146.118 83.9197 146.293 83.8082 146.44C83.6967 146.587 83.5644 146.704 83.4188 146.783C83.2733 146.863 83.1173 146.903 82.96 146.902ZM75 140.374C74.8157 140.374 74.6389 140.471 74.5086 140.644C74.3782 140.817 74.305 141.052 74.305 141.296V145.317C74.305 145.561 74.3782 145.796 74.5086 145.969C74.6389 146.142 74.8157 146.239 75 146.239H82.965C83.1493 146.239 83.3261 146.142 83.4564 145.969C83.5868 145.796 83.66 145.561 83.66 145.317V141.296C83.66 141.052 83.5868 140.817 83.4564 140.644C83.3261 140.471 83.1493 140.374 82.965 140.374H75Z" fill="#231F20"/>
<path d="M96.62 146.902H88.655C88.338 146.902 88.0341 146.735 87.81 146.438C87.5859 146.14 87.46 145.737 87.46 145.317V141.296C87.46 140.876 87.5859 140.473 87.81 140.175C88.0341 139.878 88.338 139.711 88.655 139.711H96.62C96.9369 139.711 97.2408 139.878 97.465 140.175C97.6891 140.473 97.815 140.876 97.815 141.296V145.317C97.815 145.737 97.6891 146.14 97.465 146.438C97.2408 146.735 96.9369 146.902 96.62 146.902ZM88.655 140.374C88.4706 140.374 88.2939 140.471 88.1635 140.644C88.0332 140.817 87.96 141.052 87.96 141.296V145.317C87.96 145.561 88.0332 145.796 88.1635 145.969C88.2939 146.142 88.4706 146.239 88.655 146.239H96.62C96.8043 146.239 96.9811 146.142 97.1114 145.969C97.2417 145.796 97.315 145.561 97.315 145.317V141.296C97.315 141.052 97.2417 140.817 97.1114 140.644C96.9811 140.471 96.8043 140.374 96.62 140.374H88.655Z" fill="#231F20"/>
<path d="M69.295 136.487H61.335C61.018 136.487 60.7141 136.32 60.49 136.023C60.2659 135.725 60.14 135.322 60.14 134.901V130.848C60.14 130.428 60.2659 130.024 60.49 129.727C60.7141 129.43 61.018 129.263 61.335 129.263H69.295C69.4527 129.261 69.6092 129.3 69.7554 129.379C69.9015 129.458 70.0344 129.575 70.1464 129.722C70.2585 129.87 70.3474 130.045 70.4081 130.238C70.4687 130.431 70.5 130.639 70.5 130.848V134.868C70.5033 135.08 70.4746 135.291 70.4154 135.488C70.3562 135.685 70.2678 135.865 70.1554 136.016C70.0431 136.167 69.909 136.286 69.7612 136.367C69.6134 136.448 69.4549 136.489 69.295 136.487ZM61.335 129.959C61.1506 129.959 60.9739 130.056 60.8435 130.229C60.7132 130.402 60.64 130.637 60.64 130.881V134.901C60.64 135.146 60.7132 135.38 60.8435 135.553C60.9739 135.726 61.1506 135.824 61.335 135.824H69.295C69.4793 135.824 69.6561 135.726 69.7864 135.553C69.9168 135.38 69.99 135.146 69.99 134.901V130.848C69.99 130.603 69.9168 130.369 69.7864 130.196C69.6561 130.023 69.4793 129.926 69.295 129.926L61.335 129.959Z" fill="#231F20"/>
<path d="M82.96 136.487H75C74.6831 136.487 74.3791 136.32 74.155 136.023C73.9309 135.725 73.805 135.322 73.805 134.902V130.848C73.805 130.428 73.9309 130.024 74.155 129.727C74.3791 129.43 74.6831 129.263 75 129.263H82.965C83.2819 129.263 83.5859 129.43 83.81 129.727C84.0341 130.024 84.16 130.428 84.16 130.848V134.868C84.1633 135.08 84.1347 135.29 84.0758 135.487C84.017 135.684 83.929 135.863 83.8172 136.013C83.7054 136.164 83.5719 136.284 83.4247 136.365C83.2775 136.447 83.1195 136.488 82.96 136.487ZM75 129.926C74.8157 129.926 74.6389 130.023 74.5086 130.196C74.3782 130.369 74.305 130.604 74.305 130.848V134.868C74.3016 134.992 74.3171 135.116 74.3505 135.231C74.384 135.347 74.4346 135.453 74.4995 135.542C74.5644 135.631 74.6421 135.702 74.7281 135.75C74.8141 135.799 74.9066 135.824 75 135.824H82.965C83.1493 135.824 83.3261 135.727 83.4564 135.554C83.5868 135.381 83.66 135.146 83.66 134.902V130.848C83.66 130.604 83.5868 130.369 83.4564 130.196C83.3261 130.023 83.1493 129.926 82.965 129.926H75Z" fill="#231F20"/>
<path d="M96.6199 136.487H88.655C88.338 136.487 88.0341 136.32 87.81 136.023C87.5859 135.725 87.46 135.322 87.46 134.902V130.848C87.46 130.428 87.5859 130.024 87.81 129.727C88.0341 129.43 88.338 129.263 88.655 129.263H96.6199C96.9369 129.263 97.2408 129.43 97.4649 129.727C97.689 130.024 97.8149 130.428 97.8149 130.848V134.868C97.8183 135.079 97.7898 135.289 97.7313 135.485C97.6727 135.682 97.5852 135.86 97.4739 136.011C97.3626 136.162 97.2297 136.282 97.0831 136.363C96.9365 136.445 96.779 136.487 96.6199 136.487ZM88.655 129.959C88.4706 129.959 88.2939 130.056 88.1635 130.229C88.0332 130.402 87.96 130.637 87.96 130.881V134.902C87.96 135.146 88.0332 135.381 88.1635 135.554C88.2939 135.727 88.4706 135.824 88.655 135.824H96.6199C96.8043 135.824 96.981 135.727 97.1114 135.554C97.2417 135.381 97.3149 135.146 97.3149 134.902V130.848C97.3149 130.604 97.2417 130.369 97.1114 130.196C96.981 130.023 96.8043 129.926 96.6199 129.926L88.655 129.959Z" fill="#231F20"/>
<path d="M69.295 125.926H61.335C61.0184 125.924 60.7153 125.756 60.4914 125.459C60.2676 125.162 60.1413 124.76 60.14 124.34V120.313C60.14 119.893 60.2659 119.49 60.49 119.192C60.7141 118.895 61.018 118.728 61.335 118.728H69.295C69.6119 118.728 69.9159 118.895 70.14 119.192C70.3641 119.49 70.49 119.893 70.49 120.313V124.34C70.4887 124.76 70.3623 125.162 70.1385 125.459C69.9147 125.756 69.6115 125.924 69.295 125.926ZM61.335 119.391C61.1506 119.391 60.9739 119.488 60.8435 119.661C60.7132 119.834 60.64 120.069 60.64 120.313V124.34C60.64 124.585 60.7132 124.819 60.8435 124.992C60.9739 125.165 61.1506 125.262 61.335 125.262H69.295C69.4793 125.262 69.6561 125.165 69.7864 124.992C69.9167 124.819 69.99 124.585 69.99 124.34V120.313C69.99 120.069 69.9167 119.834 69.7864 119.661C69.6561 119.488 69.4793 119.391 69.295 119.391H61.335Z" fill="#231F20"/>
<path d="M82.96 125.926H75C74.6835 125.924 74.3803 125.756 74.1565 125.459C73.9326 125.162 73.8063 124.76 73.805 124.34V120.313C73.805 119.893 73.9309 119.49 74.155 119.192C74.3791 118.895 74.6831 118.728 75 118.728H82.965C83.2819 118.728 83.5859 118.895 83.81 119.192C84.0341 119.49 84.16 119.893 84.16 120.313V124.34C84.1587 124.761 84.0316 125.165 83.8067 125.462C83.5818 125.759 83.2774 125.926 82.96 125.926ZM75 119.391C74.8157 119.391 74.6389 119.488 74.5086 119.661C74.3782 119.834 74.305 120.069 74.305 120.313V124.34C74.305 124.585 74.3782 124.819 74.5086 124.992C74.6389 125.165 74.8157 125.262 75 125.262H82.965C83.1489 125.261 83.3249 125.163 83.455 124.99C83.585 124.818 83.6587 124.584 83.66 124.34V120.313C83.6587 120.069 83.585 119.836 83.455 119.663C83.3249 119.491 83.1489 119.393 82.965 119.391H75Z" fill="#231F20"/>
<path d="M96.62 125.926H88.655C88.3384 125.924 88.0352 125.756 87.8114 125.459C87.5876 125.162 87.4613 124.76 87.46 124.34V120.313C87.46 119.893 87.5859 119.49 87.81 119.192C88.0341 118.895 88.338 118.728 88.655 118.728H96.62C96.9369 118.728 97.2408 118.895 97.465 119.192C97.6891 119.49 97.815 119.893 97.815 120.313V124.34C97.8136 124.76 97.6873 125.162 97.4635 125.459C97.2397 125.756 96.9365 125.924 96.62 125.926ZM88.655 119.391C88.471 119.393 88.295 119.491 88.165 119.663C88.0349 119.836 87.9613 120.069 87.96 120.313V124.34C87.9613 124.584 88.0349 124.818 88.165 124.99C88.295 125.163 88.471 125.261 88.655 125.262H96.62C96.8043 125.262 96.9811 125.165 97.1114 124.992C97.2417 124.819 97.315 124.585 97.315 124.34V120.313C97.315 120.069 97.2417 119.834 97.1114 119.661C96.9811 119.488 96.8043 119.391 96.62 119.391H88.655Z" fill="#231F20"/>
<path d="M95.18 56.1361V24.7573L92.225 27.9284L89.725 24.3792L86.615 27.7426L84.14 23.8219L81.35 27.6498L78.79 23.8219L76.115 27.4972L73.395 23.8219L71.05 27.338L67.815 24.3726L66.23 27.0262L62.775 23.7954V56.1361H95.18Z" fill="white"/>
<path d="M95.18 56.4678H62.775C62.7087 56.4678 62.6451 56.4329 62.5982 56.3707C62.5513 56.3085 62.525 56.2241 62.525 56.1361V23.822C62.5242 23.7613 62.5365 23.7016 62.5604 23.6499C62.5843 23.5982 62.6189 23.5566 62.66 23.5301C62.698 23.4975 62.7423 23.4802 62.7875 23.4802C62.8327 23.4802 62.877 23.4975 62.915 23.5301L66.18 26.5817L67.615 24.1603C67.6538 24.0926 67.7107 24.0473 67.774 24.0337C67.8373 24.0202 67.9021 24.0393 67.955 24.0873L71 26.8935L73.195 23.5765C73.2172 23.5417 73.2447 23.5136 73.2758 23.4942C73.3068 23.4747 73.3407 23.4643 73.375 23.4637C73.4093 23.4626 73.4435 23.4708 73.4753 23.4879C73.5071 23.505 73.536 23.5307 73.56 23.5632L76.095 27.0262L78.595 23.5964C78.6445 23.5325 78.7109 23.4968 78.78 23.4969C78.8144 23.4966 78.8485 23.5066 78.8797 23.5261C78.9108 23.5456 78.9383 23.5742 78.96 23.6097L81.34 27.1721L83.945 23.5964C83.9696 23.563 83.9992 23.5369 84.032 23.5197C84.0647 23.5026 84.0998 23.4948 84.135 23.4969C84.1696 23.4992 84.2035 23.511 84.2344 23.5315C84.2654 23.5521 84.2929 23.5809 84.315 23.6163L86.63 27.2849L89.55 24.1338C89.5962 24.0769 89.6569 24.0453 89.72 24.0453C89.783 24.0453 89.8438 24.0769 89.89 24.1338L92.25 27.4508L95.03 24.4721C95.0667 24.4335 95.111 24.4095 95.1575 24.4027C95.2041 24.3958 95.2512 24.4065 95.2934 24.4335C95.3357 24.4605 95.3713 24.5026 95.3964 24.5552C95.4214 24.6078 95.4348 24.6686 95.435 24.7308V56.1096C95.4378 56.1559 95.4332 56.2025 95.4216 56.2463C95.41 56.2901 95.3916 56.3302 95.3675 56.364C95.3435 56.3977 95.3144 56.4244 95.2821 56.4423C95.2498 56.4602 95.215 56.4689 95.18 56.4678ZM63.025 55.8044H94.93V25.4539L92.38 28.1871C92.3337 28.244 92.273 28.2756 92.21 28.2756C92.1469 28.2756 92.0862 28.244 92.04 28.1871L89.68 24.8701L86.75 28.0345C86.6988 28.0895 86.6333 28.1155 86.5678 28.1068C86.5023 28.0981 86.442 28.0555 86.4 27.9881L84.105 24.3527L81.5 27.882C81.4758 27.9142 81.4469 27.9396 81.4151 27.9567C81.3833 27.9738 81.3493 27.9823 81.315 27.9815C81.2798 27.9818 81.245 27.9719 81.213 27.9524C81.1811 27.9329 81.1527 27.9043 81.13 27.8687L78.75 24.3129L76.25 27.7228C76.2285 27.7582 76.201 27.7863 76.1697 27.8048C76.1384 27.8232 76.1042 27.8315 76.07 27.8289C76.0028 27.826 75.9388 27.7906 75.89 27.7294L73.36 24.3062L71.195 27.5569C71.1539 27.6166 71.098 27.6548 71.0374 27.6646C70.9769 27.6743 70.9157 27.6549 70.865 27.61L67.84 24.8303L66.4 27.2584C66.3605 27.325 66.3032 27.369 66.2399 27.3813C66.1767 27.3937 66.1123 27.3734 66.06 27.3247L63 24.4588L63.025 55.8044Z" fill="#231F20"/>
<path d="M59.87 56.136C60.37 55.9503 98.08 56.136 98.08 56.136H59.87Z" fill="white"/>
<path d="M59.855 56.4745C59.8013 56.4716 59.7497 56.4464 59.7075 56.4023C59.6653 56.3582 59.6347 56.2976 59.62 56.2291C59.6117 56.1859 59.61 56.1411 59.6148 56.097C59.6196 56.053 59.631 56.0107 59.6482 55.9725C59.6653 55.9343 59.688 55.9009 59.7149 55.8744C59.7419 55.8478 59.7724 55.8286 59.805 55.8177C60.305 55.6253 91.805 55.7713 98.085 55.8177C98.1513 55.8177 98.2149 55.8527 98.2617 55.9149C98.3086 55.9771 98.335 56.0615 98.335 56.1494C98.335 56.2374 98.3086 56.3218 98.2617 56.384C98.2149 56.4462 98.1513 56.4812 98.085 56.4812C85.21 56.4148 60.66 56.3352 59.925 56.4812L59.855 56.4745Z" fill="#231F20"/>
<path d="M90.41 35.3717H65.9549C65.9163 35.3864 65.8755 35.3889 65.836 35.3792C65.7964 35.3694 65.7591 35.3476 65.727 35.3154C65.6948 35.2833 65.6688 35.2417 65.6508 35.1939C65.6329 35.1461 65.6235 35.0934 65.6235 35.04C65.6235 34.9866 65.6329 34.934 65.6508 34.8862C65.6688 34.8384 65.6948 34.7968 65.727 34.7646C65.7591 34.7325 65.7964 34.7107 65.836 34.7009C65.8755 34.6911 65.9163 34.6937 65.9549 34.7083H90.41C90.4643 34.7289 90.5121 34.7724 90.5461 34.8323C90.5801 34.8921 90.5986 34.9651 90.5986 35.04C90.5986 35.115 90.5801 35.1879 90.5461 35.2478C90.5121 35.3076 90.4643 35.3511 90.41 35.3717Z" fill="#D1D3D4"/>
<path d="M84.095 42.6095H65.9549C65.9163 42.6242 65.8755 42.6267 65.836 42.617C65.7964 42.6072 65.7591 42.5854 65.727 42.5532C65.6948 42.5211 65.6688 42.4795 65.6508 42.4317C65.6329 42.3839 65.6235 42.3312 65.6235 42.2778C65.6235 42.2244 65.6329 42.1718 65.6508 42.124C65.6688 42.0762 65.6948 42.0346 65.727 42.0024C65.7591 41.9703 65.7964 41.9485 65.836 41.9387C65.8755 41.9289 65.9163 41.9315 65.9549 41.9461H84.095C84.1337 41.9315 84.1744 41.9289 84.214 41.9387C84.2535 41.9485 84.2908 41.9703 84.323 42.0024C84.3551 42.0346 84.3811 42.0762 84.3991 42.124C84.417 42.1718 84.4264 42.2244 84.4264 42.2778C84.4264 42.3312 84.417 42.3839 84.3991 42.4317C84.3811 42.4795 84.3551 42.5211 84.323 42.5532C84.2908 42.5854 84.2535 42.6072 84.214 42.617C84.1744 42.6267 84.1337 42.6242 84.095 42.6095Z" fill="#D1D3D4"/>
<path d="M87.0999 49.8471H65.9549C65.9163 49.8617 65.8755 49.8643 65.836 49.8545C65.7964 49.8448 65.7591 49.8229 65.727 49.7908C65.6948 49.7586 65.6688 49.717 65.6508 49.6692C65.6329 49.6214 65.6235 49.5688 65.6235 49.5154C65.6235 49.462 65.6329 49.4093 65.6508 49.3615C65.6688 49.3137 65.6948 49.2721 65.727 49.24C65.7591 49.2078 65.7964 49.186 65.836 49.1762C65.8755 49.1665 65.9163 49.169 65.9549 49.1837H87.0999C87.1386 49.169 87.1794 49.1665 87.2189 49.1762C87.2585 49.186 87.2958 49.2078 87.3279 49.24C87.3601 49.2721 87.3861 49.3137 87.4041 49.3615C87.422 49.4093 87.4314 49.462 87.4314 49.5154C87.4314 49.5688 87.422 49.6214 87.4041 49.6692C87.3861 49.717 87.3601 49.7586 87.3279 49.7908C87.2958 49.8229 87.2585 49.8448 87.2189 49.8545C87.1794 49.8643 87.1386 49.8617 87.0999 49.8471Z" fill="#D1D3D4"/>
<path d="M109.56 59.2542H107.27V161.026H109.56V59.2542Z" fill="#D1D3D4"/>
<path d="M109.56 161.365H107.27C107.204 161.365 107.14 161.33 107.093 161.268C107.046 161.205 107.02 161.121 107.02 161.033V59.2543C107.02 59.1663 107.046 59.082 107.093 59.0198C107.14 58.9576 107.204 58.9226 107.27 58.9226H109.56C109.626 58.9243 109.689 58.9598 109.735 59.0216C109.782 59.0835 109.809 59.1669 109.81 59.2543V161.033C109.809 161.12 109.782 161.204 109.735 161.266C109.689 161.327 109.626 161.363 109.56 161.365ZM107.52 160.701H109.31V59.586H107.5L107.52 160.701Z" fill="#231F20"/>
<path d="M165.5 154.757L148.225 167.72L122.225 114.237C122.485 111.583 122.05 99.8276 124.86 102.123C127.67 104.418 137.36 122.741 139.14 123.544C140.92 124.347 145.365 122.217 145.17 116.704C144.975 111.192 144.935 102.004 140.98 101.055C134.98 99.6153 128.915 104.14 126.62 102.587C124.325 101.035 122.69 96.5106 126.85 93.9631C131.605 91.0442 141.405 90.1685 149.02 92.3842C156.635 94.6 160.815 116.001 160.14 131.153C161.375 141.025 164.58 150.312 165.5 154.757Z" fill="white"/>
<path d="M148.215 168.052C148.173 168.052 148.132 168.038 148.095 168.012C148.058 167.985 148.027 167.946 148.005 167.899L122.005 114.416C121.971 114.352 121.957 114.274 121.965 114.197C122.02 113.666 122.04 112.731 122.07 111.649C122.19 106.906 122.405 102.568 123.675 101.665C123.884 101.533 124.116 101.48 124.346 101.512C124.577 101.543 124.796 101.658 124.98 101.844C126.48 103.052 129.685 108.399 132.805 113.567C135.565 118.144 138.415 122.854 139.21 123.232C140.005 123.611 141.74 123.232 143.06 121.906C143.676 121.319 144.169 120.533 144.493 119.623C144.817 118.713 144.96 117.709 144.91 116.705L144.87 115.61C144.695 110.27 144.435 102.203 140.925 101.36C137.695 100.584 134.425 101.579 131.76 102.375C129.445 103.039 127.62 103.622 126.495 102.866C125.02 101.864 123.995 99.8808 124.03 98.0365C124.03 96.7761 124.53 94.9915 126.735 93.6316C131.665 90.5998 141.68 89.8834 149.065 92.0262C152.62 93.0611 155.76 98.2953 157.915 106.774C159.847 114.618 160.682 122.864 160.38 131.107C161.24 137.834 163.025 144.375 164.33 149.125C164.935 151.334 165.455 153.238 165.745 154.651C165.76 154.722 165.756 154.797 165.734 154.864C165.712 154.932 165.674 154.988 165.625 155.022L148.35 167.985C148.311 168.026 148.264 168.049 148.215 168.052ZM122.465 114.157L148.295 167.275L165.2 154.591C164.905 153.264 164.415 151.44 163.85 149.377C162.535 144.574 160.735 138 159.875 131.2C159.873 131.173 159.873 131.147 159.875 131.12C160.51 116.93 156.57 94.9053 148.955 92.6962C141.66 90.5733 131.785 91.2765 126.955 94.2552C125.395 95.2105 124.56 96.5306 124.54 98.0697C124.52 99.6088 125.42 101.387 126.735 102.296C127.695 102.959 129.53 102.388 131.655 101.752C134.345 100.942 137.69 99.9339 141.025 100.73C144.925 101.659 145.2 110.051 145.38 115.603L145.42 116.691C145.471 117.803 145.309 118.914 144.951 119.922C144.593 120.929 144.049 121.801 143.37 122.456C142.045 123.783 140.195 124.373 139.06 123.863C138.19 123.465 135.97 119.882 132.425 113.985C129.475 109.095 126.135 103.556 124.73 102.408C124.619 102.287 124.486 102.209 124.344 102.181C124.202 102.153 124.057 102.176 123.925 102.249C122.8 103.052 122.665 108.445 122.58 111.669C122.535 112.698 122.5 113.587 122.465 114.157Z" fill="#231F20"/>
<path d="M123.269 49.0418L99.8049 67.3215C97.8617 68.8353 97.2114 72.1525 98.3524 74.7306L119.494 122.504C120.635 125.083 123.135 125.945 125.079 124.432L148.543 106.152C150.486 104.638 151.136 101.321 149.995 98.7427L128.853 50.9689C127.712 48.3908 125.212 47.528 123.269 49.0418Z" fill="white"/>
<path d="M123 125.521C122.244 125.521 121.501 125.26 120.845 124.762C120.189 124.263 119.643 123.546 119.26 122.682L98.12 74.9169C97.5404 73.604 97.377 72.0396 97.6658 70.567C97.9545 69.0945 98.6717 67.834 99.66 67.0623L123.15 48.7657C124.14 47.9964 125.32 47.7795 126.431 48.1625C127.541 48.5455 128.492 49.4972 129.075 50.809L150.215 98.5737C150.503 99.2243 150.692 99.9439 150.77 100.691C150.849 101.439 150.815 102.199 150.671 102.93C150.528 103.66 150.277 104.345 149.934 104.947C149.59 105.548 149.161 106.054 148.67 106.435L125.205 124.718C124.538 125.244 123.776 125.522 123 125.521ZM125.315 48.6397C124.639 48.628 123.972 48.8571 123.385 49.3031L99.915 67.5863C99.4798 67.9202 99.0994 68.3664 98.7963 68.8985C98.4931 69.4306 98.2734 70.0378 98.15 70.6844C98.0215 71.3301 97.9907 72.0031 98.0593 72.6647C98.128 73.3263 98.2947 73.9632 98.55 74.5388L119.69 122.303C120.205 123.464 121.046 124.306 122.029 124.645C123.011 124.983 124.055 124.79 124.93 124.108L148.4 105.831C149.275 105.148 149.909 104.033 150.165 102.729C150.421 101.426 150.277 100.041 149.765 98.8789L128.625 51.1142C128.371 50.5382 128.033 50.0347 127.631 49.6328C127.23 49.2308 126.772 48.9384 126.285 48.7724C125.974 48.6749 125.655 48.6303 125.335 48.6397H125.315Z" fill="#231F20"/>
<path d="M122.232 56.6179L116.312 61.2298C114.907 62.3244 114.437 64.7228 115.262 66.5869L117.723 72.1474C118.548 74.0115 120.356 74.6354 121.761 73.5408L127.68 68.9289C129.085 67.8344 129.556 65.436 128.731 63.5719L126.27 58.0113C125.445 56.1472 123.637 55.5234 122.232 56.6179Z" fill="#68E1FD"/>
<path d="M139.847 87.9965C139.335 86.8528 138.222 86.4754 137.36 87.1537C136.498 87.832 136.213 89.309 136.725 90.4528L141.496 101.127C142.007 102.271 143.12 102.648 143.982 101.97C144.844 101.292 145.129 99.8148 144.618 98.671L139.847 87.9965Z" fill="#D1D3D4"/>
<path d="M106.292 69.0391L104.632 70.3323C104.196 70.6718 104.05 71.4157 104.306 71.9939L107.871 80.0487C108.126 80.6269 108.687 80.8204 109.123 80.4809L110.783 79.1877C111.219 78.8482 111.365 78.1043 111.109 77.5261L107.544 69.4713C107.288 68.8931 106.727 68.6996 106.292 69.0391Z" fill="#D1D3D4"/>
<path d="M111.736 81.3348L110.076 82.628C109.64 82.9675 109.494 83.7114 109.75 84.2896L113.315 92.3444C113.571 92.9226 114.131 93.1161 114.567 92.7766L116.227 91.4833C116.663 91.1439 116.809 90.3999 116.553 89.8217L112.988 81.7669C112.732 81.1888 112.172 80.9953 111.736 81.3348Z" fill="#D1D3D4"/>
<path d="M117.178 93.6275L115.518 94.9207C115.082 95.2602 114.937 96.0041 115.192 96.5823L118.757 104.637C119.013 105.215 119.574 105.409 120.009 105.069L121.669 103.776C122.105 103.437 122.251 102.693 121.995 102.114L118.431 94.0597C118.175 93.4815 117.614 93.288 117.178 93.6275Z" fill="#D1D3D4"/>
<path d="M122.618 105.926L120.958 107.219C120.522 107.559 120.376 108.303 120.632 108.881L124.197 116.936C124.453 117.514 125.013 117.707 125.449 117.368L127.109 116.075C127.545 115.735 127.691 114.991 127.435 114.413L123.87 106.358C123.615 105.78 123.054 105.587 122.618 105.926Z" fill="#D1D3D4"/>
<path d="M126.83 123.75C126.83 123.75 119.92 109.507 118.91 106.806C117.265 102.408 122.435 99.4693 124.065 101.446C125.22 102.846 134.53 117.036 135.695 118.854" fill="white"/>
<path d="M126.83 124.081C126.788 124.081 126.747 124.066 126.711 124.04C126.674 124.013 126.643 123.975 126.62 123.929C126.34 123.352 119.69 109.646 118.685 106.952C117.985 105.081 118.38 103.164 119.735 101.811C121.09 100.458 123.18 99.9269 124.235 101.201C125.44 102.66 134.865 117.036 135.895 118.641C135.916 118.675 135.932 118.714 135.942 118.756C135.953 118.797 135.956 118.841 135.953 118.885C135.951 118.929 135.941 118.971 135.926 119.01C135.911 119.049 135.89 119.084 135.865 119.112C135.84 119.141 135.81 119.162 135.779 119.175C135.747 119.189 135.714 119.194 135.681 119.19C135.648 119.186 135.616 119.174 135.587 119.154C135.557 119.134 135.531 119.106 135.51 119.073C134.215 117.043 125.01 103.045 123.9 101.692C123.14 100.769 121.3 101.081 120.04 102.355C119.509 102.795 119.122 103.484 118.955 104.285C118.788 105.086 118.854 105.941 119.14 106.68C120.14 109.334 126.975 123.451 127.045 123.59C127.063 123.627 127.076 123.668 127.082 123.71C127.088 123.753 127.088 123.798 127.081 123.84C127.074 123.883 127.06 123.924 127.041 123.959C127.022 123.995 126.998 124.025 126.97 124.048C126.927 124.08 126.878 124.092 126.83 124.081Z" fill="#231F20"/>
<path d="M173.145 161.862L163.915 137.774L138.41 152.462L143.315 177.837L173.145 161.862Z" fill="#231F20"/>
<path d="M143.315 178.168C143.277 178.167 143.24 178.155 143.205 178.135C143.174 178.113 143.146 178.083 143.123 178.047C143.101 178.01 143.085 177.968 143.075 177.923L138.17 152.548C138.155 152.471 138.161 152.39 138.187 152.318C138.212 152.247 138.256 152.19 138.31 152.156L163.81 137.469C163.869 137.436 163.934 137.435 163.994 137.464C164.053 137.494 164.102 137.552 164.13 137.628L173.365 161.696C173.38 161.739 173.387 161.785 173.387 161.832C173.387 161.879 173.38 161.925 173.365 161.968C173.353 162.01 173.334 162.049 173.31 162.081C173.286 162.113 173.257 162.138 173.225 162.154L143.41 178.148C143.379 178.162 143.347 178.169 143.315 178.168ZM138.705 152.654L143.5 177.385L172.8 161.696L163.8 138.212L138.705 152.654Z" fill="#231F20"/>
</svg>
