<svg width="200" height="180" viewBox="0 0 200 200" fill="none" xmlns="http://www.w3.org/2000/svg">
<path opacity="0.24" d="M77.8534 191.352C93.1395 187.938 108.653 193.153 124.008 195.978C139.364 198.802 156.284 198.706 168.753 186.495C183.423 172.12 187.535 145.294 187.15 121.099C186.718 93.0923 181.195 63.8263 166.426 43.7983C158.551 33.122 148.554 25.7159 138.668 18.5721C126.308 9.62705 113.312 0.64266 99.2454 0.0305851C86.9481 -0.420309 75.0106 5.56434 66.0108 16.6922C59.002 25.4361 54.2438 36.8294 48.3983 46.9768C37.6035 65.715 22.7227 80.9688 16.1555 102.881C10.1781 122.822 12.3661 146.71 21.7868 164.15C31.2076 181.59 47.5317 192.052 63.6811 190.976" fill="#68E1FD"/>
<path d="M63.6778 172.885L151.091 188.602C152.65 188.883 154.23 188.349 155.498 187.114C156.766 185.88 157.623 184.04 157.889 181.983L164.621 130.066C164.758 129.005 164.734 127.918 164.549 126.869C164.365 125.821 164.024 124.832 163.546 123.961C163.069 123.09 162.465 122.355 161.77 121.799C161.075 121.243 160.303 120.877 159.5 120.723L80.0876 105.565C78.7222 105.304 77.3304 105.667 76.1414 106.595C74.9525 107.523 74.0373 108.961 73.5467 110.672L58.8274 162.034C58.502 163.167 58.3736 164.383 58.4518 165.592C58.5301 166.8 58.8128 167.969 59.2791 169.012C59.7454 170.055 60.3831 170.945 61.1447 171.616C61.9063 172.287 62.7722 172.72 63.6778 172.885Z" fill="#68E1FD"/>
<path d="M63.6778 172.885L151.091 188.602C152.65 188.883 154.23 188.349 155.498 187.114C156.766 185.88 157.623 184.04 157.889 181.983L164.621 130.066C164.758 129.005 164.734 127.918 164.549 126.869C164.365 125.821 164.024 124.832 163.546 123.961C163.069 123.09 162.465 122.355 161.77 121.799C161.075 121.243 160.303 120.877 159.5 120.723L80.0876 105.565C78.7222 105.304 77.3304 105.667 76.1414 106.595C74.9525 107.523 74.0373 108.961 73.5467 110.672L58.8274 162.034C58.502 163.167 58.3736 164.383 58.4518 165.592C58.5301 166.8 58.8128 167.969 59.2791 169.012C59.7454 170.055 60.3831 170.945 61.1447 171.616C61.9063 172.287 62.7722 172.72 63.6778 172.885Z" fill="url(#paint0_linear_154_351)"/>
<path d="M79.9656 101.679L161.243 117.156C162.537 117.404 163.852 116.978 164.915 115.967C165.977 114.956 166.703 113.439 166.94 111.734L177.241 36.8075C177.365 35.9063 177.348 34.981 177.192 34.0886C177.036 33.1963 176.744 32.3557 176.334 31.6186C175.924 30.8814 175.405 30.2634 174.809 29.8024C174.212 29.3414 173.551 29.0472 172.865 28.938L83.4914 14.6766C82.7977 14.566 82.0943 14.6472 81.4254 14.915C80.7565 15.1829 80.1367 15.6315 79.6049 16.2328C79.0731 16.834 78.6409 17.5748 78.3355 18.4086C78.0301 19.2423 77.8581 20.1509 77.8303 21.0772L75.6325 94.7798C75.5855 96.4366 76.002 98.0579 76.802 99.3316C77.602 100.605 78.7288 101.441 79.9656 101.679Z" fill="#68E1FD"/>
<path d="M82.5951 101.46L158.34 115.888C159.548 116.119 160.776 115.719 161.767 114.774C162.758 113.828 163.433 112.409 163.652 110.816L173.251 40.9915C173.367 40.1513 173.352 39.2885 173.207 38.4561C173.063 37.6237 172.791 36.8395 172.409 36.1518C172.027 35.4641 171.543 34.8874 170.987 34.4573C170.431 34.0272 169.814 33.7528 169.175 33.651L85.8803 20.3602C85.234 20.2582 84.5788 20.3347 83.9558 20.585C83.3329 20.8352 82.7557 21.2537 82.2605 21.8142C81.7653 22.3747 81.3629 23.065 81.0785 23.8418C80.7942 24.6186 80.634 25.4651 80.6081 26.328L78.5553 95.0028C78.5065 96.5518 78.8927 98.0696 79.639 99.2625C80.3853 100.455 81.4386 101.239 82.5951 101.46Z" fill="#68E1FD"/>
<path d="M82.5951 101.46L158.34 115.888C159.548 116.119 160.776 115.719 161.767 114.774C162.758 113.828 163.433 112.409 163.652 110.816L173.251 40.9915C173.367 40.1513 173.352 39.2885 173.207 38.4561C173.063 37.6237 172.791 36.8395 172.409 36.1518C172.027 35.4641 171.543 34.8874 170.987 34.4573C170.431 34.0272 169.814 33.7528 169.175 33.651L85.8803 20.3602C85.234 20.2582 84.5788 20.3347 83.9558 20.585C83.3329 20.8352 82.7557 21.2537 82.2605 21.8142C81.7653 22.3747 81.3629 23.065 81.0785 23.8418C80.7942 24.6186 80.634 25.4651 80.6081 26.328L78.5553 95.0028C78.5065 96.5518 78.8927 98.0696 79.639 99.2625C80.3853 100.455 81.4386 101.239 82.5951 101.46Z" fill="url(#paint1_linear_154_351)"/>
<path d="M101.786 51.2527L105.282 47.0469L111.052 48.3366L109.589 56.9669L99.509 55.0257L101.786 51.2527Z" fill="#68E1FD"/>
<path d="M101.786 51.2527L105.282 47.0469L111.052 48.3366L109.589 56.9669L99.509 55.0257L101.786 51.2527Z" fill="url(#paint2_linear_154_351)"/>
<path d="M108.561 51.6462L114.495 51.9698L115.062 57.9025L105.875 56.2849L108.561 51.6462Z" fill="#68E1FD"/>
<path d="M108.561 51.6462L114.495 51.9698L115.062 57.9025L105.875 56.2849L108.561 51.6462Z" fill="url(#paint3_linear_154_351)"/>
<path d="M112.841 48.8787L109.589 56.9668L118.614 58.156L118.453 49.4164L112.841 48.8787Z" fill="#68E1FD"/>
<path d="M112.841 48.8787L109.589 56.9668L118.614 58.156L118.453 49.4164L112.841 48.8787Z" fill="url(#paint4_linear_154_351)"/>
<path d="M92.8957 54.234L92.5695 45.4639L103.084 45.6038L103.845 56.3938L92.8957 54.234Z" fill="#68E1FD"/>
<path d="M92.8957 54.234L92.5695 45.4639L103.084 45.6038L103.845 56.3938L92.8957 54.234Z" fill="url(#paint5_linear_154_351)"/>
<path d="M64.1655 167.923L151.589 183.662C153.147 183.942 154.727 183.409 155.995 182.174C157.263 180.94 158.121 179.1 158.386 177.043L165.118 125.126C165.258 124.062 165.236 122.972 165.052 121.92C164.868 120.868 164.527 119.876 164.048 119.003C163.569 118.13 162.963 117.393 162.266 116.837C161.568 116.281 160.794 115.916 159.988 115.765L80.5752 100.603C79.2099 100.342 77.8181 100.705 76.6291 101.633C75.4402 102.561 74.525 103.999 74.0344 105.71L59.3052 157.072C58.9797 158.206 58.8516 159.423 58.9304 160.632C59.0092 161.841 59.2928 163.011 59.7601 164.055C60.2275 165.098 60.8664 165.988 61.6292 166.658C62.392 167.327 63.259 167.76 64.1655 167.923Z" fill="#68E1FD"/>
<path d="M146.988 161.671L75.4216 149.377C71.1215 148.542 68.5019 143.195 69.5925 137.437L76.2421 115.822C77.3229 110.064 81.6857 106.073 85.9891 106.912L153.131 119.975C157.431 120.811 160.05 126.157 158.96 131.915L156.735 152.761C155.655 158.514 151.289 162.51 146.988 161.671Z" fill="url(#paint6_linear_154_351)"/>
<path d="M91.683 167.975C91.3337 169.698 90.9515 171.495 90.0354 172.785C88.1704 175.36 85.0202 174.844 82.3808 174.136C81.7482 173.965 81.0825 173.777 80.5949 173.213C80.1819 172.667 79.8842 171.987 79.7315 171.241C77.7545 163.573 79.8601 155.1 82.7729 147.978C83.8076 145.451 84.9642 142.968 86.5459 141.005C88.9151 138.062 92.0553 136.51 95.1132 135.028C92.2361 138.574 89.9249 142.85 88.3168 147.603C86.7087 152.356 85.8365 157.49 85.7517 162.698C85.7517 163.534 90.8032 159.07 91.1096 159.044C93.9269 158.794 92.108 165.89 91.683 167.975Z" fill="url(#paint7_linear_154_351)"/>
<path d="M128.882 168.968C130.151 164.679 131.446 160.123 130.859 155.581C130.427 152.249 129.004 149.185 128.882 145.805C128.816 143.842 129.211 141.84 128.882 139.925C128.223 136.073 125.013 134.049 123.455 130.678C122.977 129.651 122.7 128.19 123.34 127.333C123.801 126.708 124.542 126.686 125.198 126.726C131.069 127.078 136.844 128.826 142.25 131.885C144.675 133.257 147.134 135.028 148.511 138.005C149.888 140.983 149.961 144.721 149.925 148.236C149.8 159.494 149.018 170.723 147.585 181.821C147.554 182.352 147.411 182.861 147.173 183.29C146.656 184.055 145.736 183.88 144.982 183.64C140.108 182.092 137.018 181.891 132.131 180.365C130.655 179.893 126.902 179.828 125.626 178.927C126.206 176.094 128.025 171.84 128.882 168.968Z" fill="url(#paint8_linear_154_351)"/>
<path d="M147.506 118.327C145.199 116.854 142.267 116.579 140.174 118.559C138.451 120.177 137.594 122.962 137.06 125.668C136.263 129.708 136.003 134.023 136.863 138.036C137.723 142.05 139.828 145.713 142.754 147.248C145.68 148.782 149.387 147.808 151.285 144.48C152.814 141.805 152.996 138.229 153.121 134.862C153.226 131.972 154.152 126.866 153.164 124.369C152.215 121.956 149.285 119.508 147.506 118.327Z" fill="#F3A984"/>
<path d="M147.506 118.327C145.199 116.854 142.267 116.579 140.174 118.559C138.451 120.177 137.594 122.962 137.06 125.668C136.263 129.708 136.003 134.023 136.863 138.036C137.723 142.05 139.828 145.713 142.754 147.248C145.68 148.782 149.387 147.808 151.285 144.48C152.814 141.805 152.996 138.229 153.121 134.862C153.226 131.972 154.152 126.866 153.164 124.369C152.215 121.956 149.285 119.508 147.506 118.327Z" fill="url(#paint9_linear_154_351)"/>
<path d="M148.633 101.998L125.443 86.8443C124.096 85.9642 122.467 86.6994 121.803 88.4865L115.298 106.01C114.635 107.798 115.189 109.96 116.536 110.84L139.727 125.993C141.073 126.873 142.703 126.138 143.366 124.351L149.871 106.827C150.534 105.04 149.98 102.878 148.633 101.998Z" fill="#68E1FD"/>
<path d="M148.96 102.688L125.725 87.6156C124.403 86.7583 122.808 87.4849 122.162 89.2386L115.979 106.016C115.333 107.77 115.881 109.887 117.203 110.744L140.438 125.816C141.76 126.673 143.355 125.947 144.001 124.193L150.184 107.415C150.83 105.662 150.282 103.545 148.96 102.688Z" fill="url(#paint10_linear_154_351)"/>
<path d="M136.184 122.665C134.782 120.425 132.855 118.872 130.711 118.253C130.13 118.05 129.521 118.032 128.935 118.201C128.642 118.29 128.372 118.478 128.149 118.746C127.927 119.014 127.761 119.353 127.666 119.731C127.579 120.372 127.644 121.033 127.85 121.624C128.977 125.69 131.426 128.943 132.483 133.039C133.367 136.462 134.727 139.116 134.833 142.727C134.965 147.405 134.068 152.132 134.721 156.718C135.176 159.922 136.368 162.922 136.576 166.17C136.714 168.33 136.444 170.699 137.34 172.514C138.454 174.77 140.804 175.098 142.833 175.198C144.629 175.29 146.616 175.299 147.984 173.747C148.781 172.846 149.242 171.539 149.677 170.275L157.948 146.352C158.419 144.988 158.9 143.558 158.844 142.059C158.762 139.964 157.668 138.229 156.996 136.331C154.788 130.123 157.213 122.778 156.584 115.962C156.05 110.187 153.351 105.177 150.366 100.914C149.654 99.8953 148.686 98.8111 147.681 99.2002C146.399 99.6986 146.267 102.151 146.896 103.712C147.526 105.273 148.626 106.475 149.071 108.145C149.401 109.435 149.318 110.847 149.223 112.211L148.564 121.462C148.392 123.871 148.234 126.271 147.924 128.676C147.569 131.54 146.705 134.84 144.596 135.606C142.949 136.209 141.183 134.871 140.141 133.061C139.1 131.251 138.576 129.021 137.884 126.94C137.192 124.859 137.275 124.413 136.184 122.665Z" fill="#F3A984"/>
<path d="M142.164 167.997C140.685 167.639 139.199 167.088 137.696 167.223C136.194 167.359 134.615 168.378 134.072 170.24C133.844 171.005 133.811 171.849 133.617 172.627C133.33 173.781 132.711 174.73 132.299 175.806C131.607 177.554 131.439 179.552 131.281 181.511L130.045 196.813C137.815 200.538 146.876 201.723 154.05 196.284C154.538 195.973 154.954 195.493 155.253 194.894C155.556 194.163 155.51 193.276 155.454 192.45C154.973 185.096 155.025 177.248 153.987 170.004C153.388 165.833 152.231 167.512 149.489 168.124C146.939 168.701 144.662 167.997 142.164 167.997Z" fill="#68E1FD"/>
<path d="M123.643 97.1243L125.426 98.2602C126.235 98.7764 126.857 99.6982 127.155 100.823C127.452 101.948 127.401 103.183 127.012 104.258L126.916 104.522C126.756 104.964 126.47 105.303 126.122 105.466C125.773 105.628 125.39 105.6 125.056 105.388L121.477 103.106C121.312 103.001 121.165 102.854 121.043 102.673C120.92 102.492 120.826 102.281 120.766 102.052C120.705 101.823 120.679 101.58 120.689 101.338C120.699 101.095 120.745 100.858 120.825 100.639L121.784 97.9904C121.863 97.7715 121.974 97.5755 122.11 97.4135C122.246 97.2515 122.406 97.1267 122.578 97.0463C122.751 96.9659 122.934 96.9314 123.117 96.9447C123.299 96.9581 123.478 97.0191 123.643 97.1243Z" fill="url(#paint11_linear_154_351)"/>
<path d="M126.206 109.221L124.904 108.395L123.913 111.144L125.215 111.97L126.206 109.221Z" fill="url(#paint12_linear_154_351)"/>
<path d="M128.14 110.516L126.838 109.69L125.847 112.439L127.149 113.265L128.14 110.516Z" fill="url(#paint13_linear_154_351)"/>
<path d="M130.074 111.812L128.772 110.985L127.781 113.734L129.083 114.561L130.074 111.812Z" fill="url(#paint14_linear_154_351)"/>
<path d="M132.011 113.103L130.709 112.276L129.718 115.025L131.02 115.852L132.011 113.103Z" fill="url(#paint15_linear_154_351)"/>
<path d="M133.943 114.402L132.641 113.576L131.65 116.325L132.952 117.151L133.943 114.402Z" fill="url(#paint16_linear_154_351)"/>
<path d="M135.877 115.697L134.575 114.871L133.584 117.62L134.886 118.446L135.877 115.697Z" fill="url(#paint17_linear_154_351)"/>
<path d="M137.811 116.993L136.509 116.167L135.518 118.916L136.82 119.742L137.811 116.993Z" fill="url(#paint18_linear_154_351)"/>
<path d="M139.748 118.284L138.446 117.458L137.455 120.207L138.757 121.033L139.748 118.284Z" fill="url(#paint19_linear_154_351)"/>
<path d="M141.681 119.579L140.379 118.753L139.388 121.502L140.69 122.328L141.681 119.579Z" fill="url(#paint20_linear_154_351)"/>
<path d="M93.1363 158.812C93.2312 158.488 93.2574 158.135 93.2121 157.793C93.117 157.44 92.9269 157.145 92.6782 156.967C91.1757 155.703 89.136 156.674 87.8014 158.23C86.4669 159.787 85.4949 161.876 84.1142 163.341C83.3036 159.765 84.5162 155.992 85.7025 152.603C87.8641 146.43 90.3156 139.85 94.8036 136.58C95.3506 136.187 95.98 135.758 96.148 134.963C96.438 133.616 95.1858 132.558 94.1314 132.51C92.5629 132.436 91.0735 133.415 89.5182 133.594C88.2002 133.743 86.8821 133.323 85.5641 133.345C84.3923 133.422 83.2307 133.673 82.1009 134.093C79.4252 134.945 76.6672 135.841 74.4694 138.027C72.9668 139.527 71.8102 141.551 70.7426 143.606C69.1247 146.714 67.6386 150.002 66.851 153.631C65.4111 160.259 66.3601 167.713 64.0271 173.877C63.2 176.063 61.9446 178.341 62.4421 180.693C62.8343 182.556 64.2215 183.719 65.5593 184.488C68.3434 186.084 71.3743 186.775 74.4002 186.504C74.9476 186.478 75.4879 186.33 75.9983 186.066C76.5107 185.726 76.9808 185.284 77.3921 184.755C83.9066 177.226 90.9121 170.607 93.1363 158.812Z" fill="#F3A984"/>
<path d="M111.22 174.144L96.8236 171.477C95.176 171.171 94.2369 169.291 94.7279 167.271L96.5698 159.738C97.0608 157.719 98.7973 156.333 100.448 156.639L114.845 159.306C116.492 159.612 117.431 161.492 116.937 163.512L115.098 171.044C114.614 173.064 112.868 174.45 111.22 174.144Z" fill="url(#paint21_linear_154_351)"/>
<path d="M53.4366 189.302C57.1436 191.234 60.8803 193.18 64.7916 194.177C68.7029 195.173 72.8482 195.173 76.5684 193.28C77.3361 192.891 78.1731 192.279 78.3444 191.212C78.4664 190.456 78.2126 189.691 77.9622 188.987L76.776 185.656C76.6741 185.223 76.4709 184.846 76.1958 184.577C75.9208 184.309 75.5884 184.165 75.247 184.165C72.8317 183.605 70.3505 183.26 68.09 181.979C64.3204 179.871 64.0798 174.293 59.9313 177.664C59.0218 178.42 52.593 188.86 53.4366 189.302Z" fill="#68E1FD"/>
<path d="M120.75 89.1883L85.8442 83.426L91.0538 54.0945L96.2766 54.8333L97.453 54.9995L112.571 57.1461L113.751 57.3122L119.455 58.1254L120.75 89.1883Z" fill="#68E1FD"/>
<path d="M112.505 37.1791C110.459 33.651 107.319 32.0902 103.658 32.7635C102.658 32.9258 101.695 33.3627 100.83 34.0461C99.9648 34.7296 99.2164 35.6448 98.6326 36.7332C95.6867 42.0189 95.9965 50.9858 96.2766 54.8331L97.4529 54.9993C97.1761 51.5367 96.7939 42.6004 99.5552 37.6382C100.055 36.721 100.691 35.9496 101.424 35.3721C102.158 34.7945 102.973 34.423 103.819 34.2805C107.088 33.6685 109.777 35.0019 111.592 38.1104C114.156 42.5261 114.502 49.8491 112.581 57.1459L113.757 57.312C115.715 49.6524 115.263 41.9271 112.505 37.1791Z" fill="#68E1FD"/>
<path d="M120.75 89.1883L85.8442 83.426L91.0538 54.0945L96.2766 54.8333L97.453 54.9995L112.571 57.1461L113.751 57.3122L119.455 58.1254L120.75 89.1883Z" fill="#68E1FD"/>
<path d="M112.505 37.1791C110.459 33.651 107.319 32.0902 103.658 32.7635C102.658 32.9258 101.695 33.3627 100.83 34.0461C99.9648 34.7296 99.2164 35.6448 98.6326 36.7332C95.6867 42.0189 95.9965 50.9858 96.2766 54.8331L97.4529 54.9993C97.1761 51.5367 96.7939 42.6004 99.5552 37.6382C100.055 36.721 100.691 35.9496 101.424 35.3721C102.158 34.7945 102.973 34.423 103.819 34.2805C107.088 33.6685 109.777 35.0019 111.592 38.1104C114.156 42.5261 114.502 49.8491 112.581 57.1459L113.757 57.312C115.715 49.6524 115.263 41.9271 112.505 37.1791Z" fill="#68E1FD"/>
<path d="M163.084 48.8496L134.085 44.5611C132.453 44.3198 130.983 45.879 130.802 48.0435L130.764 48.4954C130.582 50.6599 131.757 52.6102 133.388 52.8515L162.387 57.14C164.018 57.3813 165.488 55.8221 165.67 53.6576L165.708 53.2057C165.89 51.0412 164.715 49.0909 163.084 48.8496Z" fill="url(#paint22_linear_154_351)"/>
<path d="M162.269 60.2888L133.27 56.0003C131.639 55.7591 130.169 57.3182 129.987 59.4827L129.949 59.9346C129.767 62.0991 130.942 64.0494 132.574 64.2907L161.572 68.5792C163.204 68.8205 164.674 67.2613 164.855 65.0968L164.893 64.6449C165.075 62.4804 163.9 60.5301 162.269 60.2888Z" fill="url(#paint23_linear_154_351)"/>
<path d="M161.458 71.7202L132.459 67.4317C130.827 67.1905 129.357 68.7496 129.176 70.9141L129.138 71.366C128.956 73.5305 130.131 75.4808 131.762 75.7221L160.761 80.0106C162.393 80.2519 163.862 78.6927 164.044 76.5282L164.082 76.0763C164.264 73.9118 163.089 71.9615 161.458 71.7202Z" fill="url(#paint24_linear_154_351)"/>
<defs>
<linearGradient id="paint0_linear_154_351" x1="110.966" y1="131.981" x2="122.392" y2="291.704" gradientUnits="userSpaceOnUse">
<stop stop-color="#010101" stop-opacity="0"/>
<stop offset="0.95" stop-color="#010101"/>
</linearGradient>
<linearGradient id="paint1_linear_154_351" x1="135.999" y1="-24.0983" x2="91.4917" y2="144.473" gradientUnits="userSpaceOnUse">
<stop stop-color="white" stop-opacity="0"/>
<stop offset="0.66" stop-color="white"/>
</linearGradient>
<linearGradient id="paint2_linear_154_351" x1="3367.28" y1="1159.77" x2="3274.16" y2="1523.26" gradientUnits="userSpaceOnUse">
<stop stop-color="#010101" stop-opacity="0"/>
<stop offset="0.95" stop-color="#010101"/>
</linearGradient>
<linearGradient id="paint3_linear_154_351" x1="2794.77" y1="795.956" x2="2877.19" y2="1007.14" gradientUnits="userSpaceOnUse">
<stop stop-color="#010101" stop-opacity="0"/>
<stop offset="0.95" stop-color="#010101"/>
</linearGradient>
<linearGradient id="paint4_linear_154_351" x1="2851.58" y1="1117.53" x2="3177.28" y2="1742.08" gradientUnits="userSpaceOnUse">
<stop stop-color="#010101" stop-opacity="0"/>
<stop offset="0.95" stop-color="#010101"/>
</linearGradient>
<linearGradient id="paint5_linear_154_351" x1="3068.07" y1="1223.16" x2="2795.93" y2="1737.34" gradientUnits="userSpaceOnUse">
<stop stop-color="#010101" stop-opacity="0"/>
<stop offset="0.95" stop-color="#010101"/>
</linearGradient>
<linearGradient id="paint6_linear_154_351" x1="31936.1" y1="13800" x2="28196.2" y2="33027.3" gradientUnits="userSpaceOnUse">
<stop stop-color="#010101" stop-opacity="0"/>
<stop offset="0.95" stop-color="#010101"/>
</linearGradient>
<linearGradient id="paint7_linear_154_351" x1="3583.88" y1="16351.8" x2="8754.47" y2="13661.9" gradientUnits="userSpaceOnUse">
<stop stop-color="#010101" stop-opacity="0"/>
<stop offset="0.95" stop-color="#010101"/>
</linearGradient>
<linearGradient id="paint8_linear_154_351" x1="10595.7" y1="17686.7" x2="14923.6" y2="29328.7" gradientUnits="userSpaceOnUse">
<stop stop-color="#010101" stop-opacity="0"/>
<stop offset="0.95" stop-color="#010101"/>
</linearGradient>
<linearGradient id="paint9_linear_154_351" x1="7141.81" y1="8869.79" x2="8857.9" y2="10260.8" gradientUnits="userSpaceOnUse">
<stop stop-color="#010101" stop-opacity="0"/>
<stop offset="0.95" stop-color="#010101"/>
</linearGradient>
<linearGradient id="paint10_linear_154_351" x1="12052.7" y1="5649.35" x2="14828.6" y2="12076.6" gradientUnits="userSpaceOnUse">
<stop stop-color="#010101" stop-opacity="0"/>
<stop offset="0.95" stop-color="#010101"/>
</linearGradient>
<linearGradient id="paint11_linear_154_351" x1="147.434" y1="2719.07" x2="16.8948" y2="2864.68" gradientUnits="userSpaceOnUse">
<stop stop-color="white" stop-opacity="0"/>
<stop offset="0.66" stop-color="white"/>
</linearGradient>
<linearGradient id="paint12_linear_154_351" x1="-116.379" y1="1343.49" x2="1188.42" y2="2383.87" gradientUnits="userSpaceOnUse">
<stop stop-color="white" stop-opacity="0"/>
<stop offset="0.66" stop-color="white"/>
</linearGradient>
<linearGradient id="paint13_linear_154_351" x1="-110.144" y1="1340.6" x2="1194.65" y2="2380.97" gradientUnits="userSpaceOnUse">
<stop stop-color="white" stop-opacity="0"/>
<stop offset="0.66" stop-color="white"/>
</linearGradient>
<linearGradient id="paint14_linear_154_351" x1="-103.899" y1="1337.74" x2="1200.89" y2="2378.11" gradientUnits="userSpaceOnUse">
<stop stop-color="white" stop-opacity="0"/>
<stop offset="0.66" stop-color="white"/>
</linearGradient>
<linearGradient id="paint15_linear_154_351" x1="-97.6616" y1="1334.85" x2="1207.13" y2="2375.25" gradientUnits="userSpaceOnUse">
<stop stop-color="white" stop-opacity="0"/>
<stop offset="0.66" stop-color="white"/>
</linearGradient>
<linearGradient id="paint16_linear_154_351" x1="-91.443" y1="1331.96" x2="1213.36" y2="2372.37" gradientUnits="userSpaceOnUse">
<stop stop-color="white" stop-opacity="0"/>
<stop offset="0.66" stop-color="white"/>
</linearGradient>
<linearGradient id="paint17_linear_154_351" x1="-85.2179" y1="1329.12" x2="1219.58" y2="2369.52" gradientUnits="userSpaceOnUse">
<stop stop-color="white" stop-opacity="0"/>
<stop offset="0.66" stop-color="white"/>
</linearGradient>
<linearGradient id="paint18_linear_154_351" x1="-78.9736" y1="1326.25" x2="1225.81" y2="2366.61" gradientUnits="userSpaceOnUse">
<stop stop-color="white" stop-opacity="0"/>
<stop offset="0.66" stop-color="white"/>
</linearGradient>
<linearGradient id="paint19_linear_154_351" x1="-72.7385" y1="1323.35" x2="1232.03" y2="2363.73" gradientUnits="userSpaceOnUse">
<stop stop-color="white" stop-opacity="0"/>
<stop offset="0.66" stop-color="white"/>
</linearGradient>
<linearGradient id="paint20_linear_154_351" x1="-66.5146" y1="1320.48" x2="1238.29" y2="2360.86" gradientUnits="userSpaceOnUse">
<stop stop-color="white" stop-opacity="0"/>
<stop offset="0.66" stop-color="white"/>
</linearGradient>
<linearGradient id="paint21_linear_154_351" x1="2155.8" y1="6966.6" x2="2087" y2="8161.05" gradientUnits="userSpaceOnUse">
<stop stop-color="#010101" stop-opacity="0"/>
<stop offset="0.95" stop-color="#010101"/>
</linearGradient>
<linearGradient id="paint22_linear_154_351" x1="12823.5" y1="2792.96" x2="12706.3" y2="3390.89" gradientUnits="userSpaceOnUse">
<stop stop-color="white" stop-opacity="0"/>
<stop offset="0.66" stop-color="white"/>
</linearGradient>
<linearGradient id="paint23_linear_154_351" x1="12818.8" y1="3024.19" x2="12701.6" y2="3622.16" gradientUnits="userSpaceOnUse">
<stop stop-color="white" stop-opacity="0"/>
<stop offset="0.66" stop-color="white"/>
</linearGradient>
<linearGradient id="paint24_linear_154_351" x1="12814.4" y1="3255.54" x2="12697.3" y2="3853.47" gradientUnits="userSpaceOnUse">
<stop stop-color="white" stop-opacity="0"/>
<stop offset="0.66" stop-color="white"/>
</linearGradient>
</defs>
</svg>
