<svg width="500" height="450" viewBox="0 0 645 413" fill="none" xmlns="http://www.w3.org/2000/svg">
<path d="M109.499 138.63C106.98 138.63 104.636 139.11 102.639 140C98.2969 134.384 90.4818 130.616 81.5378 130.616C77.1961 130.616 73.028 131.507 69.4678 133.082C62.6078 125.205 51.1457 120 38.0336 120C17.0196 120 0 133.425 0 150H56.8768H76.0672H94.9972H106.199H124C124 143.699 117.487 138.63 109.499 138.63Z" fill="#ECF9FF"/>
<path d="M572.186 179.083H521.842L506.999 112.701H553.09L572.186 179.083Z" fill="white"/>
<path d="M521.842 179.083H471.498L460.908 112.701H506.999L521.842 179.083Z" fill="#F5A623"/>
<path d="M471.498 179.083H421.154L414.817 112.701H460.908L471.498 179.083Z" fill="white"/>
<path d="M421.154 179.083H370.81L368.726 112.701H414.817L421.154 179.083Z" fill="#F5A623"/>
<path d="M370.81 179.083H320.466L322.636 112.701H368.726L370.81 179.083Z" fill="white"/>
<path d="M320.466 179.083H270.122L276.545 112.701H322.636L320.466 179.083Z" fill="#F5A623"/>
<path d="M270.122 179.083H219.778L230.367 112.701H276.545L270.122 179.083Z" fill="white"/>
<path d="M219.778 179.083H169.434L184.276 112.701H230.367L219.778 179.083Z" fill="#F5A623"/>
<path d="M169.434 179.083H119.09L138.186 112.701H184.276L169.434 179.083Z" fill="white"/>
<path d="M285 205H138V367H285V205Z" fill="#F5969C"/>
<path opacity="0.18" d="M262 334H161V338H262V334Z" fill="#282828" stroke="#282828" stroke-width="6" stroke-miterlimit="10" stroke-linecap="round" stroke-linejoin="round"/>
<path d="M278 245H256V254H278V245Z" fill="#DF747C"/>
<path d="M153 231H138V239H153V231Z" fill="#DF747C"/>
<path d="M287 255H271V264H287V255Z" fill="#DF747C"/>
<path d="M283 341H272V349H283V341Z" fill="#DF747C"/>
<path d="M199 341H177V349H199V341Z" fill="#DF747C"/>
<path d="M187 352H165V359H187V352Z" fill="#DF747C"/>
<path d="M286 205H138V367H286V205Z" stroke="#2D255E" stroke-width="6" stroke-miterlimit="10" stroke-linecap="round" stroke-linejoin="round"/>
<path d="M257 210H166V328H257V210Z" fill="#66CDFD"/>
<path d="M224.648 322H191.348C190.043 322 189 321.273 189 320.364V319.636C189 318.727 190.043 318 191.348 318H224.648C225.952 318 226.995 318.727 226.995 319.636V320.364C227.082 321.273 225.952 322 224.648 322Z" fill="#3297D9"/>
<path d="M215 321H201V329H215V321Z" fill="#3297D9"/>
<path d="M240 329H233V303.679C233 302.206 234.575 301 236.5 301C238.425 301 240 302.206 240 303.679V329Z" fill="#3297D9"/>
<path d="M184 329H177V303.679C177 302.206 178.575 301 180.5 301C182.425 301 184 302.206 184 303.679V329Z" fill="#3297D9"/>
<path opacity="0.3" d="M253.653 328L257 324.326V275L209 328H253.653Z" fill="white"/>
<path opacity="0.3" d="M203.022 328L257 268.196V257L193 328H203.022Z" fill="white"/>
<path opacity="0.3" d="M185.951 328L257 247.642V242L181 328H185.951Z" fill="white"/>
<path d="M257 210H166V328H257V210Z" stroke="#2D255E" stroke-width="6" stroke-miterlimit="10" stroke-linecap="round" stroke-linejoin="round"/>
<path d="M262 328H161V337H262V328Z" fill="#D49D7F"/>
<path d="M262 328H161V337H262V328Z" stroke="#2D255E" stroke-width="6" stroke-miterlimit="10" stroke-linecap="round" stroke-linejoin="round"/>
<path d="M405 409L405 206L286 206L286 409H405Z" fill="#D49D7F"/>
<path d="M405 409L405 206L286 206L286 409H405Z" stroke="#2D255E" stroke-width="6" stroke-miterlimit="10" stroke-linecap="round" stroke-linejoin="round"/>
<path d="M393 218H299V358H393V218Z" fill="#66CDFD"/>
<path opacity="0.3" d="M393 359V292L345 359H393Z" fill="white"/>
<path opacity="0.3" d="M339.65 358L393 284.897V262L323 358H339.65Z" fill="white"/>
<path opacity="0.3" d="M315.394 358L393 251.444V244L310 358H315.394Z" fill="white"/>
<path d="M393 218H299V358H393V218Z" stroke="#2D255E" stroke-width="6" stroke-miterlimit="10" stroke-linecap="round" stroke-linejoin="round"/>
<path d="M293 367H122V409H293V367Z" fill="#DB6B7B"/>
<path d="M129 367H122V409H129V367Z" fill="#CE5569"/>
<path d="M291 367H287V409H291V367Z" fill="#CE5569"/>
<path d="M293 367H122V409H293V367Z" stroke="#2D255E" stroke-width="6" stroke-miterlimit="10" stroke-linecap="round" stroke-linejoin="round"/>
<path d="M406 367L553 367L553 205L406 205L406 367Z" fill="#F5969C"/>
<path d="M541 352H519V359H541V352Z" fill="#DF747C"/>
<path d="M428 352H406V359H428V352Z" fill="#DF747C"/>
<path d="M527 341H505V349H527V341Z" fill="#DF747C"/>
<path d="M435 228H421V235H435V228Z" fill="#DF747C"/>
<path d="M418 306H405V314H418V306Z" fill="#DF747C"/>
<path d="M405 367L553 367L553 205L405 205L405 367Z" stroke="#2D255E" stroke-width="6" stroke-miterlimit="10" stroke-linecap="round" stroke-linejoin="round"/>
<path d="M524 210H434V328H524V210Z" fill="#66CDFD"/>
<path d="M466.348 322H499.652C500.957 322 502 321.273 502 320.364V319.636C502 318.727 500.957 318 499.652 318H466.348C465.043 318 464 318.727 464 319.636V320.364C464 321.273 465.043 322 466.348 322Z" fill="#3297D9"/>
<path d="M476 329L490 329L490 321L476 321L476 329Z" fill="#3297D9"/>
<path d="M451 329H458V303.679C458 302.206 456.425 301 454.5 301C452.575 301 451 302.206 451 303.679V329Z" fill="#3297D9"/>
<path d="M507 329H514V303.679C514 302.206 512.425 301 510.5 301C508.575 301 507 302.206 507 303.679V329Z" fill="#3297D9"/>
<path opacity="0.3" d="M520.809 328L524 324.326V275L477 328H520.809Z" fill="white"/>
<path opacity="0.3" d="M470.952 328L524 268.196V257L461 328H470.952Z" fill="white"/>
<path opacity="0.3" d="M452.951 328L524 247.642V242L448 328H452.951Z" fill="white"/>
<path d="M524 210H434V328H524V210Z" stroke="#2D255E" stroke-width="6" stroke-miterlimit="10" stroke-linecap="round" stroke-linejoin="round"/>
<path opacity="0.18" d="M530 334H429V338H530V334Z" fill="#282828" stroke="#282828" stroke-width="6" stroke-miterlimit="10" stroke-linecap="round" stroke-linejoin="round"/>
<path d="M429 337L530 337L530 328L429 328L429 337Z" fill="#D49D7F"/>
<path d="M429 337L530 337L530 328L429 328L429 337Z" stroke="#2D255E" stroke-width="6" stroke-miterlimit="10" stroke-linecap="round" stroke-linejoin="round"/>
<path d="M400 409L569 409L569 367L400 367L400 409Z" fill="#DB6B7B"/>
<path d="M406 367H400V409H406V367Z" fill="#CE5569"/>
<path d="M400 409L569 409L569 367L400 367L400 409Z" stroke="#2D255E" stroke-width="6" stroke-miterlimit="10" stroke-linecap="round" stroke-linejoin="round"/>
<path d="M316 316C313.778 316 312 314.639 312 312.937V280.063C312 278.361 313.778 277 316 277C318.222 277 320 278.361 320 280.063V312.937C320 314.639 318.222 316 316 316Z" fill="#2D255E"/>
<path opacity="0.18" d="M522.227 183H471.808H421.389H370.97H320.551H270.132H219.713H169.295H138V225.376C139.912 225.792 141.999 226 144.085 226C157.994 226 169.295 216.984 169.295 205.887C169.295 216.984 180.595 226 194.504 226C208.413 226 219.713 216.984 219.713 205.887C219.713 216.984 231.014 226 244.923 226C258.832 226 270.132 216.984 270.132 205.887C270.132 216.984 281.433 226 295.342 226C309.251 226 320.551 216.984 320.551 205.887C320.551 216.984 331.852 226 345.761 226C359.669 226 370.97 216.984 370.97 205.887C370.97 216.984 382.271 226 396.18 226C410.088 226 421.389 216.984 421.389 205.887C421.389 216.984 432.69 226 446.599 226C460.507 226 471.808 216.984 471.808 205.887C471.808 216.984 483.109 226 497.018 226C510.926 226 522.227 216.984 522.227 205.887C522.227 216.984 533.528 226 547.437 226C549.349 226 551.261 225.792 553 225.515V183H522.227Z" fill="#282828" stroke="#282828" stroke-width="6" stroke-miterlimit="10" stroke-linecap="round" stroke-linejoin="round"/>
<path d="M496.67 221.955C482.782 221.955 471.498 212.965 471.498 201.902V179.083H521.842V201.902C521.842 212.965 510.558 221.955 496.67 221.955Z" fill="#D68821"/>
<path d="M446.326 221.955C432.438 221.955 421.154 212.965 421.154 201.902V179.083H471.498V201.902C471.498 212.965 460.214 221.955 446.326 221.955Z" fill="#D6D6D6"/>
<path d="M395.982 221.955C382.094 221.955 370.81 212.965 370.81 201.902V179.083H421.154V201.902C421.154 212.965 409.87 221.955 395.982 221.955Z" fill="#D68821"/>
<path d="M345.638 221.955C331.75 221.955 320.466 212.965 320.466 201.902V179.083H370.81V201.902C370.81 212.965 359.526 221.955 345.638 221.955Z" fill="#D6D6D6"/>
<path d="M295.294 221.955C281.406 221.955 270.122 212.965 270.122 201.902V179.083H320.466V201.902C320.466 212.965 309.182 221.955 295.294 221.955Z" fill="#D68821"/>
<path d="M244.95 221.955C231.062 221.955 219.778 212.965 219.778 201.902V179.083H270.122V201.902C270.122 212.965 258.838 221.955 244.95 221.955Z" fill="#D6D6D6"/>
<path d="M194.606 221.955C180.718 221.955 169.434 212.965 169.434 201.902V179.083H219.778V201.902C219.778 212.965 208.494 221.955 194.606 221.955Z" fill="#D68821"/>
<path d="M144.262 221.955C130.374 221.955 119.09 212.965 119.09 201.902V179.083H169.434V201.902C169.434 212.965 158.15 221.955 144.262 221.955Z" fill="#D6D6D6"/>
<path d="M496.67 221.955C482.782 221.955 471.498 212.965 471.498 201.902V179.083H521.842V201.902C521.842 212.965 510.558 221.955 496.67 221.955Z" stroke="#2D255E" stroke-width="6" stroke-miterlimit="10" stroke-linecap="round" stroke-linejoin="round"/>
<path d="M446.326 221.955C432.438 221.955 421.154 212.965 421.154 201.902V179.083H471.498V201.902C471.498 212.965 460.214 221.955 446.326 221.955Z" stroke="#2D255E" stroke-width="6" stroke-miterlimit="10" stroke-linecap="round" stroke-linejoin="round"/>
<path d="M395.982 221.955C382.094 221.955 370.81 212.965 370.81 201.902V179.083H421.154V201.902C421.154 212.965 409.87 221.955 395.982 221.955Z" stroke="#2D255E" stroke-width="6" stroke-miterlimit="10" stroke-linecap="round" stroke-linejoin="round"/>
<path d="M345.638 221.955C331.75 221.955 320.466 212.965 320.466 201.902V179.083H370.81V201.902C370.81 212.965 359.526 221.955 345.638 221.955Z" stroke="#2D255E" stroke-width="6" stroke-miterlimit="10" stroke-linecap="round" stroke-linejoin="round"/>
<path d="M295.294 221.955C281.406 221.955 270.122 212.965 270.122 201.902V179.083H320.466V201.902C320.466 212.965 309.182 221.955 295.294 221.955Z" stroke="#2D255E" stroke-width="6" stroke-miterlimit="10" stroke-linecap="round" stroke-linejoin="round"/>
<path d="M244.95 221.955C231.062 221.955 219.778 212.965 219.778 201.902V179.083H270.122V201.902C270.122 212.965 258.838 221.955 244.95 221.955Z" stroke="#2D255E" stroke-width="6" stroke-miterlimit="10" stroke-linecap="round" stroke-linejoin="round"/>
<path d="M194.606 221.955C180.718 221.955 169.434 212.965 169.434 201.902V179.083H219.778V201.902C219.778 212.965 208.494 221.955 194.606 221.955Z" stroke="#2D255E" stroke-width="6" stroke-miterlimit="10" stroke-linecap="round" stroke-linejoin="round"/>
<path d="M144.262 221.955C130.374 221.955 119.09 212.965 119.09 201.902V179.083H169.434V201.902C169.434 212.965 158.15 221.955 144.262 221.955Z" stroke="#2D255E" stroke-width="6" stroke-miterlimit="10" stroke-linecap="round" stroke-linejoin="round"/>
<path d="M572.186 179.083H521.842L506.999 112.701H553.09L572.186 179.083Z" stroke="#2D255E" stroke-width="6" stroke-miterlimit="10" stroke-linecap="round" stroke-linejoin="round"/>
<path d="M521.842 179.083H471.498L460.908 112.701H506.999L521.842 179.083Z" stroke="#2D255E" stroke-width="6" stroke-miterlimit="10" stroke-linecap="round" stroke-linejoin="round"/>
<path d="M471.498 179.083H421.154L414.817 112.701H460.908L471.498 179.083Z" stroke="#2D255E" stroke-width="6" stroke-miterlimit="10" stroke-linecap="round" stroke-linejoin="round"/>
<path d="M421.154 179.083H370.81L368.726 112.701H414.817L421.154 179.083Z" stroke="#2D255E" stroke-width="6" stroke-miterlimit="10" stroke-linecap="round" stroke-linejoin="round"/>
<path d="M370.81 179.083H320.466L322.636 112.701H368.726L370.81 179.083Z" stroke="#2D255E" stroke-width="6" stroke-miterlimit="10" stroke-linecap="round" stroke-linejoin="round"/>
<path d="M320.466 179.083H270.122L276.545 112.701H322.636L320.466 179.083Z" stroke="#2D255E" stroke-width="6" stroke-miterlimit="10" stroke-linecap="round" stroke-linejoin="round"/>
<path d="M270.122 179.083H219.778L230.367 112.701H276.545L270.122 179.083Z" stroke="#2D255E" stroke-width="6" stroke-miterlimit="10" stroke-linecap="round" stroke-linejoin="round"/>
<path d="M219.778 179.083H169.434L184.276 112.701H230.367L219.778 179.083Z" stroke="#2D255E" stroke-width="6" stroke-miterlimit="10" stroke-linecap="round" stroke-linejoin="round"/>
<path d="M169.434 179.083H119.09L138.186 112.701H184.276L169.434 179.083Z" stroke="#2D255E" stroke-width="6" stroke-miterlimit="10" stroke-linecap="round" stroke-linejoin="round"/>
<path d="M553 100H138V112H553V100Z" fill="#DB6B7B"/>
<path d="M553 100H138V105H553V100Z" fill="#F5969C"/>
<path d="M553 100H138V112H553V100Z" stroke="#2D255E" stroke-width="6" stroke-miterlimit="10" stroke-linecap="round" stroke-linejoin="round"/>
<path d="M77 329V368" stroke="#2D255E" stroke-width="6" stroke-miterlimit="10" stroke-linecap="round" stroke-linejoin="round"/>
<path d="M93.5816 331H88.4177C78.2622 331 70 324.322 70 316.113V281.887C70 273.678 78.2622 267 88.4177 267H93.5816C103.737 267 111.999 273.678 111.999 281.887V316.113C112.085 324.322 103.823 331 93.5816 331Z" fill="#14A56A"/>
<path d="M93.5816 331H88.4177C78.2622 331 70 324.322 70 316.113V281.887C70 273.678 78.2622 267 88.4177 267H93.5816C103.737 267 111.999 273.678 111.999 281.887V316.113C112.085 324.322 103.823 331 93.5816 331Z" stroke="#2D255E" stroke-width="6" stroke-miterlimit="10" stroke-linecap="round" stroke-linejoin="round"/>
<path d="M63 343L65.5926 353.535L77 357" stroke="#2D255E" stroke-width="6" stroke-miterlimit="10" stroke-linecap="round" stroke-linejoin="round"/>
<path d="M57.5 345C48.9574 345 42 339.587 42 332.941V315.059C42 308.413 48.9574 303 57.5 303C66.0426 303 73 308.413 73 315.059V332.941C73 339.587 66.0426 345 57.5 345Z" fill="#12B075"/>
<path d="M57.5 345C48.9574 345 42 339.587 42 332.941V315.059C42 308.413 48.9574 303 57.5 303C66.0426 303 73 308.413 73 315.059V332.941C73 339.587 66.0426 345 57.5 345Z" stroke="#2D255E" stroke-width="6" stroke-miterlimit="10" stroke-linecap="round" stroke-linejoin="round"/>
<path d="M96.714 408H57.286L52 367H102L96.714 408Z" fill="#69351F"/>
<path d="M87.2766 367L82 408H96.8085L102 367H87.2766Z" fill="#632D1B"/>
<path d="M100 375H82V381H100V375Z" fill="#562314"/>
<path d="M70 386H54V391H70V386Z" fill="#562314"/>
<path d="M98 394H76V400H98V394Z" fill="#562314"/>
<path d="M96.714 408H57.286L52 367H102L96.714 408Z" stroke="#2D255E" stroke-width="6" stroke-miterlimit="10" stroke-linecap="round" stroke-linejoin="round"/>
<path d="M78 353L90 347.57V298" stroke="#2D255E" stroke-width="6" stroke-miterlimit="10" stroke-linecap="round" stroke-linejoin="round"/>
<path d="M91 313L100 308" stroke="#2D255E" stroke-width="6" stroke-miterlimit="10" stroke-linecap="round" stroke-linejoin="round"/>
<path d="M371.898 262.645L326.052 270.408L330.618 287.519L376.464 279.756L371.898 262.645Z" fill="#E8E8E8"/>
<path d="M371.898 262.645L326.052 270.408L330.618 287.519L376.464 279.756L371.898 262.645Z" stroke="#2D255E" stroke-width="3" stroke-miterlimit="10" stroke-linecap="round" stroke-linejoin="round"/>
<path d="M336.608 274.181L364.665 269.047C365.787 268.824 366.823 269.419 367.082 270.386L367.946 273.735C368.205 274.702 367.514 275.595 366.392 275.819L338.335 280.953C337.213 281.176 336.177 280.581 335.918 279.614L335.054 276.265C334.795 275.298 335.486 274.405 336.608 274.181Z" fill="#D3D3D3"/>
<path d="M340 267L347.217 250L356 263.782" stroke="#2D255E" stroke-width="2" stroke-miterlimit="10" stroke-linecap="round" stroke-linejoin="round"/>
<path d="M347.5 254C348.881 254 350 252.881 350 251.5C350 250.119 348.881 249 347.5 249C346.119 249 345 250.119 345 251.5C345 252.881 346.119 254 347.5 254Z" fill="#2D255E"/>
<path d="M211 352H189V359H211V352Z" fill="#DF747C"/>
<path opacity="0.38" d="M80 293L84 298" stroke="#006837" stroke-width="6" stroke-miterlimit="10" stroke-linecap="round" stroke-linejoin="round"/>
<path opacity="0.38" d="M83 279L88 285" stroke="#006837" stroke-width="6" stroke-miterlimit="10" stroke-linecap="round" stroke-linejoin="round"/>
<path d="M93 279L98 284" stroke="#39D188" stroke-width="6" stroke-miterlimit="10" stroke-linecap="round" stroke-linejoin="round"/>
<path opacity="0.38" d="M55 276L57 280" stroke="#006837" stroke-width="6" stroke-miterlimit="10" stroke-linecap="round" stroke-linejoin="round"/>
<path d="M56 267L59 270" stroke="#39D188" stroke-width="6" stroke-miterlimit="10" stroke-linecap="round" stroke-linejoin="round"/>
<path d="M547.014 221.955C533.126 221.955 521.842 212.965 521.842 201.902V179.083H572.186V201.902C572.186 212.965 560.902 221.955 547.014 221.955Z" fill="#D6D6D6"/>
<path d="M547.014 221.955C533.126 221.955 521.842 212.965 521.842 201.902V179.083H572.186V201.902C572.186 212.965 560.902 221.955 547.014 221.955Z" stroke="#2D255E" stroke-width="6" stroke-miterlimit="10" stroke-linecap="round" stroke-linejoin="round"/>
<path d="M580 302H547V409H580V302Z" fill="#D6D6D6"/>
<path d="M571 302H554V409H571V302Z" fill="white"/>
<path d="M580 302H547V409H580V302Z" stroke="#2D255E" stroke-width="6" stroke-miterlimit="10" stroke-linecap="round" stroke-linejoin="round"/>
<path d="M565.082 316H560.918C558.714 316 557 314.54 557 312.663V303H569V312.663C569 314.471 567.204 316 565.082 316Z" fill="#2D255E"/>
<path d="M14 409H620" stroke="#2D255E" stroke-width="8" stroke-miterlimit="10" stroke-linecap="round" stroke-linejoin="round"/>
<path d="M628.202 70.5351C624.111 70.5351 620.368 71.7273 617.496 73.6208C612.447 63.8727 600.523 57 586.51 57C567.971 57 553 69.1325 553 84H611.49H620.107H645C645 76.5662 637.515 70.5351 628.202 70.5351Z" fill="#ECF9FF"/>
<path d="M369 56C368.827 45.71 358.442 37.45 345.721 37.45C341.567 37.45 337.673 38.36 334.298 39.83C330.663 34.86 324.173 31.36 316.731 30.73C314.221 22.47 305.048 16.38 294.058 16.38C291.029 16.38 288.26 16.87 285.577 17.64C277.442 7.07 262.904 0 246.288 0C224.394 0 206.048 12.32 201.202 28.77C197.74 27.51 193.933 26.88 189.952 26.88C174.462 26.88 162 37.03 162 49.49C162 51.73 162.433 53.97 163.212 56H369Z" fill="#ECF9FF"/>
</svg>
