<svg width="273" height="250" viewBox="0 0 273 250" fill="none" xmlns="http://www.w3.org/2000/svg">
<path fill-rule="evenodd" clip-rule="evenodd" d="M136.098 46.8782C200.611 56.7662 245.6 90.3627 245.6 144.003C245.6 208.298 189.709 141.494 151.17 178.98C112.631 216.465 30.523 217.528 26.5953 144.003C22.9186 75.1752 71.5845 36.9902 136.098 46.8782Z" fill="#5B60FD"/>
<path fill-rule="evenodd" clip-rule="evenodd" d="M103.121 150.818L120.186 130.676L120.578 130.959C123.098 132.767 125.097 133.959 126.574 134.534L127.011 134.703C134.106 137.426 138.985 138.351 138.201 138.991L137.23 139.787C130.959 144.952 122.373 152.463 111.471 162.32C109.978 163.788 107.966 164.73 105.793 164.981L103.544 165.226C81.477 167.61 67.3195 167.815 62.1316 166.767C61.0481 166.548 57.7132 167.12 55.1954 169.427C51.4186 172.889 46.0176 181.227 45.1106 181.227C43.792 181.227 45.0345 175.704 48.8381 164.659L49.2401 163.375C51.0121 157.77 52.287 154.456 53.0645 153.432C53.8996 152.334 56.7207 154.274 61.5276 159.253L61.3972 159.9C62.0211 159.239 62.7607 158.537 63.616 157.792L65.8871 157.544C73.9106 156.655 80.0094 155.842 84.1835 155.106L84.623 155.027C89.1454 154.209 95.3113 152.806 103.121 150.818Z" fill="white"/>
<path fill-rule="evenodd" clip-rule="evenodd" d="M209.391 129.951L215.737 134.314C216.954 135.15 217.847 136.322 218.283 137.656L219.485 141.329C220.05 142.44 219.556 143.76 218.363 144.322L216.122 145.839C214.681 146.518 212.924 145.783 212.545 144.343L211.284 140.249C211.284 140.249 205.937 138.767 205.225 132.96L209.391 129.951Z" fill="white"/>
<path fill-rule="evenodd" clip-rule="evenodd" d="M178.808 58.2976C183.144 58.4585 185.322 63.8798 186.74 66.5596C187.223 67.4725 183.827 94.4527 182.717 101.357C180.741 113.652 174.768 117.55 171.019 118.387C171.019 118.387 171.244 132.366 169.673 135.845C166.196 143.548 122.179 138.378 117.878 125.502C114.937 116.7 125.865 115.674 129.967 110.367C137.484 100.641 137.874 91.5891 145.971 85.1135C149.04 82.0451 152.603 78.9652 155.676 75.2618L156.926 73.7609C164.742 64.4182 170.693 58.2195 178.401 58.2882L178.808 58.2976Z" fill="white"/>
<path fill-rule="evenodd" clip-rule="evenodd" d="M157.068 81.6839C156.35 81.9998 155.3 82.0979 154.925 81.456C153.749 79.4409 150.152 79.1639 148.623 80.9707C150.091 80.5105 151.8 80.0713 153.113 80.8272C153.478 81.0375 153.793 81.3324 154.105 81.6242C154.625 82.1103 155.136 82.5878 155.852 82.6519C156.384 82.6995 156.891 82.495 157.396 82.2916C157.937 82.0732 158.476 81.8559 159.04 81.9527C159.666 82.0602 160.105 82.5149 160.545 82.9698C160.983 83.4232 161.421 83.8768 162.045 83.9867C162.556 84.0767 163.069 83.9095 163.577 83.7439C164.145 83.5587 164.708 83.3755 165.255 83.5553C165.908 83.77 166.206 84.3839 166.505 84.9984C166.802 85.6096 167.099 86.2213 167.746 86.4414C168.129 86.5718 168.543 86.5245 168.952 86.4518L169.357 86.3763C170.312 86.2029 171.344 86.1873 172.217 86.5796C172.968 86.9166 173.559 87.6144 173.608 88.3591C173.627 88.1984 173.645 88.038 173.66 87.878L173.811 86.9712C172.945 86.0437 171.583 85.5187 170.25 85.5995C170.021 85.6133 169.793 85.6438 169.565 85.6742C169.126 85.7328 168.687 85.7912 168.251 85.7307C167.589 85.6387 166.916 85.1245 167.028 84.5221L167.038 84.4571C167.159 83.4483 165.677 82.8697 164.539 82.9546C164.297 82.9727 164.049 83.002 163.8 83.0316C162.85 83.1441 161.879 83.2592 161.133 82.7612C160.845 82.5688 160.623 82.2993 160.402 82.0325C160.094 81.6592 159.79 81.291 159.316 81.1458C158.793 80.9854 158.261 81.1536 157.745 81.3771L157.573 81.4533L157.068 81.6839ZM148.809 88.6997C149.304 89.3049 150.321 88.9659 151.106 88.7042L151.147 88.6906C153.253 87.9895 155.791 88.5366 157.33 90.0235C158.174 90.8388 159.423 90.6109 160.716 90.375C161.796 90.1779 162.907 89.9752 163.838 90.3705C164.273 90.5553 164.677 90.868 165.074 91.1743C165.799 91.7356 166.498 92.2758 167.311 91.97C168.854 91.3901 170.747 91.6994 171.986 92.7143L171.981 93.034L171.976 93.7394C170.745 92.6141 168.751 92.2497 167.14 92.8555C166.326 93.1613 165.628 92.6211 164.902 92.0598C164.506 91.7534 164.102 91.4408 163.667 91.256C162.736 90.8607 161.625 91.0634 160.545 91.2605C159.252 91.4964 158.003 91.7243 157.159 90.909C155.651 89.4518 153.183 88.8972 151.103 89.5355L150.688 89.6713C149.947 89.9109 149.082 90.1285 148.638 89.5852C147.239 87.8712 144.428 87.2704 142.34 88.2386L142.61 87.3087L142.733 87.257C144.795 86.4284 147.459 87.0459 148.809 88.6997ZM144.014 96.3429C143.24 96.6319 142.237 97.0063 141.718 96.4188C140.772 95.3486 138.611 95.2706 135.234 96.1847C135.492 96.3446 136.158 96.3288 136.979 96.3093C138.526 96.2727 140.624 96.2229 141.584 97.3097C142.051 97.837 142.906 97.5892 143.636 97.3239L144.045 97.1737C146.097 96.463 148.586 96.9308 150.155 98.334C151.033 99.1191 152.271 98.8477 153.553 98.5667C154.624 98.3319 155.725 98.0905 156.672 98.4529C157.115 98.6223 157.532 98.9205 157.941 99.2127C158.69 99.7482 159.41 100.264 160.21 99.9295L160.321 99.8849C161.228 99.5358 162.969 100.124 164.548 100.657C165.696 101.045 166.758 101.404 167.35 101.352C163.691 99.3873 161.355 98.6163 160.344 99.0387L160.263 99.0695C159.495 99.3381 158.798 98.8394 158.074 98.3219C157.666 98.0297 157.249 97.7315 156.806 97.562C155.859 97.1997 154.757 97.4411 153.686 97.6759C152.405 97.9569 151.166 98.2283 150.289 97.4432C148.688 96.0113 146.129 95.5535 144.054 96.3278L144.014 96.3429ZM151.187 128.772C152.115 129.316 153.318 130.02 154.176 129.634C155.693 128.951 158.426 129.557 162.376 131.45L162.756 131.635C162.369 131.7 161.5 131.456 160.428 131.155C158.409 130.589 155.672 129.821 154.083 130.536C153.312 130.883 152.264 130.351 151.386 129.845L150.895 129.56C148.577 128.262 145.446 127.824 143.019 128.436C142.241 128.732 141.158 128.386 139.967 128.006C139.157 127.747 138.298 127.473 137.451 127.374C136.408 127.252 135.87 127.325 135.398 127.389C134.925 127.454 134.518 127.509 133.732 127.349C133.124 127.225 132.153 126.838 130.819 126.187C128.453 125.151 124.262 125.276 122.056 125.996L121.936 126.034C119.578 126.745 119.598 125.966 121.969 125.154L122.149 125.094L122.291 125.049C124.811 124.284 129.479 124.367 131.922 125.797L131.97 125.825C132.899 126.369 134.101 127.073 134.96 126.686L135.023 126.661C135.624 126.435 137.029 126.439 137.465 126.465L137.545 126.472C139.012 126.62 139.331 126.741 139.679 126.973L139.929 127.146L140.071 127.196C140.601 127.384 141.164 127.607 141.758 127.864C142.004 127.844 142.287 127.785 142.621 127.676L142.763 127.631C145.283 126.866 148.696 127.314 151.139 128.744L151.187 128.772ZM140.267 103.086C140.816 103.673 141.877 103.299 142.696 103.01L142.738 102.994C144.934 102.22 147.641 102.678 149.334 104.11C150.263 104.895 151.572 104.624 152.929 104.343C154.062 104.108 155.227 103.866 156.229 104.229C156.697 104.398 157.139 104.696 157.571 104.989C158.336 105.506 159.074 106.005 159.887 105.736L159.972 105.705C161.042 105.283 163.512 106.054 167.383 108.018C166.758 108.071 165.634 107.712 164.419 107.324C162.749 106.791 160.907 106.202 159.948 106.552L159.83 106.596C158.984 106.93 158.221 106.415 157.429 105.879L157.429 105.879C156.997 105.587 156.556 105.289 156.087 105.12C155.085 104.757 153.92 104.999 152.787 105.233C151.431 105.514 150.121 105.786 149.193 105.001C147.533 103.597 144.9 103.13 142.729 103.84L142.296 103.991C141.524 104.256 140.619 104.504 140.126 103.976C139.109 102.89 136.89 102.939 135.254 102.976C134.385 102.995 133.68 103.011 133.407 102.851C136.98 101.937 139.266 102.015 140.267 103.086ZM139.71 110.343C138.768 110.632 137.548 111.006 136.916 110.419C135.764 109.349 133.134 109.271 129.023 110.185C129.338 110.345 130.148 110.329 131.148 110.309C133.031 110.273 135.584 110.223 136.753 111.31C137.32 111.837 138.362 111.589 139.25 111.324L139.748 111.174C142.246 110.463 145.276 110.931 147.185 112.334C148.253 113.119 149.76 112.848 151.32 112.567C152.624 112.332 153.965 112.09 155.118 112.453C155.657 112.622 156.164 112.921 156.662 113.213C157.573 113.748 158.45 114.264 159.424 113.929L159.559 113.885C160.663 113.536 162.782 114.124 164.704 114.657C166.101 115.045 167.394 115.404 168.114 115.352C163.66 113.387 160.818 112.616 159.587 113.039L159.489 113.07C158.554 113.338 157.705 112.839 156.824 112.322L156.824 112.322C156.327 112.03 155.819 111.731 155.28 111.562C154.128 111.2 152.787 111.441 151.483 111.676C149.923 111.957 148.416 112.228 147.348 111.443C145.399 110.011 142.285 109.553 139.759 110.328L139.71 110.343ZM132.395 116.085C133.104 116.673 134.472 116.299 135.528 116.01L135.583 115.994C138.416 115.22 141.909 115.678 144.094 117.11C145.292 117.895 146.982 117.624 148.732 117.343C150.194 117.108 151.698 116.866 152.99 117.229C153.595 117.398 154.164 117.696 154.722 117.989L154.722 117.989C155.71 118.506 156.662 119.005 157.71 118.736L157.82 118.705C159.2 118.283 162.388 119.054 167.383 121.018C166.576 121.071 165.126 120.712 163.559 120.324L163.558 120.324C161.404 119.791 159.027 119.202 157.789 119.552L157.637 119.596C156.545 119.93 155.562 119.415 154.539 118.879C153.982 118.587 153.412 118.289 152.808 118.12C151.515 117.757 150.011 117.999 148.549 118.233C146.8 118.514 145.109 118.786 143.911 118.001C141.77 116.597 138.373 116.13 135.571 116.84L135.013 116.991C134.016 117.256 132.848 117.504 132.212 116.976C130.901 115.89 128.037 115.939 125.926 115.976C124.805 115.995 123.896 116.011 123.543 115.851C128.153 114.937 131.103 115.015 132.395 116.085ZM132.24 121.01C131.184 121.299 129.816 121.673 129.107 121.086C127.815 120.015 124.865 119.937 120.255 120.851C120.608 121.011 121.517 120.995 122.638 120.976C124.749 120.939 127.613 120.89 128.924 121.976C129.56 122.504 130.728 122.256 131.725 121.991L132.283 121.84C134.904 121.176 138.046 121.542 140.194 122.741C140.852 123.221 141.998 123.16 143.257 123.094H143.257H143.257C144.114 123.05 145.023 123.002 145.867 123.12C146.907 123.265 147.401 123.47 147.835 123.651C148.271 123.832 148.646 123.988 149.45 124.031C150.382 124.082 152.601 123.647 152.601 123.647C155.188 123.245 159.179 124.42 161.082 125.667L161.185 125.733C163.288 127.042 163.463 126.218 161.265 124.777L161.142 124.698C158.95 123.328 154.438 122.235 151.658 122.994L151.603 123.01C150.547 123.299 149.178 123.673 148.469 123.085C147.975 122.676 146.36 122.277 146.049 122.229C144.404 121.973 144.18 122.053 143.681 122.232L143.681 122.232L143.68 122.232C143.64 122.247 143.598 122.262 143.554 122.277L143.402 122.289C142.835 122.337 142.228 122.41 141.578 122.508C141.348 122.427 141.094 122.299 140.806 122.11L140.683 122.031C138.492 120.661 135.075 120.235 132.295 120.994L132.24 121.01Z" fill="#FFB61D"/>
<path fill-rule="evenodd" clip-rule="evenodd" d="M177.409 62.3562C183.573 62.3756 188.437 67.1466 188.022 72.7633C188.022 72.7633 180.834 101.293 184.477 111.434C185.887 115.357 206.235 127.565 205.374 128.819L202.503 135.096C201.483 136.582 170.251 117.52 170.251 117.52C167.255 115.35 166.698 72.2024 166.698 72.2024C166.639 66.7683 171.458 62.3371 177.409 62.3562Z" fill="white"/>
<path d="M209.76 129.951L206.09 136.847L206.017 137.031C205.711 137.746 204.544 138.183 204.394 138.218L204.372 138.218L202.204 137.048C201.956 136.858 201.82 135.79 202.083 134.797L202.144 134.588C202.144 134.588 203.863 129.081 205.286 127.69C206.116 126.879 210.91 127.69 209.76 129.951Z" fill="white"/>
<path fill-rule="evenodd" clip-rule="evenodd" d="M157.474 193.544H148.711C148.711 193.544 158.995 169.183 158.995 162.791C158.995 160.808 150.911 163.795 152.084 160.808C153.697 156.701 159.276 149.355 157.902 145.668C156.465 141.812 151.104 140.414 146.435 138.852C145.541 138.552 161.86 139.586 166.336 136.338C172.24 132.052 167.446 122.588 169.032 125.925C170.945 129.951 183.376 140.051 180.912 150.988C178.512 161.643 157.474 193.544 157.474 193.544Z" fill="white"/>
<path fill-rule="evenodd" clip-rule="evenodd" d="M154.436 198.241L153.664 198.007C153.578 197.981 153.568 197.862 153.649 197.822L154.388 197.456V196.582C154.388 196.498 154.485 196.451 154.55 196.504L155.185 197.012L156.214 196.518C156.304 196.475 156.394 196.575 156.343 196.66L155.764 197.623L156.89 198.696C156.965 198.768 156.896 198.892 156.796 198.866L155.232 198.454L154.621 199.436C154.568 199.521 154.436 199.484 154.436 199.383V198.987V198.241Z" fill="#FFB61D"/>
<path fill-rule="evenodd" clip-rule="evenodd" d="M131.089 145.57L131.089 145.57C130.377 146.26 129.665 146.951 128.923 147.613C127.533 148.852 126.131 150.085 124.656 151.238C122.828 152.668 120.954 154.054 119.037 155.384C116.868 156.89 114.648 158.335 112.417 159.763C112.299 159.839 112.182 159.914 112.065 159.99L112.065 159.99L112.065 159.99L112.064 159.99L112.062 159.992C110.924 160.728 109.787 161.464 108.325 161.692C107.908 161.757 107.517 161.948 107.124 162.14C106.811 162.293 106.497 162.447 106.166 162.538C103.886 163.169 101.594 163.77 99.2879 164.314C97.872 164.649 96.4263 164.888 94.984 165.117C94.0863 165.26 88.9447 166.005 85.5242 166.458C82.1037 166.911 70.7913 166.911 67.967 166.857C66.3822 166.827 64.7977 166.777 63.2136 166.722L63.1318 166.719C62.809 166.709 62.466 166.698 62.1855 166.582C60.6297 165.938 59.4259 166.639 58.206 167.349L58.1182 167.4C56.5166 168.331 55.5364 169.731 54.5678 171.165C54.0532 171.927 53.508 172.672 52.9628 173.417L52.9625 173.417C52.3759 174.219 51.7892 175.02 51.2408 175.843C50.5148 176.932 49.8673 178.066 49.2205 179.198L49.2204 179.199L49.2172 179.204C49.1019 179.406 48.9866 179.608 48.8709 179.81C48.0157 181.299 46.7328 182.166 44.8922 182.486C43.9773 182.646 43.1936 182.398 42.4118 182.15L42.4116 182.15C42.1219 182.059 41.8326 181.967 41.5369 181.897C40.958 181.758 40.4913 180.331 40.6977 179.766C41.3004 178.118 41.9042 176.469 42.5081 174.821L42.5081 174.821L42.5082 174.821C43.7702 171.376 45.0321 167.932 46.2831 164.484C47.1568 162.076 48.0099 159.661 48.863 157.247L48.8643 157.243L48.8656 157.239C49.1055 156.56 49.3455 155.881 49.5858 155.202C49.7008 154.878 49.8099 154.551 49.9191 154.225C50.1001 153.684 50.2811 153.143 50.4882 152.61C50.5561 152.436 50.837 152.22 51.0279 152.213C52.408 152.163 53.733 152.471 54.9919 152.943C57.3719 153.834 59.2034 155.337 60.5477 157.338C60.9042 157.868 61.5264 158.059 62.3111 157.933C62.6891 157.872 63.0706 157.826 63.4519 157.78H63.4521L63.4523 157.78L63.4525 157.78L63.4527 157.78L63.453 157.78L63.4532 157.78L63.4535 157.78C64.0368 157.71 64.6197 157.639 65.1892 157.516C66.4558 157.242 67.738 157.232 69.0197 157.223C69.845 157.217 70.6701 157.211 71.4908 157.134C72.0535 157.082 72.6191 157.052 73.1846 157.022L73.1852 157.022L73.1858 157.022L73.1865 157.022L73.1871 157.022L73.1877 157.022L73.1884 157.022L73.189 157.022C73.946 156.981 74.7027 156.941 75.4517 156.847C76.8146 156.676 78.1708 156.461 79.527 156.245L79.5325 156.244C80.1734 156.142 80.8144 156.04 81.4561 155.943C81.9761 155.864 82.497 155.79 83.0179 155.716L83.0183 155.716L83.0187 155.716L83.0191 155.716L83.0194 155.715L83.0198 155.715L83.0202 155.715L83.0208 155.715L83.023 155.715C84.0284 155.571 85.0337 155.428 86.0325 155.253C87.311 155.029 88.5795 154.756 89.8473 154.483L90.3053 154.384C91.6458 154.097 92.9838 153.799 94.3218 153.502C94.884 153.378 95.4461 153.253 96.0084 153.129C96.0685 153.115 96.1284 153.101 96.1883 153.087L96.2724 153.068C96.242 153.053 96.2113 153.038 96.1806 153.024C96.1142 152.992 96.0477 152.961 95.9843 152.925C95.7897 152.816 95.5893 152.712 95.3889 152.609L95.3885 152.609C94.9306 152.372 94.4726 152.135 94.0828 151.827C93.2066 151.133 93.5061 149.981 94.6199 149.674C95.469 149.44 96.344 149.205 97.2208 149.151C98.4019 149.079 99.4778 148.721 100.555 148.363C100.988 148.219 101.421 148.075 101.861 147.949C102.899 147.653 103.522 147.095 104.044 146.242C104.295 145.831 104.663 145.483 105.032 145.133L105.032 145.133C105.292 144.886 105.553 144.639 105.775 144.369C106.923 142.969 108.039 141.546 109.126 140.105C109.357 139.799 109.543 139.464 109.729 139.129C109.87 138.873 110.012 138.617 110.175 138.373C110.556 137.801 110.945 137.222 111.416 136.712L111.477 136.646C112.558 135.477 113.642 134.304 114.817 133.217C115.458 132.624 116.165 132.092 116.872 131.559L116.872 131.559L116.872 131.559L116.872 131.559L116.872 131.559L116.872 131.559L116.872 131.559L116.872 131.559C117.206 131.307 117.54 131.055 117.868 130.797C118.033 130.667 118.192 130.526 118.33 130.372C118.569 130.109 118.667 129.89 118.307 129.579C118.213 129.498 118.119 129.417 118.025 129.336L118.025 129.336C117.085 128.53 116.137 127.717 115.624 126.602L115.56 126.463L115.461 126.251L115.461 126.251L115.461 126.251C115.049 125.363 114.633 124.467 114.399 123.538C114.083 122.287 114.21 121.013 114.619 119.752C115.191 117.988 116.389 116.651 118.011 115.692C119.011 115.1 120.064 114.583 121.117 114.065C121.897 113.681 122.678 113.297 123.438 112.883C124.025 112.563 124.528 112.097 125.018 111.643L125.158 111.513C127.364 109.476 128.902 107.011 130.433 104.556L130.434 104.555C130.597 104.294 130.759 104.034 130.922 103.774C132.403 101.417 133.731 98.9778 135.056 96.5424C135.437 95.8409 135.764 95.1149 136.091 94.3887L136.091 94.3885L136.091 94.3884L136.091 94.3883L136.091 94.3882L136.091 94.3881L136.091 94.388L136.091 94.3879C136.38 93.7463 136.669 93.1046 136.996 92.4796C137.254 91.9854 137.572 91.5179 137.891 91.0501L137.891 91.0499L137.891 91.0496L137.891 91.0494L137.892 91.0491L137.892 91.0489L137.892 91.0486L137.892 91.0484C138.126 90.7052 138.36 90.3619 138.57 90.0076C138.796 89.6269 139.002 89.2356 139.208 88.8446L139.208 88.8444L139.209 88.8442L139.209 88.844L139.209 88.8438L139.209 88.8436L139.209 88.8434L139.209 88.8432L139.209 88.8431C139.522 88.2501 139.834 87.6576 140.215 87.1032C140.486 86.7071 140.88 86.3805 141.273 86.0543L141.273 86.0542C141.438 85.9177 141.603 85.7812 141.758 85.6397C141.952 85.4634 142.149 85.2902 142.346 85.117C142.552 84.9364 142.758 84.7557 142.96 84.5715C143.315 84.2469 143.667 83.9178 144.008 83.5802C144.663 82.9311 145.322 82.2848 145.981 81.6386L145.981 81.6383C147.606 80.0449 149.231 78.4514 150.802 76.8149C152.643 74.8974 154.395 72.9051 156.115 70.8953C156.799 70.0962 157.416 69.2488 158.032 68.4015C158.307 68.0241 158.581 67.6468 158.862 67.2737C158.877 67.2526 158.891 67.2295 158.904 67.2064C158.922 67.1736 158.941 67.1408 158.967 67.1144C159.412 66.6667 159.853 66.2148 160.294 65.7629C161.329 64.7019 162.364 63.6409 163.459 62.6344C165.084 61.141 166.945 59.9027 168.965 58.8714C169.273 58.7141 169.57 58.5356 169.866 58.3573C170.334 58.0763 170.8 57.796 171.307 57.6004C171.385 57.5702 171.464 57.5395 171.543 57.5086L171.669 57.4594C172.637 57.0797 173.652 56.6818 174.652 56.6631C176.761 56.6237 178.954 56.6454 180.724 58.0058C181.06 58.2635 181.149 58.2028 181.181 57.8581C181.211 57.5289 181.272 57.1899 181.334 56.8509L181.334 56.8506L181.334 56.8505C181.476 56.0605 181.619 55.27 181.37 54.6014C181.22 54.1972 181.167 53.7893 181.115 53.3849V53.3847C181.057 52.9273 180.998 52.4744 180.8 52.0364C180.135 50.5722 179.543 49.0806 178.95 47.5897C178.861 47.3655 178.772 47.1413 178.683 46.9172C178.497 46.452 178.346 45.9633 178.278 45.4739C178.228 45.1241 178.212 44.7704 178.195 44.4167C178.179 44.0538 178.162 43.6908 178.109 43.3321C177.923 42.0563 178.408 40.9352 178.895 39.8097C178.984 39.6042 179.073 39.3986 179.157 39.1918C180.192 36.6735 182.129 34.7689 184.221 32.9804C186.023 31.4405 189.006 30.956 191.42 30.5762C192.311 30.436 198.567 30.3018 201.871 30.231C202.949 30.2078 203.713 30.1915 203.873 30.1838C204.525 30.1527 204.966 29.8762 205.407 29.5792C206.318 28.9663 206.552 28.0158 206.782 27.0805V27.0804L206.783 27.0769L206.784 27.0734L206.785 27.07C206.807 26.9813 206.828 26.8927 206.851 26.8046C206.856 26.7824 206.862 26.7606 206.867 26.7393C206.926 26.4941 206.968 26.3222 207.372 26.3346C208.721 26.3759 209.415 27.1798 210.076 28.0983C210.82 29.1327 211.422 30.2113 211.629 31.4442C211.881 32.9454 211.746 34.3399 210.576 35.5761C209.624 36.5816 208.516 37.3501 207.265 37.9949C207.099 38.0805 206.994 38.5338 207.086 38.7275C208.029 40.7119 208.099 42.8039 208.007 44.9041C207.985 45.4139 207.894 45.921 207.804 46.4282C207.718 46.9088 207.632 47.3895 207.604 47.8727C207.524 49.2586 207.835 50.5915 208.444 51.8803C208.857 52.7547 208.567 53.5827 207.874 54.2699C207.755 54.3877 207.607 54.4862 207.461 54.5839C207.254 54.7213 207.05 54.8571 206.934 55.0423C206.67 55.4612 206.487 55.9652 206.444 56.4457C206.412 56.8134 206.455 57.1859 206.498 57.5592C206.525 57.7912 206.552 58.0235 206.561 58.2552C206.595 59.147 206.223 59.9098 205.722 60.6712C204.814 62.0489 203.617 63.0625 201.879 63.3943C200.39 63.6787 198.843 63.6956 197.405 63.2484C195.773 62.7407 194.181 62.0909 192.645 61.3721C192.209 61.1679 191.863 60.8012 191.518 60.4347C191.364 60.2708 191.209 60.1068 191.047 59.9576C190.806 59.7365 190.685 59.6723 190.365 59.9812C189.223 61.0847 188.393 62.3383 187.722 63.7223C187.352 64.4861 187.592 65.1139 187.848 65.7827L187.878 65.8614L187.951 66.0522C188.305 66.9781 188.658 67.8995 188.631 68.9126C188.617 69.4133 188.628 69.9154 188.638 70.4173V70.4179V70.4186V70.4192V70.4198V70.4205V70.4211V70.4217V70.422C188.655 71.2172 188.672 72.0117 188.593 72.7988C188.508 73.6408 188.301 74.4728 188.094 75.3045C188.011 75.6393 187.927 75.974 187.852 76.3092C187.773 76.6605 187.696 77.0122 187.618 77.3638L187.617 77.3705L187.615 77.3777C187.378 78.4555 187.142 79.5333 186.858 80.6008C186.727 81.095 186.547 81.5781 186.367 82.0613C186.22 82.4567 186.072 82.8523 185.952 83.2542C185.812 83.72 185.67 84.1856 185.528 84.6511C184.978 86.4609 184.426 88.2714 183.98 90.1029C183.599 91.6712 183.378 93.2846 183.25 94.8889C183.17 95.892 183.182 96.901 183.194 97.9103C183.201 98.4684 183.207 99.0265 183.199 99.5838C183.192 100.005 183.168 100.426 183.144 100.847L183.144 100.847V100.848V100.848V100.848V100.849V100.849V100.849V100.85C183.113 101.384 183.083 101.919 183.088 102.453C183.09 102.667 183.091 102.881 183.093 103.095V103.095C183.103 104.508 183.114 105.924 183.25 107.329C183.385 108.73 183.677 110.126 184.014 111.501C184.29 112.631 185.139 113.504 185.981 114.322C186.42 114.748 186.906 115.133 187.392 115.518L187.392 115.518L187.393 115.518L187.393 115.519L187.393 115.519L187.394 115.519L187.394 115.519L187.394 115.52C187.734 115.788 188.073 116.057 188.397 116.34C188.619 116.535 188.819 116.751 189.019 116.968C189.267 117.237 189.515 117.505 189.805 117.73C190.751 118.464 191.713 119.181 192.675 119.898L192.675 119.898L192.676 119.899L192.677 119.899L192.677 119.9L192.678 119.9L192.678 119.901L192.679 119.901C193.407 120.444 194.136 120.986 194.857 121.537C195.505 122.031 196.143 122.536 196.782 123.041L196.782 123.041L196.783 123.042C197.428 123.552 198.073 124.062 198.728 124.562C199.624 125.244 200.533 125.918 201.481 126.536C201.928 126.828 202.396 127.092 202.864 127.356L202.864 127.357C203.348 127.63 203.831 127.903 204.292 128.206C204.844 128.57 205.273 128.365 205.699 128.162L205.7 128.161C205.846 128.091 205.993 128.021 206.144 127.975C207.373 127.596 208.345 127.739 208.806 128.817C208.898 129.033 209.039 129.227 209.181 129.423C209.439 129.778 209.7 130.138 209.678 130.64C209.671 130.797 210.042 130.984 210.36 131.145L210.36 131.145L210.361 131.145C210.437 131.183 210.509 131.22 210.573 131.254C211.509 131.758 212.457 132.245 213.405 132.73C213.607 132.834 213.816 132.928 214.025 133.023L214.025 133.023C214.428 133.204 214.829 133.386 215.179 133.63C215.535 133.88 215.858 134.168 216.181 134.456L216.181 134.456L216.181 134.456L216.181 134.456L216.182 134.456L216.182 134.457L216.182 134.457L216.182 134.457L216.182 134.457C216.506 134.746 216.83 135.035 217.186 135.284C217.922 135.798 218.339 136.505 218.753 137.208L218.753 137.208L218.753 137.208L218.753 137.208L218.753 137.208L218.754 137.208L218.754 137.209C218.906 137.466 219.057 137.723 219.224 137.97C219.686 138.653 219.952 139.49 220.106 140.291C220.313 141.369 220.397 142.479 220.392 143.575C220.39 144.033 220.085 144.525 219.806 144.937C219.505 145.382 219.053 145.446 218.618 145.016C218.566 144.964 218.483 144.939 218.414 144.901C218.41 144.928 218.407 144.955 218.404 144.981C218.398 145.04 218.391 145.098 218.382 145.156C218.354 145.34 218.332 145.526 218.31 145.711C218.255 146.169 218.201 146.626 218.06 147.06C217.966 147.35 217.557 147.735 217.273 147.747C217.055 147.756 216.826 147.571 216.599 147.388C216.508 147.315 216.417 147.241 216.327 147.181C216.24 147.122 216.166 147.046 216.093 146.971L216.069 146.947C216.023 146.9 215.983 146.849 215.942 146.797C215.924 146.775 215.906 146.752 215.887 146.73C215.874 146.756 215.86 146.782 215.847 146.809C215.817 146.867 215.788 146.925 215.756 146.982C215.715 147.056 215.679 147.134 215.644 147.213C215.563 147.389 215.483 147.566 215.344 147.686C214.808 148.152 214.088 147.97 213.867 147.317C213.752 146.977 213.657 146.631 213.562 146.286C213.43 145.807 213.297 145.329 213.114 144.867C213.039 144.677 212.976 144.483 212.914 144.289L212.914 144.288C212.731 143.72 212.548 143.151 212.035 142.672C211.666 142.328 211.44 141.852 211.215 141.379L211.215 141.378L211.215 141.378L211.215 141.378L211.215 141.378L211.214 141.377L211.214 141.377C211.127 141.194 211.04 141.01 210.945 140.835C210.369 139.778 209.418 139.086 208.319 138.528C208.02 138.376 207.722 138.209 207.462 138.008C206.886 137.561 206.487 137.805 206.136 138.259C205.557 139.011 204.596 139.288 203.703 138.855C202.335 138.192 201.217 137.32 200.845 135.828C200.776 135.552 200.329 135.308 200.002 135.14C199.016 134.633 198.025 134.135 197.033 133.637C195.389 132.812 193.745 131.986 192.128 131.118C190.111 130.035 188.146 128.87 186.182 127.705L185.59 127.354C182.493 125.52 179.408 123.669 176.323 121.818L176.321 121.816L174.514 120.732C173.837 120.326 173.165 119.914 172.493 119.502C172.024 119.214 171.555 118.926 171.084 118.641C170.896 118.527 170.698 118.424 170.494 118.336C169.885 118.074 169.706 118.168 169.658 118.764C169.657 118.775 169.657 118.785 169.657 118.796L169.657 118.813C169.657 118.819 169.658 118.825 169.657 118.83L169.619 121.308C169.584 123.619 169.548 125.93 169.511 128.24C169.499 128.975 169.921 129.538 170.337 130.094C170.421 130.206 170.505 130.318 170.585 130.431C172.051 132.504 173.548 134.559 175.06 136.604C175.475 137.165 175.904 137.717 176.334 138.269C176.983 139.102 177.631 139.935 178.227 140.798C178.53 141.236 178.71 141.744 178.891 142.252C178.97 142.475 179.049 142.698 179.139 142.915C179.18 143.014 179.223 143.112 179.266 143.211C179.382 143.476 179.498 143.742 179.571 144.017C180.16 146.24 179.895 148.446 179.313 150.627C179.274 150.774 179.235 150.92 179.196 151.066L179.196 151.066C178.834 152.429 178.471 153.798 177.944 155.108C177.521 156.159 176.993 157.175 176.465 158.19C176.211 158.679 175.956 159.169 175.714 159.662C175.29 160.523 174.88 161.39 174.475 162.259C173.789 163.732 173.106 165.207 172.431 166.684C172.187 167.219 171.951 167.756 171.715 168.293L171.714 168.296L171.713 168.298L171.712 168.3C171.238 169.381 170.763 170.461 170.224 171.514C169.448 173.03 168.585 174.51 167.723 175.989C167.599 176.202 167.475 176.414 167.352 176.626C166.813 177.552 166.261 178.472 165.709 179.392C165.175 180.282 164.64 181.172 164.118 182.069C163.642 182.886 163.179 183.709 162.716 184.532L162.716 184.532L162.715 184.532L162.715 184.532L162.715 184.533L162.715 184.533L162.715 184.533L162.715 184.533L162.714 184.534C162.219 185.414 161.724 186.294 161.213 187.167C160.487 188.406 159.726 189.63 158.943 190.84C158.292 191.847 158.48 192.316 159.235 193.244C160.052 194.25 161.322 194.586 162.582 194.848C166.038 195.569 169.501 196.26 172.965 196.95L173.139 196.985C173.488 197.055 173.841 197.107 174.194 197.158L174.194 197.158L174.195 197.158L174.195 197.159L174.195 197.159L174.195 197.159L174.196 197.159L174.196 197.159C174.592 197.217 174.989 197.275 175.379 197.358C177.329 197.775 178.308 199.084 178.83 200.708C179.164 201.748 179.262 202.863 178.355 203.727C178.013 204.053 177.387 204.295 176.889 204.297C170.474 204.317 164.059 204.32 157.644 204.323C153.604 204.325 149.565 204.327 145.525 204.333C145.054 204.334 145.02 204.205 144.985 203.827C144.948 203.443 144.873 203.059 144.799 202.676C144.689 202.114 144.579 201.553 144.593 200.993C144.658 198.302 145.691 195.892 147.499 193.776C147.63 193.623 147.841 193.522 148.05 193.422C148.283 193.311 148.511 193.202 148.621 193.026C149.148 192.175 149.6 191.27 149.946 190.345C150.501 188.862 151.053 187.366 151.409 185.837C151.572 185.134 151.809 184.454 152.045 183.772C152.339 182.925 152.633 182.077 152.789 181.186C152.953 180.245 153.382 179.338 153.808 178.437C153.94 178.157 154.072 177.878 154.196 177.598C154.618 176.646 155.054 175.698 155.489 174.75L155.489 174.75L155.49 174.75L155.49 174.749L155.49 174.749L155.49 174.749L155.49 174.749L155.491 174.747L155.491 174.747L155.491 174.747L155.491 174.746L155.491 174.746L155.491 174.746L155.491 174.746L155.491 174.746C156.169 173.272 156.846 171.799 157.471 170.307C157.917 169.243 158.287 168.153 158.657 167.063C158.868 166.441 159.079 165.818 159.304 165.201C159.78 163.894 160.264 162.588 160.81 161.305C160.933 161.017 160.864 161.012 160.692 160.999C160.669 160.998 160.644 160.996 160.618 160.993C160.608 160.992 160.597 160.991 160.586 160.99C158.282 160.711 156.013 160.735 153.865 161.671C153.394 161.876 153.063 161.833 152.751 161.476C152.433 161.111 152.599 160.846 152.88 160.511C154.559 158.516 155.602 156.244 156.402 153.847C156.486 153.596 156.572 153.345 156.658 153.095C157.178 151.584 157.696 150.078 157.682 148.473C157.671 147.257 157.342 146.166 156.426 145.149C156.225 144.925 156.04 144.691 155.856 144.458C155.306 143.762 154.764 143.075 153.82 142.716C153.343 142.534 152.872 142.338 152.4 142.142L152.4 142.142L152.4 142.142L152.399 142.142L152.399 142.142L152.399 142.142L152.399 142.142L152.398 142.142C151.909 141.938 151.419 141.734 150.923 141.546C150.545 141.404 150.167 141.26 149.79 141.116L149.788 141.115C148.3 140.547 146.811 139.979 145.292 139.488C144.37 139.189 143.415 138.976 142.46 138.762C142.025 138.665 141.591 138.568 141.16 138.463C141.075 138.443 140.992 138.419 140.908 138.394L140.908 138.394C140.841 138.375 140.774 138.355 140.707 138.338C139.725 138.082 138.868 138.126 138.201 138.991C137.909 139.37 137.507 139.678 137.086 140.002L136.995 140.073L136.943 140.112C136.907 140.141 136.87 140.169 136.834 140.197C135.248 141.624 133.733 143.049 132.223 144.479C131.842 144.84 131.466 145.205 131.089 145.569L131.089 145.57L131.089 145.57ZM168.206 120.257C168.255 119.94 168.324 119.625 168.393 119.31C168.477 118.924 168.562 118.538 168.608 118.148L168.62 118.039C168.719 117.204 168.819 116.356 168.754 115.524C168.72 115.094 168.595 114.67 168.469 114.246C168.367 113.903 168.265 113.558 168.211 113.209C167.929 111.373 167.675 109.532 167.48 107.687C167.31 106.083 167.196 104.474 167.083 102.865L167.058 102.515L167.035 102.188C166.921 100.582 166.815 98.9751 166.746 97.3669C166.68 95.8252 166.647 94.2824 166.614 92.7397V92.7392L166.601 92.0902C166.598 91.993 166.635 91.8958 166.671 91.798C166.695 91.7355 166.718 91.6728 166.732 91.6097C166.747 91.5384 166.766 91.4667 166.785 91.3947C166.837 91.1961 166.889 90.9963 166.87 90.8033C166.848 90.5909 166.796 90.3793 166.744 90.1684L166.744 90.1682C166.673 89.8819 166.602 89.5968 166.61 89.3124C166.662 87.4276 166.755 85.5437 166.849 83.66V83.6599V83.6599V83.6598V83.6598V83.6597V83.6596L166.849 83.6585L166.89 82.8243C166.91 82.4194 166.967 82.0145 167.034 81.6134C167.225 80.4806 167.424 79.3488 167.623 78.2171L167.762 77.4237C167.778 77.3317 167.8 77.2404 167.821 77.1491C167.831 77.1068 167.841 77.0644 167.851 77.022C167.857 77.0692 167.864 77.1163 167.871 77.1635C167.887 77.2647 167.903 77.3659 167.905 77.4674C167.951 79.5823 167.994 81.6972 168.036 83.8121L168.053 84.6103C168.067 85.3203 168.082 86.0302 168.097 86.7402V86.7402V86.7403V86.7404V86.7405V86.7405V86.7406V86.7407C168.132 88.4337 168.168 90.1268 168.197 91.8199C168.217 92.9406 168.232 94.0613 168.247 95.1821L168.247 95.1839C168.274 97.2212 168.302 99.2585 168.354 101.295C168.394 102.815 168.5 104.335 168.647 105.85C168.756 106.96 168.914 108.067 169.072 109.174L169.073 109.175C169.123 109.526 169.173 109.877 169.221 110.228C169.289 110.719 169.363 111.21 169.438 111.7C169.567 112.557 169.696 113.414 169.793 114.274C169.916 115.367 170.493 116.252 171.322 116.952C171.928 117.464 172.61 117.9 173.292 118.335L173.293 118.335L173.293 118.335L173.293 118.335L173.293 118.335C173.562 118.507 173.831 118.679 174.096 118.856C174.649 119.225 175.2 119.597 175.75 119.969L175.75 119.969C177.132 120.903 178.513 121.837 179.933 122.72C181.201 123.509 182.507 124.248 183.812 124.987C184.445 125.345 185.077 125.703 185.705 126.067C186.306 126.415 186.904 126.766 187.503 127.117L187.506 127.119L187.508 127.12L187.511 127.122L187.512 127.123C188.58 127.749 189.649 128.376 190.73 128.984L190.934 129.098C192.916 130.212 194.9 131.327 196.929 132.366C197.894 132.86 198.916 133.261 199.937 133.661C200.199 133.763 200.461 133.866 200.721 133.97C200.873 134.031 201.222 133.961 201.294 133.851C201.464 133.59 201.574 133.295 201.684 133.003C201.706 132.944 201.727 132.886 201.75 132.828C202.176 131.717 202.716 130.68 203.637 129.816C204.332 129.163 204.234 128.967 203.269 128.596C203.215 128.575 203.161 128.555 203.107 128.534C202.703 128.38 202.296 128.225 201.93 128.015C201.249 127.623 200.588 127.198 199.952 126.747C199.387 126.347 198.821 125.948 198.255 125.549C196.346 124.205 194.437 122.86 192.581 121.458C190.853 120.152 189.211 118.745 187.603 117.315C187.38 117.117 187.154 116.92 186.929 116.723L186.928 116.722L186.927 116.722L186.926 116.721C185.558 115.528 184.184 114.329 183.316 112.745C183.197 112.528 183.059 112.319 182.922 112.11C182.522 111.503 182.123 110.897 182.182 110.099C182.218 109.612 182.146 109.117 182.075 108.623C182.049 108.444 182.023 108.265 182.003 108.087C181.947 107.605 181.88 107.124 181.813 106.643L181.813 106.642C181.677 105.659 181.541 104.675 181.496 103.688C181.434 102.355 181.448 101.019 181.462 99.6834V99.6826C181.468 99.1074 181.474 98.5321 181.474 97.9572C181.474 97.8221 181.47 97.6867 181.465 97.5512C181.456 97.2555 181.446 96.9599 181.482 96.6688C181.655 95.2518 181.832 93.8339 182.066 92.4245C182.111 92.1491 182.156 91.8733 182.2 91.5974L182.2 91.5971C182.418 90.2473 182.636 88.8948 182.996 87.5762C183.311 86.4264 183.696 85.2932 184.082 84.1598C184.388 83.2632 184.693 82.3665 184.963 81.4612C185.157 80.8099 185.371 80.1633 185.585 79.5165C186.12 77.8978 186.656 76.2786 186.883 74.5853C186.933 74.2163 187.035 73.8487 187.137 73.4824C187.287 72.9434 187.437 72.4073 187.416 71.8736C187.341 69.9455 186.752 68.0876 186.159 66.233C185.274 63.4624 183.739 61.1515 181.082 59.5068C179.549 58.5579 177.943 57.863 176.041 58.0863C175.352 58.1673 174.669 58.2971 173.986 58.4269C173.657 58.4894 173.329 58.5519 173 58.6089C171.131 58.9325 169.477 59.685 167.988 60.7429C167.116 61.3621 166.265 62.0081 165.437 62.6758C164.609 63.3434 163.782 64.0185 163.028 64.7533C162.326 65.4367 161.674 66.1625 161.022 66.8877C160.88 67.0456 160.738 67.2035 160.595 67.3608C159.475 68.5995 158.357 69.8409 157.261 71.0976C156.781 71.6473 156.311 72.2042 155.841 72.7612L155.841 72.7615L155.841 72.7618L155.841 72.7621L155.84 72.7623L155.84 72.7626L155.84 72.7629L155.839 72.7636L155.839 72.7636L155.839 72.7637L155.839 72.7637L155.839 72.7638L155.839 72.7638L155.839 72.7639L155.839 72.7639C155.128 73.6066 154.417 74.4493 153.673 75.2666C152.323 76.7491 150.922 78.1941 149.5 79.6198C147.546 81.5788 145.558 83.5095 143.57 85.4397C143.4 85.6042 143.205 85.7477 143.01 85.891C142.777 86.0629 142.543 86.2344 142.356 86.4413C140.917 88.0266 139.561 89.6802 138.599 91.5478C137.711 93.2699 136.856 95.0058 136.002 96.7418L136.001 96.7424L136.001 96.743L136.001 96.7435L136 96.7441L136 96.7447L136 96.7453L135.999 96.7459C135.232 98.3048 134.464 99.8637 133.673 101.412C132.389 103.925 130.977 106.373 129.272 108.684L129.146 108.853C128.233 110.093 127.319 111.333 126.032 112.236C124.354 113.413 122.608 114.509 120.861 115.604L120.86 115.605C120.405 115.891 119.949 116.176 119.495 116.463C118.022 117.395 116.857 118.57 116.284 120.118C115.58 122.018 115.94 123.906 116.922 125.638C118.132 127.771 120.045 129.4 122 130.953C124.168 132.676 126.688 133.913 129.407 134.707C132.901 135.728 136.416 136.72 140.112 137.009C141.079 137.085 142.042 137.2 143.005 137.316L143.005 137.316C144.079 137.445 145.152 137.574 146.231 137.647C148.615 137.81 151.011 137.9 153.402 137.912C154.477 137.917 155.553 137.849 156.629 137.781C157.312 137.738 157.995 137.694 158.678 137.67C160.536 137.603 162.295 137.158 164.028 136.596C165.193 136.218 166.27 135.698 166.696 134.551C166.944 133.883 167.067 133.168 167.168 132.465L167.195 132.283C167.41 130.799 167.625 129.312 167.747 127.82C167.86 126.447 167.919 125.069 167.98 123.641L167.98 123.64L167.98 123.64L167.98 123.639L167.98 123.639L167.98 123.639C168.003 123.101 168.026 122.555 168.053 122C168.068 121.821 168.08 121.643 168.092 121.464C168.119 121.06 168.146 120.657 168.206 120.257ZM106.426 160.725C106.504 160.789 106.682 160.831 106.769 160.795C107.168 160.629 107.574 160.473 107.979 160.316L107.98 160.316C108.969 159.935 109.959 159.554 110.851 159.033C112.442 158.103 113.995 157.117 115.548 156.132L115.549 156.131L115.55 156.131C116.769 155.358 117.988 154.584 119.226 153.837C121.925 152.208 124.292 150.225 126.659 148.241L126.659 148.24L126.66 148.24L126.66 148.24L126.66 148.24L126.66 148.24L126.66 148.24L126.66 148.24C127.121 147.854 127.582 147.467 128.046 147.083C128.766 146.487 129.443 145.848 130.119 145.209L130.24 145.095L130.431 144.914L130.559 144.794C131.364 144.039 132.161 143.277 132.958 142.515L132.958 142.515L132.958 142.515L132.958 142.515L132.958 142.515L132.958 142.515L132.959 142.515L132.96 142.513C133.306 142.183 133.652 141.852 133.999 141.522C134.248 141.285 134.497 141.048 134.746 140.812L134.747 140.811C135.652 139.953 136.556 139.095 137.433 138.214C137.537 138.109 137.407 137.591 137.289 137.558C136.792 137.421 136.285 137.308 135.779 137.196L135.779 137.196C135.137 137.054 134.496 136.911 133.873 136.718L133.555 136.619C130.979 135.819 128.399 135.017 125.877 134.087C123.568 133.234 121.428 132.064 119.516 130.579C119.486 130.556 119.349 130.586 119.334 130.619C118.782 131.837 117.754 132.666 116.722 133.499C116.487 133.689 116.252 133.879 116.022 134.074C114.939 134.991 113.864 135.931 112.915 136.961C112.302 137.626 111.78 138.362 111.258 139.098L111.258 139.098C111.066 139.369 110.875 139.639 110.679 139.905C110.457 140.207 110.224 140.503 109.99 140.799L109.99 140.799L109.989 140.8L109.989 140.8L109.989 140.8L109.989 140.8L109.989 140.8L109.989 140.801C109.414 141.529 108.839 142.257 108.446 143.06C107.567 144.849 106.206 146.275 104.785 147.665C103.388 149.031 101.484 149.539 99.6038 150.041C99.4289 150.088 99.2542 150.135 99.0802 150.182C98.3894 150.37 97.6788 150.496 96.9678 150.622L96.9677 150.622C96.578 150.691 96.1881 150.76 95.8015 150.839C95.7033 150.86 95.615 150.92 95.5267 150.98C95.5064 150.994 95.4861 151.008 95.4657 151.021C95.445 151.035 95.4242 151.048 95.4031 151.06C95.4485 151.109 95.495 151.173 95.5415 151.237C95.6417 151.375 95.7419 151.512 95.831 151.507C96.7386 151.448 97.4166 151.874 98.0829 152.292C98.2606 152.403 98.4375 152.514 98.6176 152.616C99.4963 153.109 100.359 153.641 100.871 154.559C101.203 155.156 101.649 155.7 102.095 156.243C102.231 156.409 102.368 156.575 102.501 156.743C103.048 157.432 103.62 158.106 104.243 158.839L104.375 158.994C104.53 159.127 104.686 159.259 104.841 159.391C105.367 159.838 105.893 160.286 106.426 160.725ZM152.978 140.749L152.978 140.749C154.144 141.154 155.311 141.559 156.202 142.456C156.472 142.729 156.784 142.967 157.095 143.205L157.095 143.205L157.096 143.205L157.096 143.205L157.096 143.205L157.096 143.205L157.096 143.205L157.096 143.205L157.096 143.205C157.298 143.36 157.501 143.514 157.692 143.679C158.327 144.223 158.546 144.95 158.764 145.674L158.803 145.803L158.828 145.884L158.847 145.947L158.861 145.99C159.46 147.892 159.324 149.86 158.798 151.684L158.696 152.037C157.996 154.475 157.285 156.948 155.797 159.135C155.624 159.389 155.534 159.524 156.008 159.537C157.284 159.57 158.561 159.614 159.837 159.657C161.243 159.705 162.648 159.753 164.055 159.788C164.937 159.809 165.82 159.804 166.702 159.799C167.311 159.795 167.919 159.792 168.528 159.797C170.121 159.811 171.669 159.601 173.118 158.984C173.176 158.959 173.236 158.935 173.296 158.909C173.791 158.703 174.352 158.469 174.576 158.098C175.146 157.153 175.549 156.113 175.917 155.08C176.455 153.57 176.988 152.049 177.363 150.5C177.683 149.178 177.845 147.814 177.946 146.46C177.976 146.052 177.9 145.64 177.824 145.227C177.764 144.898 177.703 144.568 177.695 144.239C177.665 142.951 176.996 141.901 176.327 140.851L176.209 140.667C176.053 140.421 175.854 140.199 175.654 139.977C175.497 139.804 175.341 139.63 175.205 139.445C174.132 137.981 173.063 136.514 171.994 135.046L171.992 135.043L171.989 135.039C171.233 134.002 170.478 132.964 169.72 131.927C169.647 131.828 169.553 131.741 169.459 131.654C169.437 131.634 169.415 131.613 169.393 131.593C169.381 131.581 169.369 131.57 169.357 131.558C169.348 131.549 169.339 131.541 169.331 131.532C169.288 131.59 169.239 131.648 169.19 131.705C169.082 131.83 168.974 131.955 168.942 132.095C168.868 132.419 168.82 132.748 168.771 133.077C168.73 133.356 168.689 133.636 168.632 133.914C168.303 135.521 167.459 136.756 165.799 137.551C163.51 138.646 161.051 139.114 158.537 139.378C157.088 139.53 155.612 139.554 154.152 139.511C153.275 139.485 152.4 139.386 151.525 139.287L151.524 139.287C151.051 139.234 150.577 139.18 150.103 139.138C149.975 139.127 149.842 139.162 149.71 139.197L149.709 139.197C149.648 139.214 149.586 139.23 149.526 139.241C149.563 139.269 149.6 139.297 149.638 139.325C149.731 139.394 149.825 139.464 149.922 139.529C149.943 139.542 149.966 139.552 149.995 139.565C150.04 139.584 150.099 139.61 150.182 139.664C150.293 139.706 150.406 139.745 150.518 139.785L150.518 139.785L150.519 139.785L150.519 139.785L150.519 139.785C150.764 139.871 151.009 139.957 151.238 140.068C151.794 140.338 152.386 140.543 152.978 140.749L152.978 140.749L152.978 140.749L152.978 140.749L152.978 140.749L152.978 140.749L152.978 140.749ZM181.494 37.7232C180.569 38.9576 180.01 40.3653 179.729 41.8451C179.442 43.3488 179.402 44.8694 179.885 46.3372C180.17 47.2038 180.493 48.0603 180.816 48.9167L180.816 48.9176L180.816 48.9178L180.816 48.9179L180.816 48.9181L180.816 48.9182L180.816 48.9183L180.816 48.9185C181.19 49.9091 181.563 50.8996 181.878 51.9055C182.073 52.527 182.513 52.818 183 52.9745C185.298 53.713 187.794 52.8149 189.221 50.8873C189.608 50.3641 189.385 50.1494 188.991 49.7836C188.458 49.2885 187.992 48.7149 187.596 48.1203C187.003 47.2328 187.254 46.328 187.932 45.6112C188.611 44.8939 189.63 44.7345 190.578 45.035C191.662 45.3784 192.442 46.1344 192.998 47.0601C193.024 47.1035 193.042 47.1506 193.061 47.1977L193.066 47.2107L193.077 47.2379C193.081 47.2463 193.084 47.2546 193.088 47.2629C193.094 47.2511 193.1 47.2394 193.107 47.2277C193.121 47.2026 193.134 47.1775 193.144 47.151C193.225 46.9241 193.304 46.6959 193.382 46.4675L193.383 46.467L193.383 46.4665L193.383 46.4658L193.383 46.465L193.384 46.4643L193.384 46.4635L193.384 46.4626C193.799 45.2556 194.216 44.0454 195.055 43.0156C195.709 42.2128 196.413 41.4124 197.244 40.7716C197.865 40.2926 198.631 39.9593 199.383 39.6324L199.384 39.632L199.385 39.6318L199.385 39.6316C199.495 39.584 199.604 39.5366 199.712 39.4889C199.969 39.3758 200.225 39.2603 200.481 39.1448L200.482 39.1446C201.559 38.6593 202.64 38.1721 203.775 37.8478C203.965 37.7934 204.061 37.7665 204.106 37.7541L204.106 37.754L204.13 37.7474C204.137 37.7453 204.14 37.7445 204.14 37.7444L204.139 37.7444L204.134 37.7455C204.074 37.7576 203.69 37.8358 207.439 36.602C212.674 34.8794 209.981 29.453 208.431 28.2593C208.316 28.1704 208.132 28.0749 208.008 28.0994C207.897 28.1214 207.755 28.2988 207.743 28.4172C207.627 29.6034 205.722 31.4442 201.196 31.1584C198.098 30.9628 198.031 30.974 197.882 30.9989C197.814 31.0103 197.729 31.0247 197.321 31.023C196.345 31.0189 192.967 31.3059 192.283 31.4821C192.035 31.5461 191.711 31.608 191.329 31.6808L191.329 31.6808L191.329 31.6809C189.509 32.0278 186.388 32.6229 184.027 34.8794C183.765 35.1694 183.497 35.4548 183.228 35.7401C182.622 36.3835 182.015 37.0269 181.494 37.7232ZM193.872 49.501C193.872 50.1009 193.741 50.6912 193.609 51.2814L193.609 51.2817C193.546 51.5654 193.482 51.849 193.434 52.1337C193.426 52.1786 193.4 52.221 193.375 52.2633C193.363 52.283 193.351 52.3027 193.341 52.3227L193.332 52.2938L193.324 52.2653C193.312 52.2243 193.3 52.1833 193.291 52.1417C193.231 51.8511 193.175 51.5596 193.119 51.2681C192.993 50.6088 192.867 49.9495 192.694 49.3004C192.487 48.5223 192.257 47.7293 191.875 47.0155C191.433 46.1902 189.581 45.8008 188.67 46.2337C188.151 46.4806 187.902 47.0723 188.239 47.5022C188.557 47.9089 188.948 48.3247 189.413 48.5667C190.177 48.9641 190.425 49.6268 190.487 50.2765C190.604 51.4981 189.199 53.2159 187.834 53.5248C186.592 53.8057 185.327 54.0011 184.063 54.1962C183.765 54.2423 183.467 54.2884 183.169 54.3356C183.138 54.3405 183.107 54.3451 183.077 54.3496C182.679 54.4095 182.363 54.4572 182.489 54.989C182.831 56.4327 182.943 57.8871 182.656 59.3555C182.638 59.4447 182.816 59.5846 182.929 59.6729C183.074 59.7856 183.226 59.8918 183.378 59.9979L183.378 59.998C183.657 60.1932 183.936 60.3881 184.167 60.623C184.547 61.0091 184.901 61.4162 185.255 61.8233C185.498 62.1029 185.741 62.3825 185.992 62.6555C186.058 62.7267 186.322 62.7565 186.385 62.7013C186.707 62.4205 187.021 62.1316 187.335 61.8427L187.335 61.8424L187.336 61.8421L187.336 61.8419L187.336 61.8416C187.704 61.5029 188.072 61.1642 188.453 60.8385C189.374 60.0513 190.319 59.2859 191.274 58.5338C191.398 58.4364 191.569 58.3886 191.739 58.3409L191.74 58.3408C191.818 58.3188 191.897 58.2968 191.971 58.27C191.94 58.335 191.91 58.4005 191.879 58.4659C191.797 58.645 191.714 58.8241 191.616 58.996C191.599 59.026 191.549 59.0381 191.498 59.0509C191.453 59.0619 191.407 59.0733 191.377 59.0969L191.356 59.1135L191.333 59.1318L191.331 59.133L191.33 59.1338C191.146 59.2771 191.011 59.3824 191.42 59.5602C191.852 59.7482 192.253 59.9974 192.653 60.2465C192.82 60.3506 192.988 60.4547 193.158 60.5544C195.772 62.0892 198.588 62.81 201.706 62.3436C203.469 62.0798 204.679 61.2238 205.217 59.6405C205.732 58.1237 205.518 57.6825 203.929 57.0729C203.875 57.0522 203.821 57.0316 203.767 57.0111C202.929 56.6932 202.097 56.3774 201.878 55.4406C201.786 55.0501 202.363 54.7545 202.703 54.966C202.725 54.9797 202.74 54.9938 202.743 55.0081C202.913 55.7146 203.5 55.9586 204.12 56.2131C205.26 56.6813 205.399 56.6158 205.399 55.5483C205.399 54.1508 205.399 54.1508 206.742 53.7154C207.52 53.4632 207.646 53.2166 207.292 52.5268C206.758 51.4852 206.409 50.4241 206.557 49.2463C206.739 47.795 206.891 46.3389 206.991 44.8812C207.056 43.9444 207.117 42.9858 206.97 42.0649C206.876 41.4752 206.645 40.9036 206.415 40.3322C206.315 40.0864 206.216 39.8406 206.128 39.5934C205.92 39.0126 205.42 38.7793 204.767 38.994C204.359 39.1282 203.949 39.2576 203.538 39.387C202.395 39.7473 201.251 40.1078 200.162 40.5726C199.014 41.0619 197.853 41.6689 196.96 42.4686C196.159 43.1872 193.872 46.8068 193.872 49.501ZM101.097 162.301L101.098 162.301L101.103 162.3C102.154 162.088 103.206 161.875 104.255 161.654C104.406 161.623 104.547 161.551 104.688 161.48C104.754 161.447 104.819 161.414 104.885 161.385L104.844 161.363L104.818 161.349C104.784 161.332 104.75 161.315 104.717 161.297L104.716 161.297L104.716 161.297C104.584 161.23 104.453 161.163 104.332 161.082C104.199 160.992 104.086 160.875 103.975 160.761L103.969 160.755C103.655 160.43 103.336 160.108 103.017 159.786L103.016 159.786L103.015 159.785C102.237 158.999 101.458 158.214 100.747 157.381C100.044 156.556 99.4851 155.622 98.9337 154.701L98.9336 154.7L98.9199 154.677C98.6482 154.223 98.3397 154.031 97.8171 154.198C95.595 154.906 93.2944 155.292 90.9939 155.679C89.7938 155.881 88.5937 156.082 87.4048 156.33C85.4562 156.735 75.6466 158.274 74.7924 158.33C74.3764 158.357 73.9604 158.396 73.5445 158.434C72.7361 158.509 71.9279 158.584 71.1205 158.576C69.0572 158.555 67.0346 158.758 65.0138 159.116C64.3766 159.228 63.7304 159.3 63.0843 159.371C62.3465 159.453 61.609 159.535 60.8856 159.678C58.5564 160.138 57.776 161.952 58.3761 163.725C58.4913 164.066 58.903 164.45 59.2725 164.569C60.9574 165.113 62.7212 165.254 64.5041 165.267C65.4225 165.274 66.3406 165.312 67.2586 165.351C67.6089 165.366 67.9592 165.381 68.3095 165.394C69.626 165.443 70.9424 165.493 72.2588 165.543C73.2848 165.582 74.3107 165.621 75.3367 165.659C75.4094 165.662 75.4824 165.661 75.5553 165.66C75.6283 165.659 75.7014 165.658 75.7742 165.661C76.134 165.674 76.4944 165.697 76.8547 165.719C77.6431 165.768 78.4314 165.817 79.2135 165.773C80.4404 165.704 81.6629 165.572 82.8856 165.439L82.8892 165.439C83.4558 165.378 84.0225 165.316 84.5896 165.261C84.937 165.228 85.2854 165.2 85.6337 165.173L85.6341 165.173L85.6345 165.173L85.6349 165.173L85.6353 165.172L85.6357 165.172L85.6361 165.172L85.6365 165.172C86.27 165.122 86.9033 165.072 87.5306 164.985L87.8465 164.942H87.8467C89.4494 164.72 91.0551 164.497 92.6363 164.179C93.8644 163.932 95.0839 163.649 96.3301 163.36L96.3315 163.36L96.3332 163.359L96.3351 163.359L96.3377 163.358L96.3407 163.358L96.3443 163.357C97.2519 163.146 98.1736 162.933 99.1231 162.727L99.162 162.717L99.2128 162.704L99.2853 162.684L99.2886 162.684C99.4075 162.652 99.5263 162.62 99.647 162.595C100.13 162.497 100.614 162.399 101.097 162.301ZM155.236 193.421C155.991 192.432 156.705 191.415 157.397 190.389C158.027 189.455 158.615 188.498 159.203 187.542C159.729 186.687 160.276 185.842 160.822 184.997L160.822 184.997L160.822 184.996L160.822 184.996L160.822 184.996L160.823 184.996L160.823 184.995L160.823 184.995C162.091 183.033 163.36 181.071 164.378 178.977C164.964 177.771 165.644 176.603 166.323 175.435C166.647 174.878 166.971 174.32 167.285 173.759C167.433 173.495 167.583 173.232 167.734 172.969L167.734 172.968C168.148 172.246 168.561 171.524 168.916 170.779C169.184 170.216 169.419 169.638 169.654 169.061L169.654 169.06C170.016 168.172 170.377 167.285 170.856 166.455C171.627 165.12 172.138 163.71 172.65 162.299C172.816 161.841 172.982 161.383 173.157 160.927C173.184 160.857 173.202 160.783 173.219 160.709L173.219 160.709L173.23 160.664C173.234 160.645 173.239 160.625 173.244 160.606C173.203 160.613 173.161 160.62 173.119 160.626C173.029 160.64 172.938 160.655 172.85 160.678C172.674 160.726 172.5 160.784 172.325 160.842C171.962 160.962 171.6 161.083 171.23 161.109C169.846 161.209 168.453 161.251 167.064 161.251C166.205 161.251 165.346 161.22 164.488 161.189H164.487H164.487H164.487H164.487H164.486H164.486H164.486C163.932 161.169 163.378 161.149 162.823 161.137C162.72 161.135 162.559 161.253 162.518 161.349L162.365 161.7L162.365 161.701L162.365 161.701L162.365 161.701L162.365 161.701L162.365 161.701L162.365 161.702L162.364 161.702C162.018 162.5 161.671 163.299 161.368 164.111C160.613 166.135 159.88 168.167 159.156 170.202C158.238 172.785 157.107 175.277 155.861 177.75C154.706 180.044 153.844 182.485 153.298 184.998C153.042 186.171 152.665 187.323 152.287 188.474C152.196 188.751 152.105 189.029 152.016 189.306C151.736 190.176 151.428 191.039 151.119 191.901L151.119 191.902C151.007 192.213 150.896 192.525 150.786 192.837C150.533 193.551 150.755 194.219 151.371 194.306C152.057 194.402 152.766 194.367 153.537 194.323C154.238 194.234 154.84 193.94 155.236 193.421ZM54.3968 168.853C55.1583 167.71 55.9428 166.675 57.4909 166.367C58.0656 166.252 58.0974 165.979 57.7165 165.54C57.6329 165.443 57.5447 165.347 57.456 165.251C57.1377 164.905 56.8134 164.552 56.6761 164.151C56.5276 163.718 56.5566 163.228 56.585 162.747C56.5923 162.623 56.5996 162.5 56.6039 162.378C56.6543 160.924 57.1043 159.683 58.6821 158.977C59.1502 158.767 59.4313 158.452 58.9617 157.834C57.9036 156.441 56.5012 155.455 54.9551 154.601C54.3491 154.267 53.791 154.466 53.5501 155.05C53.4458 155.303 53.3402 155.556 53.2346 155.809L53.2344 155.809L53.2343 155.809L53.2341 155.81L53.234 155.81L53.2338 155.811L53.2337 155.811L53.2335 155.811L53.2335 155.811C52.8986 156.613 52.5637 157.415 52.2668 158.229C51.9407 159.122 51.6305 160.02 51.3202 160.918C50.9928 161.866 50.6654 162.814 50.3194 163.757C50.0335 164.535 49.782 165.322 49.5303 166.109C49.0756 167.531 48.6206 168.955 47.9629 170.328C46.4485 173.491 45.2245 176.761 44.6452 180.198C44.6146 180.38 44.6573 180.691 44.7751 180.746C44.9543 180.829 45.2604 180.799 45.4564 180.711C45.7832 180.566 46.1264 180.384 46.3552 180.134C47.0734 179.352 47.7414 178.531 48.4289 177.592C48.9981 176.761 49.5696 175.931 50.141 175.101L50.1412 175.101L50.1413 175.101C51.571 173.024 53.0008 170.948 54.3968 168.853ZM161.435 195.754L161.315 195.727L161.181 195.697C159.913 195.416 158.653 195.136 157.918 193.94C157.571 193.376 157.268 193.419 156.918 194.039C156.614 194.576 156.239 195.048 155.64 195.328C155.321 195.477 154.984 195.597 154.645 195.707C152.966 196.25 151.332 196.318 149.86 195.22C149.142 194.685 148.908 194.734 148.348 195.4C147.442 196.478 146.978 197.735 146.516 198.986L146.476 199.093C145.978 200.44 146.248 200.722 147.818 200.722H175.97C176.029 200.722 176.09 200.726 176.152 200.731C176.293 200.742 176.434 200.753 176.546 200.706C176.69 200.645 176.883 200.358 176.859 200.333C176.756 200.23 176.655 200.121 176.554 200.012L176.553 200.011L176.553 200.011L176.553 200.011L176.553 200.011C176.243 199.675 175.929 199.335 175.531 199.151C174.737 198.783 173.847 198.566 172.975 198.364C169.759 197.621 166.533 196.911 163.166 196.189C163.041 196.157 162.916 196.125 162.792 196.092L162.675 196.062C162.316 195.968 161.957 195.875 161.596 195.791L161.537 195.777L161.435 195.754ZM216.651 146.435C216.684 146.548 216.831 146.632 216.979 146.717C217.047 146.755 217.115 146.794 217.172 146.836C217.209 146.788 217.255 146.741 217.301 146.693C217.401 146.591 217.502 146.488 217.508 146.381C217.51 146.337 217.512 146.294 217.515 146.251L217.52 146.183C217.525 146.107 217.53 146.031 217.536 145.954L217.536 145.949C217.577 145.387 217.619 144.82 217.497 144.286C217.259 143.242 216.886 142.216 216.461 141.22C216.355 140.972 216.482 140.853 216.6 140.742C216.687 140.661 216.769 140.584 216.756 140.464C216.832 140.509 216.914 140.549 216.995 140.59C217.181 140.684 217.368 140.777 217.491 140.917C217.599 141.04 217.649 141.204 217.699 141.37C217.729 141.468 217.759 141.568 217.801 141.659C217.86 141.786 217.919 141.912 217.978 142.039L217.981 142.045C218.271 142.672 218.561 143.3 218.897 143.906C218.957 144.014 219.136 144.067 219.316 144.119C219.398 144.143 219.481 144.167 219.552 144.197C219.582 144.135 219.62 144.074 219.659 144.013C219.743 143.879 219.827 143.745 219.826 143.612C219.819 143.008 219.767 142.403 219.688 141.803C219.685 141.776 219.681 141.749 219.678 141.723C219.674 141.691 219.671 141.66 219.667 141.628L219.654 141.517C219.604 141.084 219.554 140.643 219.371 140.26C218.814 139.094 218.223 137.931 217.513 136.839C217.063 136.147 216.452 135.501 215.774 134.988C215.171 134.534 214.478 134.177 213.787 133.822C213.602 133.727 213.418 133.632 213.235 133.536C212.121 132.946 210.991 132.38 209.859 131.819C209.847 131.813 209.835 131.807 209.822 131.8C209.689 131.731 209.533 131.65 209.394 131.928C209.132 132.45 208.854 132.966 208.576 133.482C208.142 134.288 207.708 135.093 207.336 135.921C207.328 135.939 207.32 135.957 207.311 135.977C207.165 136.293 206.907 136.852 207.697 137.161C208.545 137.492 209.378 137.969 210.047 138.547C212.014 140.247 212.901 142.52 213.782 144.777L213.851 144.953C214.021 145.388 214.143 145.838 214.264 146.288L214.264 146.289L214.264 146.289L214.265 146.29C214.322 146.503 214.38 146.716 214.442 146.928C214.465 147.005 214.492 147.081 214.519 147.157L214.519 147.157L214.535 147.203C214.542 147.223 214.55 147.243 214.556 147.263C214.571 147.253 214.587 147.244 214.603 147.234C214.617 147.226 214.631 147.218 214.646 147.211C214.662 147.202 214.678 147.194 214.694 147.185C214.797 147.131 214.901 147.077 214.937 146.998C215.309 146.184 215.421 145.365 215.144 144.48C214.924 143.777 214.844 143.033 214.766 142.3L214.759 142.233C214.75 142.143 214.886 142.041 215.023 141.938C215.086 141.891 215.15 141.843 215.198 141.797C215.231 141.837 215.27 141.875 215.308 141.913C215.391 141.996 215.474 142.079 215.503 142.176C215.566 142.382 215.624 142.589 215.683 142.799L215.683 142.799L215.683 142.799C215.791 143.182 215.902 143.576 216.048 143.997C216.099 144.21 216.148 144.423 216.198 144.636L216.198 144.637C216.337 145.239 216.476 145.841 216.651 146.435ZM208.034 132.165L208.034 132.165C208.337 131.629 208.641 131.093 208.658 130.419C208.673 129.801 208.55 129.47 208.004 129.166C207.426 128.844 206.768 128.65 206.253 129.02C205.084 129.862 204.005 130.839 203.38 132.09C202.986 132.878 202.703 133.713 202.419 134.546L202.419 134.547L202.419 134.548L202.418 134.549L202.418 134.55C202.321 134.835 202.224 135.119 202.123 135.402C202.065 135.564 202.093 135.765 202.131 135.939C202.357 136.98 203.208 137.495 204.155 137.931C204.655 138.161 205.025 138.047 205.249 137.596C205.402 137.289 205.554 136.98 205.706 136.669L205.707 136.668C206.025 136.018 206.35 135.356 206.712 134.665C206.812 134.478 206.915 134.292 207.018 134.106C207.25 133.687 207.482 133.269 207.679 132.837C207.784 132.607 207.909 132.386 208.034 132.165ZM43.0422 179.833C43.5641 178.699 44.0598 177.55 44.4778 176.381C44.7574 175.599 45.0039 174.808 45.2505 174.016L45.2505 174.016C45.4737 173.299 45.697 172.582 45.9448 171.872C46.3338 170.758 46.7417 169.65 47.1497 168.541L47.1498 168.541C47.5311 167.505 47.9123 166.469 48.2781 165.429C48.9629 163.481 49.6309 161.528 50.2988 159.575L50.2989 159.574C50.599 158.697 50.8992 157.819 51.2008 156.942C51.2802 156.711 51.3607 156.481 51.4413 156.25L51.4416 156.249C51.6558 155.637 51.87 155.024 52.062 154.405C52.0905 154.313 52.0326 154.199 51.9746 154.085C51.9478 154.032 51.921 153.979 51.9028 153.929C51.8434 153.964 51.7748 153.996 51.7062 154.028C51.5578 154.097 51.4094 154.166 51.3552 154.274C50.8416 155.3 50.3397 156.332 49.8964 157.385C49.4885 158.353 49.1243 159.338 48.7602 160.322C48.6993 160.486 48.6383 160.651 48.5772 160.816C48.5098 160.997 48.4421 161.179 48.3745 161.36L48.3734 161.363C47.9913 162.388 47.609 163.413 47.2688 164.45C46.9167 165.523 46.5829 166.601 46.2492 167.679L46.2489 167.68L46.2487 167.68L46.2487 167.681C46.0043 168.47 45.76 169.259 45.5084 170.047C45.416 170.336 45.3245 170.625 45.233 170.914C44.8482 172.131 44.4633 173.348 44.0151 174.545C43.7359 175.29 43.4408 176.03 43.1445 176.773L43.1443 176.774C42.7306 177.811 42.3147 178.855 41.9371 179.925C42.4847 180.584 42.6942 180.59 43.0422 179.833ZM167.428 203.143L167.735 203.122L167.737 203.122C168.467 203.073 169.197 203.024 169.929 202.991C170.894 202.948 171.861 202.91 172.827 202.871C174.104 202.82 175.38 202.77 176.657 202.708C176.757 202.704 176.853 202.612 176.949 202.52C176.993 202.478 177.038 202.435 177.083 202.401C177.044 202.38 177.006 202.357 176.969 202.333C176.881 202.279 176.793 202.225 176.696 202.195C176.621 202.171 176.534 202.177 176.448 202.183C176.41 202.186 176.372 202.188 176.334 202.188H147.331C147.286 202.188 147.235 202.183 147.185 202.178C147.075 202.166 146.964 202.154 146.904 202.199C146.695 202.352 146.509 202.548 146.382 202.76C146.356 202.805 146.608 203.075 146.764 203.106C147.195 203.194 147.643 203.248 148.084 203.249C154.279 203.257 160.473 203.255 166.74 203.188C166.913 203.177 167.086 203.166 167.259 203.154L167.428 203.143ZM212.038 203.977C210.868 204.408 209.699 204.827 208.533 205.245L208.532 205.246L208.53 205.247C206.312 206.042 204.107 206.834 201.931 207.688C200.444 208.271 198.954 208.361 197.405 208.319C197.274 208.315 197.143 208.288 197.012 208.261L197.012 208.261C196.871 208.232 196.731 208.203 196.59 208.204C196.477 208.204 196.363 208.261 196.25 208.318C196.199 208.344 196.148 208.369 196.097 208.39C196.123 208.428 196.148 208.468 196.172 208.509C196.226 208.598 196.279 208.688 196.358 208.752C196.582 208.935 196.815 209.122 197.079 209.248C199.086 210.207 200.246 212.825 199.537 214.79C199.188 215.754 198.767 216.778 198.062 217.529C197.488 218.14 196.488 218.543 195.596 218.754C194.187 219.088 192.717 219.098 191.296 218.628C190.054 218.217 189.162 217.457 188.505 216.429C186.907 213.931 187.563 211.765 189.263 209.748C189.486 209.483 189.845 209.317 190.208 209.148C190.411 209.055 190.614 208.96 190.795 208.848C190.924 208.768 191.024 208.65 191.123 208.532C191.169 208.478 191.214 208.424 191.262 208.374C191.182 208.356 191.102 208.335 191.023 208.313C190.84 208.264 190.657 208.215 190.472 208.208C190.344 208.203 190.216 208.233 190.087 208.263C189.968 208.291 189.848 208.319 189.728 208.319L185.2 208.321C174.963 208.327 164.727 208.333 154.49 208.318C152.017 208.315 149.545 208.281 147.072 208.247C145.617 208.227 144.162 208.208 142.707 208.194C141.631 208.184 140.556 208.186 139.48 208.189C138.991 208.19 138.502 208.192 138.012 208.192C137.907 208.192 137.802 208.191 137.696 208.19C137.404 208.189 137.112 208.187 136.82 208.198C136.759 208.2 136.7 208.238 136.641 208.275C136.613 208.293 136.586 208.31 136.559 208.324C136.585 208.341 136.611 208.359 136.637 208.376C136.658 208.39 136.679 208.404 136.7 208.418C136.72 208.43 136.739 208.443 136.759 208.455L136.774 208.464C136.785 208.471 136.797 208.477 136.808 208.484C137.053 208.623 137.311 208.752 137.568 208.88C138.121 209.155 138.674 209.431 139.108 209.817C142.076 212.46 141.118 217.684 136.677 218.731C133.084 219.578 129.909 218.487 128.843 214.594C128.185 212.194 129.943 209.333 132.603 208.583C132.718 208.55 132.817 208.471 132.916 208.392C132.948 208.367 132.979 208.342 133.011 208.318L133.026 208.308L133.04 208.298L133.056 208.286C133.007 208.262 132.959 208.232 132.91 208.201C132.805 208.135 132.7 208.069 132.595 208.068C129.089 208.056 125.804 207.126 122.582 206.014C118.254 204.52 114.046 202.778 110.15 200.479L110.076 200.435C109.356 200.012 108.614 199.574 108.36 198.687C107.884 197.027 108.804 195.747 110.502 195.327C112.311 194.879 114.045 195.35 115.753 195.85C118.719 196.718 121.683 197.593 124.647 198.467C126.293 198.952 127.938 199.438 129.584 199.922L129.798 199.985L129.798 199.985L129.799 199.985L129.799 199.985L129.8 199.985L129.8 199.985L129.801 199.986L129.801 199.986C130.694 200.249 131.588 200.512 132.489 200.751C132.819 200.839 133.175 200.884 133.52 200.885C135.006 200.89 136.492 200.891 137.978 200.892H137.993C139.469 200.892 140.945 200.893 142.421 200.898C142.64 200.899 143.017 200.955 143.049 201.056C143.118 201.274 143.117 201.511 143.117 201.748C143.116 201.84 143.116 201.933 143.12 202.024C143.098 202.017 143.076 202.008 143.054 201.999C143.007 201.979 142.959 201.96 142.914 201.963C142.747 201.977 142.58 201.996 142.413 202.015L142.411 202.015L142.411 202.015C142.162 202.043 141.913 202.071 141.664 202.083C140.797 202.123 139.93 202.16 139.063 202.197H139.062C137.903 202.246 136.743 202.295 135.584 202.354C133.533 202.459 131.599 201.932 129.683 201.41L129.665 201.405C128.178 200.999 126.709 200.537 125.24 200.075C124.41 199.814 123.58 199.552 122.746 199.301C121.703 198.987 120.656 198.68 119.61 198.373C118.404 198.02 117.198 197.666 115.996 197.301C115.692 197.209 115.396 197.086 115.101 196.963C114.63 196.767 114.162 196.572 113.67 196.505C112.765 196.383 111.797 196.449 110.895 196.612C110.542 196.675 110.148 197.187 110.036 197.56C109.888 198.057 109.989 198.548 110.627 198.918C113.59 200.636 116.712 202.061 119.919 203.354C122.833 204.528 125.841 205.444 128.913 206.19C129.406 206.31 129.939 206.319 130.455 206.328C131.632 206.348 132.809 206.362 133.986 206.375C135.975 206.398 137.964 206.42 139.951 206.476C142.152 206.537 144.351 206.634 146.55 206.732H146.55H146.55H146.55H146.551H146.551H146.551H146.551C147.574 206.777 148.596 206.822 149.619 206.864C150.527 206.901 151.434 206.937 152.342 206.972C153.656 207.024 154.97 207.076 156.283 207.131C156.567 207.143 156.851 207.165 157.134 207.187C157.634 207.225 158.133 207.262 158.63 207.248C159.066 207.235 159.5 207.18 159.935 207.125L159.935 207.125C160.311 207.077 160.686 207.03 161.064 207.009C161.319 206.996 161.576 207.03 161.834 207.065C162.043 207.093 162.253 207.121 162.462 207.124C162.713 207.127 162.965 207.13 163.216 207.134C164.376 207.151 165.536 207.168 166.692 207.118C167.69 207.074 168.687 207.003 169.683 206.931H169.683H169.683H169.683H169.684H169.684H169.684H169.684C170.645 206.862 171.606 206.792 172.568 206.749C172.854 206.736 173.143 206.8 173.432 206.865C173.687 206.923 173.942 206.98 174.197 206.985C175.948 207.018 177.699 207.014 179.45 206.992C181.157 206.97 182.864 206.93 184.569 206.855C184.907 206.84 185.247 206.787 185.586 206.733C186.087 206.654 186.586 206.576 187.072 206.624C189.022 206.817 190.979 206.866 192.934 206.915H192.934C194.277 206.949 195.619 206.982 196.957 207.062C199.373 207.207 201.513 206.681 203.633 205.89C206.501 204.821 209.346 203.688 212.137 202.462C213.883 201.696 215.548 200.772 217.207 199.852L217.51 199.684C218.568 199.098 219.375 198.271 219.707 197.135C219.874 196.562 219.525 196.124 218.895 196.112C216.942 196.072 215.159 196.691 213.386 197.313C210.808 198.219 208.241 199.15 205.682 200.1C204.649 200.483 203.624 200.885 202.599 201.286L202.598 201.286L202.597 201.286L202.596 201.287L202.595 201.287L202.594 201.287L202.593 201.288L202.592 201.288L202.592 201.288L202.591 201.289L202.59 201.289L202.589 201.289L202.588 201.29L202.587 201.29C201.82 201.59 201.054 201.89 200.283 202.183C200.014 202.285 199.703 202.343 199.411 202.344C196.969 202.353 194.527 202.352 192.085 202.352C191.415 202.351 190.744 202.351 190.073 202.351C189.401 202.351 188.729 202.351 188.057 202.352C186.24 202.352 184.423 202.353 182.606 202.35C181.985 202.349 181.363 202.33 180.741 202.308C180.702 202.307 180.637 202.217 180.633 202.164C180.629 202.117 180.629 202.069 180.631 202.02C180.631 201.995 180.633 201.969 180.634 201.943C180.638 201.839 180.642 201.735 180.622 201.635C180.538 201.21 180.738 201.144 181.167 201.147C184.231 201.165 187.296 201.174 190.36 201.152C190.665 201.149 190.971 201.147 191.276 201.145H191.277C193.87 201.128 196.464 201.111 199.052 200.99C199.873 200.952 200.7 200.626 201.486 200.316C201.553 200.29 201.62 200.263 201.687 200.237C206.172 198.482 210.703 196.835 215.372 195.528C216.217 195.291 217.118 195.202 218.01 195.113L218.011 195.113L218.222 195.092L218.358 195.079L218.514 195.062C219.122 194.999 219.767 194.958 220.357 195.072C221.293 195.254 221.682 196.074 221.396 196.93C220.875 198.488 219.835 199.673 218.321 200.514C217.241 201.115 216.157 201.71 215.068 202.308C214.064 202.859 213.055 203.414 212.038 203.977ZM197.117 211.178C195.412 209.484 193.442 209.173 191.092 210.412C189.735 211.128 189.139 212.811 189.253 213.878C189.376 215.027 190.005 215.979 190.967 216.725C192.119 217.62 193.468 217.622 194.857 217.349C197.942 216.744 198.867 213.089 197.117 211.178ZM130.576 213.036C130.576 213.157 130.573 213.278 130.571 213.399V213.4C130.566 213.662 130.561 213.924 130.58 214.185C130.736 216.336 133.472 218.007 135.885 217.374C137.603 216.924 138.593 215.988 138.944 214.344C139.482 211.824 137.767 210.008 135.396 209.695C133.055 209.385 131.129 210.565 130.576 213.036ZM149.339 220.666H154.756H181.681C182.946 220.666 184.21 220.666 185.474 220.666H185.488C191.496 220.667 197.505 220.668 203.513 220.649C203.905 220.648 204.337 220.441 204.661 220.239C204.747 220.184 204.563 219.752 204.384 219.566C204.262 219.441 203.932 219.395 203.696 219.395C184.441 219.39 165.186 219.389 145.931 219.388C138.43 219.387 130.93 219.387 123.429 219.386C123.15 219.386 122.871 219.369 122.592 219.352H122.592L122.591 219.352L122.591 219.352C122.519 219.347 122.448 219.343 122.377 219.339L122.293 219.334C121.831 219.309 121.232 219.871 121.423 220.193C121.697 220.655 122.259 220.667 122.809 220.667C131.631 220.666 140.453 220.666 149.316 220.666H149.321H149.327H149.333H149.339ZM101.202 220.995L97.5613 220.995H97.5555H97.5496H97.5438H97.538H97.5321C92.1788 220.995 86.8648 220.996 81.5507 220.993C81.4948 220.993 81.4381 220.995 81.3814 220.997C81.0227 221.007 80.665 221.018 80.5219 220.592C80.3562 220.098 80.5834 219.74 81.1869 219.675C81.3014 219.663 81.4183 219.666 81.5353 219.67C81.5889 219.671 81.6426 219.673 81.696 219.673L87.2734 219.673C96.7198 219.673 106.166 219.673 115.613 219.671L115.666 219.671L115.705 219.671C116.195 219.668 116.657 219.666 116.637 220.269C116.619 220.768 116.295 220.995 115.54 220.995L104.648 220.995H101.202ZM228.184 220.997L231.962 220.997L234.402 220.998C237.518 220.998 240.598 220.998 243.678 220.992C243.998 220.991 244.322 220.933 244.633 220.867C244.719 220.849 244.805 220.712 244.826 220.62C244.983 219.908 244.73 219.675 243.816 219.675L209.906 219.675C209.853 219.675 209.799 219.673 209.745 219.671C209.628 219.666 209.51 219.662 209.398 219.679C208.775 219.775 208.553 220.169 208.8 220.647C208.99 221.012 209.341 221.005 209.694 220.998C209.743 220.997 209.792 220.996 209.841 220.996C215.942 220.997 222.042 220.997 228.184 220.997ZM201.76 44.4193C201.887 44.4075 202.483 44.4922 203.219 44.5966C204.224 44.7394 205.489 44.919 206.168 44.9389C206.847 44.9588 206.202 45.6229 206.09 45.6272C204.591 45.6854 201.341 44.7819 201.76 44.4193ZM203.95 49.6575C203.315 49.4382 203.619 47.6632 204.248 47.6632C204.87 47.6632 204.57 49.8717 203.95 49.6575ZM194.801 212.411C195.351 213.548 195.313 214.013 194.659 214.631C194.213 215.053 193.404 215.124 192.897 214.787C192.355 214.426 192.104 213.574 192.365 212.983C192.825 211.943 193.835 211.689 194.801 212.411ZM135.995 212.498C135.142 211.778 134.293 211.818 133.249 212.751C132.869 213.554 133.055 214.405 134.464 214.632C135.223 214.754 135.673 214.549 136.092 214.135C136.528 213.704 136.403 212.843 135.995 212.498Z" fill="#00160A"/>
<path fill-rule="evenodd" clip-rule="evenodd" d="M185.493 67.7542C184.225 67.4145 183.924 65.6592 182.644 65.356C181.378 65.056 180.162 66.4238 178.9 66.1115C178.042 65.8991 177.641 65.0344 177.166 64.3488C176.703 63.6817 175.729 63.0795 175.034 63.5101L174.977 63.5484C174.012 64.2424 172.565 63.8039 171.593 63.1176C170.622 62.4313 169.798 61.5062 168.631 61.1531C169.244 60.6016 170.305 61.0018 170.898 61.5708C171.491 62.1399 171.973 62.8896 172.797 63.1173C174.06 63.466 175.481 62.3964 176.673 62.9125C177.414 63.2334 177.715 64.0261 178.158 64.6553C178.602 65.2845 179.567 65.8119 180.197 65.3328C181.725 64.1701 184.457 64.9072 185.046 66.6413C185.216 67.1443 185.971 67.8822 185.493 67.7542Z" fill="#E7EAEE"/>
<path fill-rule="evenodd" clip-rule="evenodd" d="M109.825 199.549C113.35 201.443 124.39 207.023 132.483 207.208L199.421 207.401C199.421 207.401 234.618 196.107 208.884 200.368C207.428 200.609 203.256 202.885 196.55 203.381C184.289 204.288 132.483 203.709 132.483 203.709C132.483 203.709 108.898 199.05 109.825 199.549Z" fill="#E7EAEE"/>
<path fill-rule="evenodd" clip-rule="evenodd" d="M52.3387 161.974C52.4211 161.891 52.5212 161.831 52.5832 161.855C53.2881 162.121 53.6947 161.889 53.9089 161.254C53.9444 161.149 54.1254 161.084 54.2392 161C54.3439 161.127 54.5366 161.254 54.537 161.382C54.5385 161.806 54.74 162.005 55.1811 162.131C55.3692 162.184 55.4805 162.459 55.6267 162.633C55.4794 162.664 55.2574 162.653 55.2007 162.735C55.0855 162.903 55.0252 163.118 55.0078 163.318C54.993 163.488 55.0864 163.663 55.1028 163.839C55.1242 164.069 55.0837 164.238 54.7865 164.006C54.1931 163.543 53.6781 163.716 53.1712 164.153C53.0483 164.259 52.8321 164.276 52.6588 164.333C52.6905 164.189 52.6999 164.038 52.7576 163.903C53.06 163.197 52.8511 162.59 52.3387 161.974Z" fill="#FFB61D"/>
<ellipse cx="197.741" cy="54" rx="2.55733" ry="2.33333" fill="#FFB61D"/>
<path fill-rule="evenodd" clip-rule="evenodd" d="M161.15 74.769L161.444 75.183L161.542 75.3167C162.158 76.1416 163.095 76.9525 164.136 76.7122C166.907 76.0724 170.059 77.189 171.63 79.3669C172.407 80.4437 174.133 80.2325 175.543 79.9567L175.729 79.9196C177.144 79.6335 179.1 79.7681 179.458 81.019L179.476 81.091C179.641 81.811 180.635 82.03 181.453 82.011L181.706 82.0026C183.763 82.0026 184.032 83.0345 184.032 82.9285C184.032 82.9285 179.511 82.6159 178.559 81.2165L178.501 81.1275C177.895 80.159 176.365 80.3166 175.168 80.6459L174.838 80.7399L174.673 80.7837C173.504 81.0824 172.086 81.1906 171.499 80.2704C170.154 78.1592 167.35 76.9046 164.695 77.2258C164.012 77.3085 163.303 77.4836 162.649 77.2859C161.084 76.8131 160.879 74.6081 159.339 74.0706C157.396 73.3923 155.515 75.9693 153.504 75.4828C154.727 74.6315 156.083 73.9392 157.518 73.4333C157.999 73.2638 158.51 73.1129 159.022 73.1695C159.97 73.2743 160.606 74.0179 161.15 74.769ZM185.839 77.3131C185.644 77.8581 185.502 78.3422 185.407 78.7529C185.21 77.5691 183.92 76.4745 182.705 76.8579L182.635 76.8816C181.863 77.1621 181.046 76.5799 180.547 75.9744L180.428 75.827L180.248 75.6015C179.844 75.0989 179.41 74.6031 178.765 74.46C177.584 74.1983 176.542 75.2708 175.335 75.3988C172.542 75.695 171.146 71.1328 168.403 71.6989C167.804 71.8227 167.285 72.1975 166.676 72.2735C164.995 72.4831 164.093 70.5322 162.675 69.6803C161.609 69.0392 160.104 69.078 159.079 69.773C159.131 68.659 160.792 68.1681 161.925 68.5872C163.058 69.0064 163.837 69.9487 164.778 70.661C165.696 71.3554 167.058 71.8323 168.057 71.2673L168.133 71.2217C169.335 70.4625 170.943 71.4256 171.882 72.4483L172.223 72.8209C173.08 73.7516 174.06 74.7185 175.344 74.6293C176.524 74.5473 177.528 73.5444 178.699 73.7048C180.404 73.9385 181.1 76.4458 182.815 76.2761C183.916 76.167 185.063 76.5045 185.887 77.1807L185.839 77.3131ZM186.724 72.067C186.449 72.4189 186.173 72.7015 185.896 72.9148L185.804 72.9834L185.573 72.833C184.452 72.1063 183.228 71.3991 181.865 71.4284C181.367 71.4391 180.857 71.5488 180.379 71.4208C179.11 71.0811 178.809 69.3258 177.53 69.0226C176.264 68.7227 175.048 70.0904 173.785 69.7781C172.927 69.5657 172.526 68.7011 172.051 68.0154C171.589 67.3483 170.615 66.7461 169.919 67.1767L169.862 67.215C168.897 67.909 167.45 67.4706 166.479 66.7843C165.507 66.098 164.683 65.1728 163.517 64.8198C164.129 64.2683 165.19 64.6685 165.783 65.2375C166.376 65.8065 166.859 66.5563 167.683 66.7839C168.945 67.1327 170.367 66.0631 171.558 66.5791C172.299 66.9 172.6 67.6927 173.044 68.322C173.487 68.9512 174.453 69.4785 175.082 68.9995C176.611 67.8367 179.342 68.5738 179.931 70.3079C180.102 70.8109 180.836 70.9279 181.403 70.8269C181.969 70.7259 182.552 70.5004 183.103 70.6587C183.803 70.86 184.162 71.6032 184.837 71.8674C185.539 72.1423 186.378 71.7928 186.848 71.2395L186.895 71.1816C187.273 70.6987 187.096 71.5916 186.724 72.067Z" fill="#FFB61D"/>
<path fill-rule="evenodd" clip-rule="evenodd" d="M172.015 85.2916L172.226 85.3482C172.51 85.4271 172.723 85.5436 172.972 85.7356L173.095 85.8342L173.251 85.9639C173.326 86.0266 173.385 86.0738 173.446 86.119C173.86 86.4287 174.329 86.6209 175.112 86.7343C175.636 86.8103 176.006 86.7341 176.644 86.463L176.874 86.3628C177.905 85.9089 178.504 85.7824 179.471 85.9852C180.297 86.1583 180.676 86.4499 180.984 86.9987L181.062 87.1442C181.21 87.4253 181.686 87.685 182.061 87.89C182.343 88.0436 182.568 88.1665 182.557 88.2447C182.53 88.4271 180.787 88.1322 180.44 87.5009L180.365 87.3594C180.14 86.9355 179.934 86.7663 179.307 86.6349C178.572 86.4808 178.127 86.5614 177.306 86.9135L177.076 87.014C176.243 87.3791 175.734 87.4994 174.997 87.3927C174.086 87.2607 173.497 87.0193 172.983 86.6346C172.947 86.6079 172.912 86.581 172.876 86.5522L172.57 86.3005C172.356 86.1262 172.21 86.0406 172.013 85.9858L171.892 85.9525C171.382 85.8162 170.215 86.1698 169.364 86.4275L169.364 86.4276C168.831 86.5892 168.422 86.7131 168.377 86.6548C168.282 86.529 170.999 85.0425 172.015 85.2916ZM171.89 90.358L172.086 90.4077C172.349 90.4771 172.547 90.5795 172.777 90.7482L172.891 90.8348L173.036 90.9488C173.106 91.004 173.161 91.0454 173.217 91.0851C173.601 91.3573 174.036 91.5262 174.762 91.6258C175.249 91.6926 175.592 91.6257 176.183 91.3874L176.396 91.2994C177.352 90.9005 177.908 90.7894 178.804 90.9675C179.57 91.1197 179.922 91.3759 180.208 91.8582L180.28 91.986C180.417 92.2331 180.858 92.4613 181.207 92.6414C181.468 92.7764 181.677 92.8845 181.666 92.9531C181.641 93.1135 180.025 92.8543 179.703 92.2995L179.634 92.1752C179.425 91.8027 179.234 91.654 178.653 91.5385C177.971 91.403 177.558 91.4739 176.797 91.7833L176.584 91.8716C175.812 92.1925 175.339 92.2982 174.656 92.2044C173.811 92.0885 173.265 91.8763 172.788 91.5382C172.755 91.5147 172.722 91.4911 172.689 91.4658L172.405 91.2446C172.206 91.0914 172.071 91.0162 171.888 90.9681L171.776 90.9388C171.303 90.819 170.221 91.1298 169.432 91.3563C168.937 91.4983 168.558 91.6072 168.517 91.556C168.428 91.4455 170.948 90.1391 171.89 90.358ZM172.253 95.7411L172.068 95.6913C171.178 95.4724 168.798 96.7788 168.882 96.8893C168.921 96.9406 169.279 96.8316 169.746 96.6896L169.747 96.6896C170.492 96.4631 171.514 96.1524 171.96 96.2721L172.066 96.3014C172.239 96.3496 172.366 96.4248 172.554 96.5779L172.822 96.7991C172.854 96.8245 172.884 96.848 172.916 96.8715C173.366 97.2096 173.882 97.4218 174.68 97.5377C175.325 97.6315 175.771 97.5258 176.501 97.205L176.702 97.1167C177.421 96.8072 177.811 96.7364 178.455 96.8718C179.004 96.9873 179.184 97.136 179.381 97.5085L179.447 97.6329C179.751 98.1876 181.277 98.4468 181.301 98.2865C181.311 98.2178 181.114 98.1098 180.867 97.9748C180.538 97.7946 180.121 97.5664 179.992 97.3194L179.924 97.1915C179.654 96.7093 179.321 96.453 178.598 96.3008C177.752 96.1227 177.227 96.2338 176.324 96.6327L176.123 96.7207C175.564 96.959 175.24 97.0259 174.78 96.9591C174.095 96.8595 173.684 96.6906 173.321 96.4184C173.268 96.3787 173.217 96.3373 173.15 96.2822L173.014 96.1682L172.906 96.0815C172.688 95.9128 172.501 95.8104 172.253 95.7411ZM172.068 102.025L172.253 102.074C172.501 102.144 172.688 102.246 172.906 102.415L173.014 102.502L173.15 102.615C173.217 102.671 173.268 102.712 173.321 102.752C173.684 103.024 174.095 103.193 174.78 103.292C175.24 103.359 175.564 103.292 176.123 103.054L176.324 102.966C177.227 102.567 177.752 102.456 178.598 102.634C179.321 102.786 179.654 103.043 179.924 103.525L179.992 103.653C180.121 103.9 180.538 104.128 180.867 104.308C181.114 104.443 181.311 104.551 181.301 104.62C181.277 104.78 179.751 104.521 179.447 103.966L179.381 103.842C179.184 103.469 179.004 103.321 178.455 103.205C177.811 103.07 177.421 103.141 176.702 103.45L176.501 103.538C175.771 103.859 175.325 103.965 174.68 103.871C173.882 103.755 173.366 103.543 172.916 103.205C172.884 103.181 172.854 103.158 172.822 103.132L172.554 102.911C172.366 102.758 172.239 102.683 172.066 102.635L171.96 102.605C171.514 102.486 170.492 102.796 169.747 103.023L169.746 103.023C169.279 103.165 168.921 103.274 168.882 103.223C168.798 103.112 171.178 101.806 172.068 102.025ZM172.817 108.408L172.621 108.358C171.679 108.139 169.159 109.445 169.248 109.556C169.289 109.607 169.668 109.498 170.163 109.356L170.163 109.356C170.952 109.13 172.034 108.819 172.507 108.939L172.619 108.968C172.801 109.016 172.937 109.091 173.136 109.245L173.419 109.466C173.453 109.491 173.485 109.515 173.518 109.538C173.995 109.876 174.542 110.088 175.386 110.204C176.069 110.298 176.542 110.192 177.314 109.872L177.528 109.783C178.289 109.474 178.702 109.403 179.383 109.538C179.965 109.654 180.155 109.803 180.364 110.175L180.434 110.3C180.755 110.854 182.372 111.113 182.397 110.953C182.408 110.884 182.199 110.776 181.938 110.641C181.589 110.461 181.148 110.233 181.011 109.986L180.939 109.858C180.653 109.376 180.301 109.12 179.535 108.968C178.639 108.789 178.083 108.901 177.127 109.299L176.914 109.387C176.322 109.626 175.979 109.693 175.493 109.626C174.767 109.526 174.332 109.357 173.948 109.085C173.892 109.045 173.837 109.004 173.767 108.949L173.622 108.835L173.508 108.748C173.278 108.579 173.08 108.477 172.817 108.408ZM174.612 114.218L174.815 114.236C175.087 114.263 175.301 114.332 175.56 114.462L175.689 114.529L175.853 114.619C175.933 114.662 175.995 114.694 176.058 114.724C176.488 114.931 176.948 115.029 177.682 115.012C178.174 115.001 178.499 114.88 179.036 114.552L179.229 114.431C180.095 113.887 180.621 113.69 181.538 113.723C182.321 113.752 182.716 113.948 183.089 114.378L183.185 114.492C183.366 114.714 183.845 114.869 184.222 114.991L184.222 114.991L184.222 114.991C184.505 115.083 184.731 115.156 184.734 115.225C184.74 115.387 183.099 115.388 182.676 114.892L182.584 114.781C182.307 114.447 182.091 114.331 181.497 114.309C180.8 114.284 180.406 114.419 179.716 114.845L179.523 114.965C178.823 115.404 178.378 115.583 177.687 115.599C176.834 115.618 176.255 115.496 175.721 115.238L175.61 115.183L175.288 115.01C175.063 114.891 174.916 114.838 174.727 114.819L174.611 114.808C174.122 114.765 173.116 115.243 172.382 115.591C171.922 115.809 171.569 115.976 171.518 115.933C171.41 115.838 173.643 114.152 174.612 114.218ZM179.221 118.535L179.059 118.549C178.284 118.631 176.744 120.186 176.842 120.241C176.888 120.267 177.144 120.095 177.478 119.871L177.479 119.87L177.479 119.87L177.479 119.87C178.012 119.512 178.744 119.021 179.136 118.987L179.229 118.979C179.381 118.967 179.504 118.986 179.698 119.044L179.975 119.129L180.07 119.155C180.526 119.273 180.999 119.286 181.671 119.155C182.215 119.049 182.543 118.856 183.037 118.436L183.174 118.32C183.663 117.911 183.956 117.757 184.51 117.681C184.982 117.616 185.168 117.673 185.431 117.883L185.519 117.953C185.918 118.263 187.215 118.04 187.189 117.92C187.177 117.869 186.989 117.846 186.753 117.816H186.753L186.753 117.816L186.753 117.816C186.439 117.777 186.04 117.727 185.867 117.587L185.777 117.515C185.425 117.247 185.086 117.155 184.464 117.24C183.735 117.34 183.346 117.558 182.734 118.08L182.598 118.195C182.217 118.512 181.976 118.645 181.589 118.721C181.012 118.833 180.635 118.823 180.268 118.728C180.214 118.714 180.161 118.698 180.092 118.677L179.951 118.633L179.84 118.601C179.618 118.54 179.44 118.517 179.221 118.535ZM183.077 121.549L183.24 121.535C183.458 121.517 183.637 121.54 183.859 121.601L183.969 121.633L184.111 121.677C184.18 121.698 184.233 121.714 184.286 121.728C184.654 121.823 185.03 121.833 185.608 121.721C185.995 121.645 186.236 121.512 186.617 121.195L186.753 121.08C187.365 120.558 187.754 120.34 188.483 120.24C189.105 120.155 189.443 120.247 189.795 120.515L189.886 120.587C190.059 120.727 190.457 120.777 190.772 120.816C191.008 120.846 191.196 120.869 191.207 120.92C191.233 121.04 189.937 121.263 189.538 120.953L189.45 120.883C189.187 120.673 189.001 120.616 188.528 120.681C187.974 120.757 187.681 120.911 187.192 121.32L187.056 121.436C186.562 121.856 186.233 122.049 185.69 122.155C185.018 122.286 184.545 122.273 184.089 122.155L183.993 122.129L183.716 122.044C183.523 121.986 183.399 121.967 183.247 121.979L183.154 121.987C182.763 122.021 182.031 122.512 181.497 122.87L181.497 122.87L181.497 122.87C181.163 123.095 180.906 123.267 180.861 123.241C180.762 123.186 182.303 121.631 183.077 121.549ZM188.383 124.778L188.256 124.81C187.649 124.976 186.658 126.416 186.745 126.448C186.785 126.463 186.964 126.292 187.197 126.07C187.568 125.715 188.077 125.228 188.385 125.15L188.458 125.132C188.577 125.103 188.679 125.103 188.843 125.124L189.077 125.156L189.157 125.165C189.54 125.201 189.921 125.149 190.438 124.959C190.856 124.804 191.088 124.608 191.418 124.208L191.51 124.098C191.837 123.708 192.048 123.547 192.479 123.415C192.847 123.303 193.004 123.324 193.247 123.458L193.328 123.503C193.695 123.7 194.697 123.354 194.657 123.262C194.641 123.223 194.486 123.228 194.293 123.235C194.036 123.244 193.71 123.255 193.55 123.166L193.466 123.12C193.143 122.951 192.859 122.921 192.374 123.069C191.807 123.242 191.53 123.467 191.121 123.962L191.03 124.072C190.774 124.374 190.603 124.512 190.305 124.622C189.86 124.786 189.558 124.827 189.25 124.798C189.205 124.793 189.16 124.788 189.102 124.78L188.982 124.763L188.888 124.751C188.701 124.731 188.555 124.736 188.383 124.778ZM192.316 127.503L192.444 127.471C192.616 127.429 192.762 127.424 192.949 127.444L193.042 127.456L193.162 127.473C193.22 127.481 193.265 127.487 193.31 127.491C193.618 127.52 193.921 127.479 194.365 127.315C194.663 127.205 194.835 127.068 195.091 126.765L195.182 126.655C195.59 126.16 195.868 125.936 196.435 125.762C196.919 125.614 197.204 125.644 197.527 125.813L197.61 125.859C197.77 125.948 198.096 125.937 198.354 125.928C198.547 125.921 198.701 125.916 198.718 125.955C198.757 126.047 197.755 126.393 197.388 126.196L197.307 126.151C197.065 126.017 196.907 125.996 196.539 126.108C196.108 126.24 195.898 126.401 195.57 126.791L195.479 126.901C195.149 127.301 194.916 127.498 194.498 127.652C193.981 127.843 193.601 127.894 193.218 127.858L193.138 127.849L192.903 127.817C192.74 127.796 192.638 127.796 192.518 127.826L192.445 127.844C192.137 127.921 191.628 128.408 191.257 128.763C191.024 128.985 190.846 129.156 190.805 129.141C190.718 129.109 191.709 127.669 192.316 127.503ZM197.193 130.138L197.065 130.17C196.459 130.336 195.468 131.776 195.555 131.808C195.595 131.823 195.774 131.652 196.006 131.43C196.377 131.075 196.887 130.588 197.194 130.51L197.268 130.492C197.387 130.463 197.489 130.462 197.653 130.484L197.887 130.516L197.967 130.525C198.35 130.56 198.73 130.509 199.247 130.319C199.665 130.164 199.898 129.967 200.228 129.568L200.319 129.458C200.647 129.068 200.858 128.907 201.289 128.775C201.656 128.663 201.814 128.684 202.057 128.818L202.138 128.863C202.505 129.059 203.507 128.714 203.467 128.622C203.45 128.583 203.296 128.588 203.103 128.595C202.846 128.604 202.519 128.615 202.36 128.525L202.276 128.48C201.953 128.311 201.669 128.281 201.184 128.429C200.617 128.602 200.339 128.827 199.931 129.322L199.84 129.432C199.584 129.734 199.412 129.872 199.114 129.982C198.67 130.146 198.368 130.186 198.059 130.157C198.014 130.153 197.969 130.148 197.911 130.14L197.791 130.123L197.698 130.111C197.511 130.091 197.365 130.096 197.193 130.138Z" fill="#FFB61D"/>
</svg>
