<svg width="200" height="180" viewBox="0 0 200 200" fill="none" xmlns="http://www.w3.org/2000/svg">
<path d="M162.135 42.689C162.135 42.689 160.975 39.8496 159.135 35.929C159.135 35.929 153.225 41.7868 153.27 41.4617C153.315 41.1366 162.135 42.689 162.135 42.689Z" fill="#231F20"/>
<path d="M162.135 43.0208H162.1C158.99 42.4702 153.915 41.6542 153.36 41.7537C153.215 41.8333 153.17 41.7935 153.12 41.7537C153.077 41.7151 153.043 41.6607 153.023 41.5971C153.002 41.5336 152.996 41.4635 153.005 41.3955C153.005 41.3026 153.035 41.2097 153.2 41.1566C153.54 40.9775 156.92 37.6937 158.965 35.6637C158.992 35.6361 159.024 35.6165 159.058 35.6062C159.091 35.5959 159.126 35.5952 159.16 35.604C159.194 35.6113 159.226 35.6281 159.254 35.6533C159.283 35.6785 159.307 35.7114 159.325 35.7499C161.17 39.6375 162.325 42.5033 162.355 42.5299C162.376 42.5805 162.386 42.6374 162.386 42.695C162.385 42.7527 162.373 42.8091 162.351 42.8586C162.328 42.9082 162.297 42.9492 162.259 42.9776C162.221 43.0061 162.178 43.0209 162.135 43.0208ZM154.135 41.1367C155.225 41.2163 157.38 41.5281 161.66 42.2778C161.245 41.2893 160.31 39.12 159.03 36.4133C156.36 39.0669 154.935 40.4402 154.15 41.1367H154.135Z" fill="#231F20"/>
<path d="M83.825 161.006L80.875 154.478L84.96 149.582L83.825 161.006Z" fill="#231F20"/>
<path d="M83.825 161.338C83.782 161.337 83.7399 161.322 83.7024 161.294C83.6649 161.266 83.6331 161.227 83.61 161.179L80.66 154.651C80.6304 154.584 80.6191 154.506 80.6282 154.43C80.6374 154.354 80.6663 154.284 80.71 154.233L84.79 149.337C84.8282 149.291 84.876 149.262 84.927 149.254C84.978 149.246 85.0297 149.259 85.075 149.291C85.1197 149.323 85.156 149.373 85.1792 149.433C85.2023 149.494 85.2113 149.562 85.205 149.629L84.075 161.033C84.0686 161.102 84.0458 161.167 84.0099 161.218C83.974 161.27 83.9268 161.305 83.875 161.318L83.825 161.338ZM81.195 154.545L83.695 160.018L84.645 150.432L81.195 154.545Z" fill="#231F20"/>
<path d="M85.74 162.36L133.24 171.335C134.214 171.507 135.203 171.211 136.027 170.502C136.852 169.793 137.459 168.717 137.74 167.468L162.32 45.4688C162.82 42.9413 161.605 40.7189 159.59 40.5L111.155 35.3188C110.198 35.2564 109.252 35.6228 108.47 36.3591C107.689 37.0954 107.116 38.1589 106.845 39.3788L83.26 157.344C83.1376 157.892 83.1067 158.468 83.1693 159.033C83.232 159.598 83.3868 160.138 83.6229 160.616C83.859 161.093 84.1707 161.496 84.5364 161.798C84.902 162.099 85.3127 162.291 85.74 162.36Z" fill="#231F20"/>
<path d="M133.765 171.74C133.573 171.739 133.381 171.721 133.19 171.687L85.69 162.704C85.2306 162.63 84.7888 162.424 84.3945 162.103C84.0002 161.781 83.6628 161.35 83.405 160.84C83.1488 160.316 82.9801 159.725 82.9102 159.107C82.8403 158.489 82.871 157.859 83 157.258L106.585 39.3123C106.873 38.0166 107.481 36.8865 108.31 36.1024C109.139 35.3184 110.143 34.9257 111.16 34.9869L159.595 40.1681C160.086 40.2069 160.565 40.3887 160.997 40.7006C161.429 41.0124 161.804 41.4467 162.095 41.9725C162.363 42.4896 162.541 43.0795 162.615 43.6993C162.689 44.319 162.659 44.9529 162.525 45.5549L137.945 167.554C137.678 168.753 137.127 169.807 136.375 170.561C135.622 171.314 134.708 171.727 133.765 171.74ZM85.765 162.048L133.265 171.03C134.181 171.192 135.11 170.916 135.886 170.251C136.663 169.586 137.235 168.576 137.5 167.401L162.06 45.4089C162.176 44.9006 162.204 44.3642 162.143 43.8394C162.081 43.3146 161.932 42.8149 161.705 42.3772C161.455 41.9267 161.132 41.5559 160.76 41.292C160.388 41.028 159.976 40.8775 159.555 40.8514L111.12 35.6503C110.22 35.5876 109.33 35.9302 108.595 36.6226C107.86 37.315 107.322 38.3165 107.07 39.4649L83.5 157.43C83.3883 157.94 83.3604 158.476 83.4182 159.001C83.476 159.527 83.6182 160.029 83.835 160.475C84.0552 160.906 84.3422 161.269 84.6768 161.54C85.0114 161.811 85.3859 161.984 85.775 162.048H85.765Z" fill="#231F20"/>
<path d="M82.65 155.646L130.15 164.622C131.124 164.79 132.111 164.494 132.936 163.785C133.76 163.077 134.368 162.002 134.65 160.754L159.225 38.7553C159.725 36.2277 158.51 34.0054 156.495 33.7864L108.05 28.6053C107.092 28.5437 106.146 28.9103 105.364 29.6464C104.582 30.3825 104.008 31.4455 103.735 32.6653L80.165 150.611C80.04 151.16 80.0072 151.739 80.069 152.307C80.1307 152.875 80.2854 153.418 80.5223 153.898C80.7592 154.378 81.0724 154.783 81.44 155.085C81.8076 155.387 82.2206 155.579 82.65 155.646Z" fill="white"/>
<path d="M130.675 165.013C130.483 165.012 130.291 164.994 130.1 164.96L82.6 155.978C82.1406 155.903 81.6988 155.697 81.3045 155.376C80.9102 155.054 80.5727 154.624 80.315 154.114C80.0584 153.59 79.8896 152.999 79.8197 152.381C79.7498 151.763 79.7806 151.132 79.91 150.531L103.5 32.5856C103.789 31.2911 104.397 30.1626 105.226 29.3808C106.055 28.599 107.059 28.2091 108.075 28.2735L156.5 33.4546C156.995 33.4891 157.479 33.6688 157.915 33.9808C158.352 34.2928 158.731 34.7294 159.025 35.2591C159.292 35.777 159.469 36.3668 159.543 36.9862C159.617 37.6056 159.587 38.2392 159.455 38.8414L134.875 160.84C134.605 162.042 134.051 163.096 133.294 163.847C132.538 164.598 131.62 165.007 130.675 165.013ZM107.76 28.9236C106.909 28.9549 106.088 29.3418 105.413 30.0291C104.737 30.7165 104.243 31.6692 104 32.7514L80.41 150.697C80.2983 151.207 80.2704 151.743 80.3282 152.268C80.386 152.793 80.5281 153.296 80.745 153.742C80.9652 154.172 81.2522 154.535 81.5868 154.807C81.9214 155.078 82.2958 155.251 82.685 155.314L130.185 164.297C131.098 164.454 132.024 164.175 132.797 163.51C133.57 162.846 134.14 161.838 134.405 160.668L158.97 38.6756C159.085 38.1671 159.113 37.6309 159.051 37.1064C158.99 36.5819 158.841 36.0822 158.615 35.6438C158.364 35.1925 158.041 34.8212 157.668 34.5572C157.295 34.2932 156.882 34.1431 156.46 34.118L108.03 28.9369L107.76 28.9236Z" fill="#231F20"/>
<path d="M154.52 46.7823L104.935 41.0837L85.91 136.255L134.77 144.872L154.52 46.7823Z" fill="#68E1FD"/>
<path d="M132.77 131.757C132.722 131.757 132.676 131.739 132.636 131.705C132.596 131.671 132.564 131.622 132.545 131.565L122.545 103.51C122.531 103.47 122.522 103.427 122.521 103.383C122.519 103.339 122.524 103.295 122.535 103.254C122.546 103.213 122.563 103.175 122.586 103.142C122.608 103.11 122.635 103.084 122.665 103.065C122.725 103.029 122.793 103.025 122.855 103.055C122.916 103.085 122.967 103.146 122.995 103.224L132.995 131.286C133.009 131.325 133.017 131.368 133.019 131.411C133.021 131.454 133.016 131.498 133.005 131.539C132.993 131.579 132.976 131.617 132.954 131.649C132.932 131.681 132.905 131.706 132.875 131.724C132.842 131.744 132.806 131.756 132.77 131.757Z" fill="white"/>
<path d="M102.275 154.936L111.545 156.668C112.134 156.764 112.729 156.579 113.225 156.146C113.72 155.714 114.084 155.061 114.25 154.306L115.17 149.722C115.247 149.374 115.265 149.007 115.223 148.649C115.182 148.29 115.081 147.949 114.928 147.648C114.775 147.347 114.574 147.094 114.34 146.908C114.105 146.722 113.842 146.607 113.57 146.571L104.29 144.899C103.707 144.814 103.12 145.005 102.632 145.436C102.144 145.868 101.785 146.514 101.62 147.261L100.705 151.805C100.628 152.149 100.609 152.511 100.649 152.866C100.689 153.221 100.788 153.56 100.937 153.858C101.087 154.157 101.285 154.409 101.516 154.595C101.747 154.781 102.006 154.898 102.275 154.936Z" fill="white"/>
<path d="M111.855 157.053C111.739 157.055 111.624 157.044 111.51 157.019L102.24 155.295C101.936 155.248 101.644 155.114 101.383 154.902C101.123 154.69 100.9 154.405 100.731 154.067C100.562 153.729 100.451 153.346 100.405 152.945C100.359 152.544 100.379 152.135 100.465 151.745L101.375 147.201C101.557 146.376 101.953 145.663 102.492 145.187C103.032 144.711 103.681 144.503 104.325 144.601L113.605 146.266C113.914 146.314 114.211 146.45 114.477 146.664C114.742 146.878 114.97 147.165 115.145 147.506C115.312 147.847 115.422 148.231 115.468 148.632C115.513 149.034 115.494 149.444 115.41 149.835L114.5 154.399C114.334 155.161 113.987 155.831 113.51 156.309C113.033 156.787 112.453 157.048 111.855 157.053ZM102.31 154.638L111.58 156.363C112.108 156.448 112.641 156.282 113.085 155.894C113.529 155.507 113.855 154.923 114.005 154.246L114.93 149.662C114.994 149.362 115.009 149.047 114.975 148.738C114.94 148.429 114.857 148.134 114.73 147.871C114.594 147.61 114.417 147.391 114.212 147.227C114.007 147.064 113.778 146.96 113.54 146.922L104.255 145.257C103.732 145.178 103.205 145.346 102.767 145.732C102.329 146.118 102.008 146.697 101.86 147.367L100.95 151.918C100.882 152.216 100.864 152.531 100.898 152.84C100.932 153.148 101.017 153.443 101.147 153.703C101.277 153.963 101.449 154.181 101.65 154.343C101.851 154.505 102.076 154.605 102.31 154.638Z" fill="#E6E7E8"/>
<path d="M139.85 38.6025L125.685 37.0302C125.652 37.0263 125.62 37.0138 125.591 36.9935C125.562 36.9733 125.536 36.9455 125.515 36.912C125.494 36.8784 125.478 36.8396 125.468 36.7979C125.458 36.7561 125.455 36.7122 125.457 36.6687C125.46 36.6251 125.47 36.5827 125.485 36.544C125.5 36.5053 125.521 36.4709 125.547 36.4429C125.572 36.4148 125.601 36.3937 125.633 36.3806C125.664 36.3676 125.697 36.3629 125.73 36.3668L139.89 37.9324C139.956 37.9324 140.02 37.9674 140.067 38.0296C140.114 38.0918 140.14 38.1762 140.14 38.2641C140.14 38.3521 140.114 38.4365 140.067 38.4987C140.02 38.5609 139.956 38.5958 139.89 38.5958L139.85 38.6025Z" fill="#D1D3D4"/>
<path d="M123.72 36.8114L121.84 36.6057C121.807 36.6024 121.776 36.5905 121.746 36.5705C121.717 36.5506 121.691 36.5231 121.67 36.4897C121.65 36.4563 121.634 36.4177 121.624 36.3761C121.615 36.3345 121.612 36.2907 121.615 36.2475C121.621 36.1601 121.653 36.0794 121.704 36.0224C121.754 35.9655 121.819 35.9368 121.885 35.9423L123.76 36.1546C123.826 36.1546 123.89 36.1896 123.937 36.2518C123.984 36.314 124.01 36.3983 124.01 36.4863C124.01 36.5743 123.984 36.6587 123.937 36.7209C123.89 36.7831 123.826 36.818 123.76 36.818L123.72 36.8114Z" fill="#D1D3D4"/>
<path d="M137.63 99.2969C137.63 99.2969 143.72 72.6549 138.44 66.7506L112.6 62.6243C112.6 62.6243 108.17 68.7474 107.53 73.4509C106.89 78.1544 101.53 88.1717 103.53 94.149L137.63 99.2969Z" fill="#231F20"/>
<path d="M137.63 99.6285H137.605L103.5 94.4739C103.457 94.4669 103.416 94.4456 103.381 94.412C103.346 94.3783 103.318 94.3334 103.3 94.2815C101.915 90.1286 103.94 84.1381 105.57 79.3218C106.375 76.9469 107.07 74.8903 107.27 73.3911C107.915 68.6411 112.22 62.644 112.405 62.3919C112.432 62.3549 112.465 62.3266 112.501 62.3094C112.538 62.2921 112.577 62.2863 112.615 62.2924L138.455 66.4254C138.502 66.434 138.547 66.4592 138.585 66.4983C143.93 72.4689 138.085 98.3017 137.855 99.3963C137.84 99.4608 137.81 99.5176 137.77 99.5591C137.73 99.6006 137.681 99.6248 137.63 99.6285ZM103.72 93.837L137.45 98.9385C138.06 96.1655 143.055 72.5751 138.335 67.0954L112.695 62.9956C112.085 63.8713 108.345 69.3377 107.775 73.537C107.56 75.1159 106.855 77.2056 106.04 79.6204C104.5 84.2177 102.535 89.9561 103.72 93.837Z" fill="#231F20"/>
<path d="M140.07 100.08H140.035L96.85 92.0394C96.7853 92.0263 96.7271 91.98 96.6878 91.9105C96.6486 91.8411 96.6314 91.754 96.64 91.6679C96.6487 91.5809 96.6831 91.502 96.7356 91.4485C96.788 91.395 96.8544 91.3713 96.92 91.3826L140.105 99.423C140.171 99.4362 140.23 99.4832 140.271 99.5539C140.311 99.6246 140.329 99.7134 140.32 99.8012C140.309 99.8791 140.279 99.9496 140.233 100.001C140.187 100.051 140.13 100.079 140.07 100.08Z" fill="#231F20"/>
<path d="M138.44 66.7507C138.44 66.7507 135.82 67.2284 134.215 74.4594C131.76 85.5249 128.525 108.877 126.48 117.66C123.48 130.437 115.48 132.255 115.48 132.255L81.655 125.747C81.655 125.747 95.42 119.418 97.745 108.658C100.19 97.3201 103.575 75.899 104.49 71.1159C106.105 62.6443 112.615 62.6443 112.615 62.6443L138.44 66.7507Z" fill="white"/>
<path d="M115.465 132.567H115.43L81.605 126.059C81.5494 126.047 81.4981 126.012 81.4592 125.958C81.4203 125.904 81.396 125.834 81.39 125.76C81.3845 125.686 81.3978 125.612 81.4277 125.55C81.4576 125.487 81.5024 125.44 81.555 125.415C81.695 125.355 95.23 119.013 97.49 108.545C99.185 100.684 101.36 87.8269 102.795 79.3155C103.44 75.501 103.95 72.4825 104.23 71.0164C105.875 62.3922 112.535 62.2927 112.6 62.2927L138.47 66.4257C138.53 66.4353 138.586 66.4736 138.626 66.5334C138.667 66.5932 138.689 66.6704 138.69 66.7508C138.69 66.8309 138.668 66.9082 138.628 66.9689C138.589 67.0297 138.535 67.0699 138.475 67.0825C138.435 67.0825 135.975 67.6862 134.475 74.5523C133.23 80.1514 131.795 88.8818 130.4 97.3268C129.04 105.599 127.75 113.414 126.74 117.76C125.18 124.453 122.24 128.122 120.01 130.019C118.643 131.234 117.117 132.098 115.51 132.567H115.465ZM82.63 125.588L115.46 131.903C116.045 131.744 123.46 129.548 126.24 117.56C127.24 113.242 128.535 105.44 129.895 97.1875C131.285 88.7292 132.73 79.9856 133.975 74.3666C135.03 69.6233 136.52 67.7326 137.475 66.9299L112.57 62.9495C112.34 62.9495 106.265 63.0623 104.715 71.1823C104.44 72.6351 103.93 75.6469 103.285 79.4615C101.845 87.9795 99.67 100.849 97.97 108.731C96.745 114.389 92.385 118.801 88.94 121.501C86.9169 123.071 84.8076 124.437 82.63 125.588Z" fill="#231F20"/>
<path d="M122.18 118.436H122.15L117.575 117.773C117.509 117.763 117.45 117.719 117.408 117.65C117.367 117.582 117.348 117.495 117.355 117.408C117.358 117.364 117.368 117.322 117.383 117.284C117.399 117.246 117.42 117.212 117.446 117.185C117.472 117.157 117.501 117.137 117.533 117.125C117.564 117.114 117.597 117.11 117.63 117.116L122.21 117.779C122.276 117.789 122.335 117.833 122.377 117.902C122.418 117.97 122.437 118.057 122.43 118.144C122.422 118.224 122.392 118.298 122.346 118.352C122.3 118.405 122.241 118.435 122.18 118.436Z" fill="#D1D3D4"/>
<path d="M113.885 117.189H113.855L100.16 115.125C100.094 115.115 100.035 115.071 99.9934 115.003C99.9521 114.935 99.933 114.848 99.94 114.761C99.9431 114.717 99.9527 114.675 99.9683 114.637C99.9839 114.598 100.005 114.565 100.031 114.537C100.057 114.51 100.086 114.49 100.118 114.478C100.149 114.466 100.182 114.463 100.215 114.469L113.915 116.525C113.981 116.531 114.043 116.571 114.087 116.636C114.131 116.702 114.154 116.789 114.15 116.877C114.146 116.965 114.116 117.047 114.066 117.106C114.016 117.164 113.951 117.194 113.885 117.189Z" fill="#D1D3D4"/>
<path d="M118.09 125.368H118.06L113.855 124.705C113.822 124.7 113.79 124.686 113.762 124.665C113.733 124.643 113.707 124.614 113.687 124.58C113.667 124.545 113.651 124.506 113.643 124.464C113.634 124.421 113.631 124.377 113.635 124.334C113.639 124.29 113.649 124.248 113.666 124.21C113.682 124.171 113.703 124.138 113.729 124.111C113.755 124.084 113.785 124.064 113.817 124.052C113.849 124.04 113.882 124.036 113.915 124.042L118.12 124.705C118.153 124.708 118.185 124.719 118.215 124.738C118.244 124.757 118.271 124.784 118.292 124.816C118.314 124.849 118.331 124.887 118.342 124.928C118.352 124.969 118.357 125.013 118.355 125.057C118.353 125.1 118.345 125.143 118.33 125.182C118.316 125.221 118.296 125.256 118.271 125.285C118.247 125.314 118.218 125.337 118.187 125.351C118.156 125.365 118.123 125.371 118.09 125.368Z" fill="#D1D3D4"/>
<path d="M109.195 124.029H109.165L96.07 122.038C96.0037 122.029 95.943 121.985 95.9013 121.915C95.8595 121.846 95.8402 121.758 95.8475 121.67C95.8548 121.582 95.8881 121.502 95.9402 121.446C95.9922 121.391 96.0587 121.365 96.125 121.375L109.225 123.365C109.291 123.375 109.35 123.419 109.392 123.488C109.433 123.556 109.452 123.643 109.445 123.73C109.438 123.812 109.408 123.887 109.362 123.942C109.316 123.997 109.257 124.028 109.195 124.029Z" fill="#D1D3D4"/>
<path d="M115.465 132.235C113.486 129.809 111.965 126.801 111.022 123.453C110.08 120.104 109.744 116.509 110.04 112.956L74.54 104.458C74.54 104.458 77.585 120.227 81.635 125.727L115.465 132.235Z" fill="white"/>
<path d="M115.465 132.566H115.43L81.605 126.058C81.5501 126.046 81.4994 126.011 81.46 125.959C77.41 120.459 74.425 105.188 74.3 104.538C74.2897 104.484 74.2897 104.428 74.3002 104.375C74.3107 104.321 74.3313 104.272 74.36 104.232C74.3883 104.19 74.4243 104.158 74.4646 104.14C74.5048 104.121 74.548 104.117 74.59 104.126L110.09 112.624C110.151 112.642 110.206 112.689 110.243 112.756C110.279 112.824 110.296 112.907 110.29 112.989C110.01 116.488 110.346 120.025 111.273 123.321C112.2 126.617 113.691 129.582 115.63 131.982C115.672 132.024 115.702 132.083 115.717 132.15C115.732 132.216 115.73 132.287 115.712 132.353C115.694 132.418 115.661 132.474 115.618 132.512C115.574 132.551 115.522 132.57 115.47 132.566H115.465ZM81.76 125.415L114.72 131.757C112.932 129.329 111.563 126.415 110.707 123.215C109.851 120.016 109.53 116.608 109.765 113.228L74.885 104.876C75.445 107.589 78.235 120.526 81.76 125.415Z" fill="#231F20"/>
<path d="M129.525 77.0929H129.5L107.5 73.7759C107.467 73.7719 107.435 73.7589 107.405 73.7377C107.376 73.7166 107.35 73.6878 107.33 73.653C107.309 73.6182 107.294 73.5782 107.286 73.5355C107.277 73.4927 107.275 73.4481 107.28 73.4044C107.288 73.3174 107.321 73.238 107.372 73.1833C107.424 73.1286 107.489 73.1032 107.555 73.1125L129.555 76.4295C129.621 76.4339 129.684 76.473 129.728 76.5384C129.773 76.6037 129.796 76.6898 129.793 76.7778C129.789 76.8657 129.76 76.9484 129.71 77.0075C129.661 77.0665 129.596 77.0973 129.53 77.0929H129.525Z" fill="#D1D3D4"/>
<path d="M128.605 84.6028H128.575L124.445 83.9793C124.412 83.974 124.38 83.9603 124.352 83.9388C124.323 83.9173 124.297 83.8885 124.277 83.854C124.257 83.8195 124.241 83.78 124.233 83.7377C124.224 83.6955 124.221 83.6513 124.225 83.6078C124.229 83.5642 124.239 83.5221 124.256 83.4838C124.272 83.4456 124.293 83.412 124.319 83.3849C124.345 83.3578 124.375 83.3377 124.407 83.3259C124.439 83.314 124.472 83.3106 124.505 83.3159L128.63 83.9328C128.663 83.935 128.695 83.9457 128.725 83.9644C128.754 83.9831 128.781 84.0094 128.803 84.0417C128.825 84.074 128.842 84.1118 128.853 84.1529C128.864 84.194 128.869 84.2375 128.868 84.2811C128.866 84.3247 128.858 84.3674 128.844 84.4068C128.83 84.4462 128.81 84.4815 128.785 84.5108C128.761 84.54 128.733 84.5627 128.702 84.5773C128.671 84.592 128.638 84.5984 128.605 84.5962V84.6028Z" fill="#D1D3D4"/>
<path d="M119.85 83.2825L106.61 81.2924C106.544 81.2827 106.483 81.2384 106.441 81.1694C106.4 81.1003 106.38 81.0121 106.387 80.9242C106.395 80.8362 106.428 80.7557 106.48 80.7003C106.532 80.6449 106.599 80.6193 106.665 80.629L119.905 82.6191C119.938 82.6218 119.97 82.6329 120 82.652C120.029 82.6711 120.056 82.6977 120.077 82.7304C120.099 82.763 120.116 82.8011 120.127 82.8423C120.138 82.8835 120.142 82.9272 120.14 82.9707C120.138 83.0143 120.13 83.0569 120.115 83.0962C120.101 83.1354 120.081 83.1705 120.056 83.1995C120.032 83.2284 120.003 83.2507 119.972 83.2649C119.941 83.2792 119.908 83.2852 119.875 83.2825H119.85Z" fill="#D1D3D4"/>
<path d="M127.245 91.6015H127.215L120.41 90.5799C120.344 90.5683 120.284 90.5229 120.243 90.4535C120.202 90.3841 120.183 90.2961 120.19 90.2084C120.199 90.1209 120.233 90.0414 120.285 89.9868C120.338 89.9323 120.404 89.9071 120.47 89.9165L127.27 90.9447C127.303 90.9488 127.334 90.9616 127.363 90.9823C127.392 91.003 127.418 91.0313 127.438 91.0653C127.459 91.0993 127.474 91.1385 127.483 91.1805C127.492 91.2224 127.494 91.2664 127.49 91.3096C127.483 91.3894 127.454 91.4629 127.409 91.5166C127.364 91.5703 127.306 91.6005 127.245 91.6015Z" fill="#D1D3D4"/>
<path d="M113.885 89.5916H113.855L105.225 88.2648C105.192 88.26 105.16 88.2466 105.131 88.2256C105.102 88.2045 105.077 88.176 105.056 88.1418C105.036 88.1076 105.02 88.0684 105.011 88.0263C105.002 87.9842 104.999 87.9401 105.002 87.8966C105.006 87.853 105.016 87.8108 105.032 87.7724C105.048 87.734 105.069 87.7001 105.095 87.6727C105.121 87.6453 105.151 87.6249 105.182 87.6127C105.214 87.6004 105.247 87.5966 105.28 87.6014L113.915 88.895C113.981 88.9066 114.041 88.952 114.082 89.0214C114.123 89.0908 114.142 89.1787 114.135 89.2665C114.132 89.3528 114.105 89.4345 114.059 89.4949C114.012 89.5554 113.95 89.5899 113.885 89.5916Z" fill="#D1D3D4"/>
<path d="M126.085 98.229H126.055L120.38 97.3466C120.314 97.335 120.254 97.2897 120.213 97.2203C120.172 97.1509 120.153 97.0629 120.16 96.9751C120.17 96.8883 120.204 96.8098 120.256 96.7556C120.308 96.7014 120.374 96.6755 120.44 96.6832L126.11 97.539C126.176 97.5434 126.239 97.5826 126.283 97.6479C126.328 97.7132 126.351 97.7993 126.348 97.8873C126.344 97.9753 126.315 98.0579 126.265 98.117C126.216 98.1761 126.151 98.2068 126.085 98.2024V98.229Z" fill="#D1D3D4"/>
<path d="M114.355 96.4642H114.325L104.06 94.9185C103.994 94.9084 103.935 94.8645 103.893 94.7961C103.852 94.7278 103.833 94.6406 103.84 94.5536C103.849 94.4661 103.883 94.3866 103.935 94.3321C103.988 94.2775 104.054 94.2523 104.12 94.2617L114.38 95.8074C114.446 95.8074 114.51 95.8424 114.557 95.9046C114.604 95.9668 114.63 96.0511 114.63 96.1391C114.63 96.2271 114.604 96.3114 114.557 96.3736C114.51 96.4359 114.446 96.4708 114.38 96.4708L114.355 96.4642Z" fill="#D1D3D4"/>
<path d="M124.88 105.566L119.845 104.81C119.779 104.8 119.72 104.756 119.678 104.687C119.637 104.619 119.618 104.532 119.625 104.445C119.628 104.402 119.638 104.359 119.653 104.321C119.669 104.283 119.69 104.249 119.716 104.222C119.742 104.194 119.771 104.174 119.803 104.163C119.834 104.151 119.867 104.147 119.9 104.153L124.935 104.909C125.001 104.915 125.063 104.955 125.107 105.021C125.151 105.086 125.174 105.173 125.17 105.261C125.166 105.349 125.136 105.431 125.086 105.49C125.036 105.548 124.971 105.578 124.905 105.573L124.88 105.566Z" fill="#D1D3D4"/>
<path d="M116.705 104.339H116.675L102.86 102.256C102.794 102.246 102.735 102.202 102.693 102.134C102.652 102.065 102.633 101.978 102.64 101.891C102.643 101.848 102.653 101.805 102.668 101.767C102.684 101.729 102.705 101.695 102.731 101.668C102.756 101.64 102.786 101.62 102.818 101.609C102.849 101.597 102.882 101.594 102.915 101.599L116.73 103.675C116.796 103.68 116.859 103.719 116.903 103.784C116.948 103.85 116.971 103.936 116.967 104.024C116.964 104.112 116.935 104.194 116.885 104.253C116.836 104.313 116.771 104.343 116.705 104.339Z" fill="#D1D3D4"/>
<path d="M123.61 111.504H123.58L117.58 110.601C117.514 110.591 117.455 110.547 117.413 110.479C117.372 110.411 117.353 110.323 117.36 110.236C117.363 110.193 117.373 110.151 117.388 110.113C117.404 110.074 117.425 110.04 117.451 110.013C117.476 109.986 117.506 109.966 117.538 109.954C117.569 109.942 117.602 109.939 117.635 109.945L123.635 110.847C123.701 110.852 123.763 110.892 123.807 110.958C123.851 111.024 123.874 111.11 123.87 111.198C123.866 111.286 123.836 111.369 123.786 111.427C123.736 111.486 123.671 111.515 123.605 111.51L123.61 111.504Z" fill="#D1D3D4"/>
<path d="M114.895 110.197L101.615 108.206C101.549 108.197 101.488 108.153 101.446 108.083C101.405 108.014 101.385 107.926 101.392 107.838C101.4 107.75 101.433 107.67 101.485 107.614C101.537 107.559 101.604 107.533 101.67 107.543L114.95 109.533C115.016 109.538 115.078 109.578 115.122 109.644C115.166 109.71 115.189 109.797 115.185 109.885C115.181 109.973 115.151 110.055 115.101 110.114C115.051 110.172 114.986 110.202 114.92 110.197H114.895Z" fill="#D1D3D4"/>
<path d="M45.8383 67.0847L57.3162 99.8177C58.2667 102.528 60.6935 103.703 62.7365 102.442L100.595 79.0729C102.638 77.8118 103.523 74.592 102.573 71.8813L91.095 39.1484C90.1445 36.4377 87.7178 35.2626 85.6748 36.5237L47.8165 59.8931C45.7735 61.1542 44.8878 64.374 45.8383 67.0847Z" fill="white"/>
<path d="M61.025 103.317C60.1998 103.319 59.3915 103.007 58.6952 102.42C57.999 101.832 57.4438 100.992 57.095 100L45.595 67.2681C45.1114 65.8868 45.0609 64.3073 45.4547 62.8767C45.8485 61.4462 46.6543 60.2816 47.695 59.639L85.555 36.2674C86.596 35.6258 87.7865 35.5588 88.8647 36.0813C89.9429 36.6038 90.8207 37.6729 91.305 39.0537L102.78 71.7858C103.02 72.4692 103.157 73.2087 103.181 73.9621C103.206 74.7155 103.119 75.4679 102.924 76.1765C102.73 76.885 102.432 77.5357 102.048 78.0914C101.663 78.6471 101.2 79.0968 100.685 79.4149L62.825 102.786C62.261 103.134 61.6469 103.315 61.025 103.317ZM87.395 36.3537C86.839 36.3542 86.2896 36.5149 85.785 36.8247L47.925 60.1962C47.0052 60.7652 46.2932 61.7954 45.9454 63.0604C45.5976 64.3254 45.6424 65.7218 46.07 66.943L57.57 99.6817C57.9999 100.903 58.7772 101.847 59.7314 102.309C60.6857 102.77 61.7389 102.711 62.66 102.143L100.5 78.7714C101.42 78.2024 102.132 77.1723 102.48 75.9073C102.827 74.6423 102.783 73.2458 102.355 72.0246L90.855 39.2859C90.547 38.4123 90.0582 37.6729 89.4456 37.1537C88.8331 36.6346 88.1219 36.3571 87.395 36.3537Z" fill="#231F20"/>
<path d="M78.9511 52.193L81.8469 60.4515C82.5342 62.4114 84.2888 63.261 85.766 62.3492L90.1725 59.6291C91.6497 58.7173 92.29 56.3892 91.6028 54.4293L88.7069 46.1709C88.0197 44.2109 86.265 43.3613 84.7879 44.2731L80.3814 46.9932C78.9042 47.905 78.2638 50.2331 78.9511 52.193Z" fill="#68E1FD"/>
<path d="M51.829 64.6159C50.9202 65.1769 50.5262 66.6093 50.949 67.8151C51.3718 69.021 52.4514 69.5437 53.3602 68.9827L61.8422 63.7469C62.751 63.1859 63.145 61.7536 62.7222 60.5477C62.2993 59.3418 61.2198 58.8191 60.3109 59.3801L51.829 64.6159Z" fill="#D1D3D4"/>
<path d="M88.457 73.3753L89.269 75.691C89.4822 76.2989 90.0264 76.5625 90.4846 76.2796L96.8676 72.3395C97.3258 72.0567 97.5244 71.3346 97.3112 70.7267L96.4992 68.4109C96.2861 67.803 95.7418 67.5395 95.2837 67.8223L88.9006 71.7625C88.4425 72.0453 88.2438 72.7674 88.457 73.3753Z" fill="#D1D3D4"/>
<path d="M78.7145 79.3958L79.5265 81.7115C79.7396 82.3194 80.2839 82.583 80.7421 82.3001L87.1251 78.36C87.5832 78.0772 87.7819 77.3551 87.5687 76.7472L86.7567 74.4314C86.5435 73.8235 85.9993 73.56 85.5411 73.8428L79.1581 77.783C78.6999 78.0658 78.5013 78.7879 78.7145 79.3958Z" fill="#D1D3D4"/>
<path d="M68.9653 85.4063L69.7773 87.722C69.9905 88.3299 70.5347 88.5935 70.9929 88.3106L77.3759 84.3705C77.8341 84.0877 78.0327 83.3656 77.8195 82.7577L77.0075 80.4419C76.7944 79.834 76.2501 79.5705 75.7919 79.8533L69.4089 83.7935C68.9508 84.0763 68.7521 84.7984 68.9653 85.4063Z" fill="#D1D3D4"/>
<path d="M59.2228 91.42L60.0348 93.7357C60.248 94.3436 60.7922 94.6071 61.2504 94.3243L67.6334 90.3842C68.0916 90.1014 68.2902 89.3793 68.077 88.7714L67.265 86.4556C67.0519 85.8477 66.5076 85.5842 66.0494 85.867L59.6664 89.8072C59.2083 90.09 59.0096 90.8121 59.2228 91.42Z" fill="#D1D3D4"/>
<path d="M130.315 61.5231C130.273 61.5237 130.232 61.5099 130.195 61.4832C130.158 61.4565 130.127 61.4177 130.105 61.3705L123.4 47.4392C123.368 47.3654 123.359 47.2783 123.374 47.1958C123.39 47.1133 123.428 47.0417 123.482 46.9958C123.536 46.9499 123.601 46.9331 123.664 46.9489C123.727 46.9648 123.783 47.012 123.82 47.0809L130.525 61.0123C130.561 61.0862 130.573 61.1759 130.559 61.2617C130.545 61.3476 130.506 61.4225 130.45 61.47C130.41 61.5064 130.363 61.5251 130.315 61.5231Z" fill="white"/>
<path d="M110.04 57.4761C109.994 57.4761 109.948 57.4595 109.909 57.4279C109.869 57.3964 109.837 57.3511 109.815 57.297L106.39 48.5203C106.374 48.4821 106.365 48.4401 106.362 48.3969C106.359 48.3537 106.362 48.31 106.372 48.2686C106.382 48.2272 106.398 48.1888 106.419 48.1557C106.44 48.1225 106.466 48.0954 106.495 48.0758C106.524 48.055 106.556 48.0421 106.589 48.0379C106.622 48.0337 106.655 48.0382 106.687 48.0511C106.719 48.0641 106.748 48.0853 106.773 48.1134C106.799 48.1416 106.82 48.1761 106.835 48.2151L110.26 56.9919C110.29 57.0704 110.296 57.1615 110.277 57.2457C110.257 57.33 110.213 57.4008 110.155 57.443C110.118 57.4628 110.08 57.474 110.04 57.4761Z" fill="white"/>
<path d="M54.185 108.91L52.09 112.1C50.755 114.316 46.51 112.764 42.62 108.618C38.73 104.471 36.65 99.3367 38 97.1143L40.1 93.9233L54.185 108.91Z" fill="white"/>
<path d="M50.11 113.447C48.11 113.447 45.225 111.808 42.46 108.876C40.7051 107.08 39.2309 104.847 38.12 102.302C37.195 100 37.08 98.0894 37.79 96.9085L39.895 93.7043C39.9375 93.6399 39.9972 93.5997 40.0615 93.5923C40.1258 93.5849 40.1897 93.6108 40.24 93.6645L54.34 108.624C54.3671 108.651 54.3895 108.684 54.4059 108.723C54.4223 108.762 54.4322 108.805 54.435 108.85C54.4405 108.941 54.4189 109.031 54.375 109.102L52.275 112.293C52.0047 112.692 51.6689 113.004 51.2936 113.204C50.9183 113.404 50.5134 113.487 50.11 113.447ZM40.11 94.381L38.175 97.3464C37.61 98.2817 37.75 99.9999 38.56 101.99C39.6384 104.459 41.0702 106.625 42.775 108.365C46.49 112.346 50.665 113.931 51.895 111.901L53.825 108.956L40.11 94.381Z" fill="#231F20"/>
<path d="M54.1833 108.904C55.5194 106.691 53.4451 101.541 49.5503 97.4027C45.6555 93.2641 41.415 91.7035 40.079 93.917C38.7429 96.1304 40.8172 101.28 44.712 105.418C48.6068 109.557 52.8472 111.118 54.1833 108.904Z" fill="white"/>
<path d="M52.205 110.25C50.205 110.25 47.315 108.611 44.56 105.686C42.8023 103.891 41.3263 101.658 40.215 99.1113C39.29 96.8093 39.175 94.8987 39.89 93.7178C40.6 92.537 42.035 92.265 43.925 92.9615C46.0406 93.8429 48.0059 95.265 49.71 97.1476C53.775 101.466 55.825 106.72 54.38 109.089C54.1084 109.49 53.7711 109.803 53.3941 110.004C53.0171 110.206 52.6103 110.29 52.205 110.25ZM42.06 93.2534C41.7328 93.2124 41.4028 93.2698 41.0946 93.4214C40.7864 93.573 40.5079 93.8149 40.28 94.1291C39.705 95.0778 39.845 96.7827 40.66 98.7729C41.7369 101.242 43.167 103.407 44.87 105.148C48.585 109.129 52.765 110.714 53.99 108.684C55.215 106.654 53.115 101.592 49.395 97.6451C47.7449 95.8182 45.8406 94.4388 43.79 93.5851C43.2274 93.3705 42.6454 93.2589 42.06 93.2534Z" fill="#231F20"/>
<path d="M43.855 95.7411L44.77 96.8954H44.875C45.17 96.9684 45.45 97.0214 45.75 97.1209C46.5383 97.4008 47.2831 97.8635 47.95 98.4875C48.3669 98.8629 48.7451 99.309 49.075 99.8143C49.2823 100.088 49.4203 100.44 49.47 100.823C49.4802 100.958 49.4588 101.094 49.4087 101.213C49.3586 101.332 49.2823 101.427 49.19 101.486C49.045 101.619 48.885 101.738 48.725 101.871L50.445 104.04C50.74 103.762 50.61 103.291 50.205 102.713L51.26 102.475C51.5809 102.844 51.8427 103.295 52.03 103.801C52.1095 103.992 52.1439 104.209 52.1287 104.426C52.1136 104.642 52.0495 104.848 51.945 105.015C51.84 105.168 51.695 105.301 51.565 105.453L52.19 106.243L51.19 106.661L50.55 105.858C50.24 105.858 49.95 105.858 49.63 105.858C49.0131 105.78 48.4119 105.555 47.855 105.195C47.0995 104.752 46.4192 104.111 45.855 103.31C45.28 102.475 45.155 101.818 45.51 101.373C45.7471 101.103 46.0225 100.898 46.32 100.77L46.44 100.71L44.695 98.5207H44.645C44.6055 98.662 44.5786 98.8089 44.565 98.9585C44.6218 99.2582 44.7498 99.5257 44.93 99.7215L43.295 99.8541C43.165 99.6684 43.035 99.4893 42.92 99.3102C42.5 98.6468 42.34 98.0961 42.47 97.6649C42.5556 97.4566 42.6791 97.2801 42.8293 97.1515C42.9796 97.0228 43.1517 96.9462 43.33 96.9285C43.385 96.9285 43.385 96.8887 43.33 96.8158C43.015 96.431 42.705 96.0396 42.395 95.6482L43.855 95.7411ZM47.805 102.441C47.65 102.607 47.45 102.733 47.49 103.045C47.53 103.357 48.075 104.007 48.58 104.233C48.8284 104.35 49.0914 104.404 49.355 104.392L47.805 102.441ZM47.405 100.219C47.54 100.12 47.675 100.04 47.695 99.8608C47.73 99.5291 47.195 98.8988 46.645 98.6335C46.41 98.5141 46.185 98.4477 45.925 98.3482L47.405 100.219Z" fill="#D1D3D4"/>
<path d="M70.44 142.57L71.665 146.478C72.565 149.052 69.63 153.397 65.11 156.197C60.59 158.996 56.19 159.169 55.285 156.601L54.06 152.687L70.44 142.57Z" fill="white"/>
<path d="M58.565 158.757C56.82 158.757 55.53 158.094 55.065 156.767L53.835 152.846C53.8108 152.767 53.8102 152.678 53.8334 152.598C53.8566 152.518 53.9018 152.453 53.96 152.415L70.34 142.298C70.3707 142.28 70.4039 142.271 70.4375 142.271C70.4711 142.271 70.5043 142.28 70.535 142.298C70.5665 142.315 70.5951 142.341 70.6191 142.373C70.6432 142.404 70.6622 142.442 70.675 142.484L71.9 146.392C72.87 149.158 69.94 153.616 65.22 156.535C63.1429 157.884 60.8759 158.641 58.565 158.757ZM54.385 152.853L55.515 156.469C56.34 158.817 60.685 158.558 65.015 155.891C69.345 153.225 72.275 148.979 71.445 146.604L70.32 143.002L54.385 152.853Z" fill="#231F20"/>
<path d="M63.8808 152.288C68.4043 149.493 71.3399 145.143 70.4376 142.573C69.5354 140.002 65.1369 140.183 60.6134 142.978C56.09 145.773 53.1544 150.123 54.0567 152.694C54.9589 155.264 59.3574 155.083 63.8808 152.288Z" fill="white"/>
<path d="M57.325 154.837C55.525 154.837 54.29 154.134 53.825 152.847C52.825 150.074 55.78 145.609 60.5 142.697C65.22 139.784 69.68 139.671 70.655 142.451C71.63 145.231 68.7 149.689 63.98 152.608C61.9866 153.897 59.823 154.659 57.61 154.85L57.325 154.837ZM67.19 141.131C64.943 141.254 62.7397 141.994 60.72 143.307C56.405 145.96 53.46 150.219 54.285 152.594C54.675 153.696 55.895 154.279 57.605 154.213C59.7511 154.028 61.849 153.287 63.78 152.031C68.095 149.377 71.04 145.118 70.21 142.743C69.83 141.629 68.71 141.131 67.19 141.131Z" fill="#231F20"/>
<path d="M56.96 149.012L58.145 148.435L58.21 148.322C58.39 148.004 58.545 147.659 58.75 147.38C59.2906 146.574 59.9337 145.9 60.65 145.39C61.0903 145.062 61.5609 144.812 62.05 144.647C62.3279 144.527 62.6271 144.527 62.905 144.647C62.9963 144.697 63.0745 144.781 63.1296 144.89C63.1848 144.998 63.2145 145.126 63.215 145.257C63.215 145.489 63.25 145.735 63.265 145.98L65.495 144.899C65.435 144.421 65.065 144.368 64.495 144.594L64.8 143.267C65.1981 143.051 65.6248 142.942 66.055 142.948C66.2208 142.938 66.385 142.996 66.5247 143.115C66.6645 143.234 66.7729 143.408 66.835 143.612C66.8891 143.829 66.9325 144.051 66.965 144.275L67.775 143.884L67.615 145.257L66.79 145.668C66.65 146.033 66.53 146.385 66.37 146.756C66.0489 147.456 65.6357 148.074 65.15 148.581C64.5195 149.284 63.7856 149.806 62.995 150.113C62.175 150.432 61.68 150.286 61.535 149.669C61.4571 149.268 61.4401 148.851 61.485 148.441C61.485 148.382 61.485 148.322 61.485 148.269L59.235 149.377L59.195 149.423C59.2712 149.534 59.3588 149.63 59.455 149.708C59.6816 149.777 59.9189 149.744 60.13 149.616L59.495 151.606C59.31 151.679 59.135 151.752 58.965 151.805C58.33 152.017 57.885 151.964 57.65 151.612C57.5499 151.421 57.487 151.2 57.4669 150.968C57.4468 150.737 57.4702 150.502 57.535 150.286C57.535 150.219 57.535 150.206 57.455 150.246L56.25 150.836L56.96 149.012ZM63.24 147.287C63.285 147.546 63.28 147.838 63.505 147.95C63.7483 147.947 63.9885 147.876 64.2104 147.744C64.4324 147.612 64.6314 147.42 64.795 147.181C64.9846 146.936 65.1374 146.646 65.245 146.325L63.24 147.287ZM61.56 146.776C61.56 146.577 61.56 146.372 61.445 146.272C61.24 146.086 60.58 146.438 60.15 146.975C59.97 147.201 59.825 147.44 59.65 147.705L61.56 146.776Z" fill="#D1D3D4"/>
<path d="M58.465 118.157C56.685 122.091 58.68 130.808 58.68 130.808L61.315 133.356C62.2543 134.105 63.2956 134.602 64.3796 134.818C65.4636 135.034 66.569 134.964 67.6327 134.613C68.6964 134.262 69.6976 133.636 70.579 132.771C71.4605 131.907 72.205 130.821 72.77 129.574C73.335 128.328 73.7095 126.946 73.872 125.508C74.0346 124.07 73.982 122.603 73.7174 121.192C73.4527 119.781 72.9812 118.452 72.3296 117.283C71.6781 116.113 70.8593 115.126 69.92 114.376L67 112.472C67 112.472 60.245 114.23 58.465 118.157Z" fill="white"/>
<path d="M65.6 135.273C64.0457 135.269 62.5214 134.705 61.19 133.641L58.53 131.08C58.487 131.037 58.4555 130.976 58.44 130.908C58.355 130.543 56.44 121.998 58.25 117.985C60.07 114.004 66.66 112.22 66.94 112.147C66.9906 112.127 67.0444 112.127 67.095 112.147L70.025 114.051C71.638 115.335 72.8894 117.285 73.5873 119.602C74.2853 121.92 74.3913 124.477 73.8892 126.882C73.3871 129.287 72.3045 131.407 70.8073 132.918C69.3102 134.429 67.481 135.247 65.6 135.246V135.273ZM58.895 130.629L61.465 133.104C63.305 134.562 65.5057 134.993 67.5847 134.301C69.6636 133.61 71.4511 131.853 72.555 129.415C73.6588 126.974 73.9877 124.052 73.4693 121.289C72.9509 118.527 71.6277 116.15 69.79 114.681L66.955 112.843C66.19 113.056 60.28 114.834 58.68 118.35C57.08 121.892 58.68 129.614 58.895 130.609V130.629Z" fill="#231F20"/>
<path d="M63.8 133.488C68.4088 133.488 72.145 128.531 72.145 122.416C72.145 116.301 68.4088 111.344 63.8 111.344C59.1912 111.344 55.455 116.301 55.455 122.416C55.455 128.531 59.1912 133.488 63.8 133.488Z" fill="white"/>
<path d="M63.785 133.834C62.4615 133.829 61.1566 133.419 59.9722 132.635C58.7878 131.851 57.7557 130.716 56.9565 129.316C56.1573 127.916 55.6126 126.29 55.3647 124.565C55.1169 122.84 55.1726 121.063 55.5276 119.371C55.8826 117.679 56.5273 116.119 57.4113 114.812C58.2954 113.506 59.395 112.487 60.6244 111.837C61.8538 111.186 63.1798 110.922 64.499 111.063C65.8183 111.204 67.0951 111.748 68.23 112.651C69.8434 113.936 71.0946 115.887 71.7915 118.206C72.4883 120.525 72.5924 123.083 72.0878 125.488C71.5831 127.893 70.4975 130.012 68.9977 131.52C67.4978 133.027 65.6666 133.84 63.785 133.834ZM63.815 111.689C61.8565 111.685 59.9634 112.624 58.4865 114.33C57.0096 116.037 56.049 118.396 55.7829 120.97C55.5167 123.544 55.963 126.16 57.039 128.331C58.1151 130.502 59.7478 132.082 61.6347 132.778C63.5217 133.474 65.5348 133.238 67.3009 132.115C69.0671 130.993 70.4665 129.058 71.2399 126.671C72.0133 124.284 72.1081 121.605 71.5069 119.132C70.9056 116.659 69.649 114.559 67.97 113.222C66.7159 112.217 65.2799 111.683 63.815 111.676V111.689Z" fill="#231F20"/>
<path d="M59.12 117.341L60.16 118.177C60.23 118.23 60.265 118.224 60.315 118.144C60.7232 117.542 61.2391 117.086 61.815 116.817C62.416 116.536 63.0737 116.555 63.665 116.87C63.825 116.957 63.98 117.056 64.165 117.156L63.195 119.292C62.9509 119.101 62.6653 119.027 62.385 119.08C62.1696 119.154 61.9576 119.245 61.75 119.352V119.405L63.75 121.01L63.895 120.811C64.2435 120.311 64.6344 119.865 65.06 119.484C65.3734 119.185 65.7425 119.004 66.1275 118.962C66.5125 118.92 66.8988 119.018 67.245 119.245C67.9183 119.61 68.4569 120.31 68.745 121.196C68.9824 121.916 69.0419 122.717 68.915 123.484C68.84 123.962 68.72 124.433 68.615 124.924L69.395 125.548L68.505 127.538L67.705 126.874C67.44 127.206 67.205 127.538 66.95 127.83C66.4533 128.407 65.8245 128.746 65.165 128.792C64.5977 128.81 64.0391 128.605 63.56 128.201L64.51 126.098C64.7918 126.304 65.1168 126.381 65.4349 126.318C65.7529 126.254 66.0464 126.054 66.27 125.747L64.115 124.035C63.85 124.36 63.585 124.699 63.315 125.017C62.9986 125.42 62.6122 125.714 62.19 125.873C61.7564 126.016 61.2996 125.975 60.885 125.753C60.3679 125.514 59.911 125.089 59.565 124.526C59.317 124.118 59.1396 123.643 59.0455 123.134C58.9513 122.625 58.9426 122.094 59.02 121.581C59.08 121.163 59.205 120.758 59.295 120.353C59.295 120.307 59.295 120.26 59.335 120.207L58.255 119.345L59.12 117.341ZM67.16 123.75C67.2757 123.402 67.3138 123.018 67.27 122.642C67.2252 122.322 67.0936 122.036 66.9 121.836C66.7064 121.637 66.4645 121.539 66.22 121.561C65.874 121.687 65.5609 121.937 65.315 122.284L67.16 123.75ZM60.685 121.275C60.6494 121.6 60.6327 121.929 60.635 122.257C60.6461 122.435 60.6863 122.607 60.7527 122.762C60.8192 122.918 60.9103 123.052 61.0198 123.155C61.1293 123.259 61.2545 123.329 61.3866 123.362C61.5188 123.395 61.6547 123.389 61.785 123.345C62.0482 123.192 62.2836 122.966 62.475 122.682L60.685 121.275Z" fill="#D1D3D4"/>
</svg>
