<svg width="274" height="275" viewBox="0 0 274 275" fill="none" xmlns="http://www.w3.org/2000/svg">
<path fill-rule="evenodd" clip-rule="evenodd" d="M73.9864 77.1719C80.3169 71.629 88.7927 69.4548 96.5803 66.2925C119.11 57.1441 136.802 39.1227 157.802 26.8451C168.195 20.7692 180.571 16.0242 192.081 19.5251C200.091 21.9615 206.754 28.4749 209.392 36.4478C214.372 51.5001 205.361 67.1049 200.306 82.1318C190.658 110.808 195.553 142.621 206.178 170.947C208.501 177.141 211.108 183.297 212.193 189.825C214.715 204.999 208.466 220.829 197.876 231.951C187.287 243.073 172.807 249.865 157.901 253.451C139.632 257.846 120.299 257.71 102.093 253.059C92.8674 250.702 83.7954 247.125 76.3154 241.214C68.8353 235.303 63.0496 226.851 61.7038 217.392C59.6773 203.148 67.6513 189.451 69.0573 175.132C69.683 168.76 68.9953 162.339 68.2607 155.979C67.1707 146.543 65.9763 137.119 64.6777 127.709C63.4539 118.842 62.1345 109.88 63.022 100.972C63.9095 92.0639 67.265 83.0571 73.9864 77.1719Z" fill="#5B60FD"/>
<path d="M155.768 192.559C155.881 194.036 155.957 195.566 155.438 196.953C154.531 199.375 152.069 200.781 149.786 201.983C136.381 209.046 122.825 215.998 108.409 220.641C107.767 219.594 104.409 213.816 106.814 211.75C112.016 207.284 139.009 189.175 139.009 189.175C139.009 189.175 135.905 183.136 137.648 181.365C140.994 177.965 150.817 177.419 152.962 177.857C154.397 178.15 155.68 191.423 155.768 192.559Z" fill="white"/>
<path fill-rule="evenodd" clip-rule="evenodd" d="M114.325 209.994C114.325 209.994 114.809 211.06 116.334 211.06C117.859 211.06 120.721 205.166 122.268 202.034C123.831 198.869 123.739 198.833 126.496 192.152C129.252 185.471 123.805 175.453 123.805 175.453C123.805 175.453 114.896 174.262 113.382 175.453C111.008 177.32 112.523 189.24 112.523 189.24L114.325 209.994Z" fill="white"/>
<path d="M157.039 113.099C152.428 111.434 146.359 110.731 142.054 108.382C142.23 108.358 141.134 105.226 142.144 102.016C143.271 98.4365 185.763 119.352 188.162 121.71C188.415 121.959 194.319 128.81 192.047 129.272C190.667 129.552 189.785 128.604 184.763 125.835C179.742 123.065 180.575 127.839 179.742 127.95C179.02 128.046 178.738 126.838 178.748 127.012C172.661 120.833 165.185 116.041 157.039 113.099Z" fill="white"/>
<path fill-rule="evenodd" clip-rule="evenodd" d="M180.192 50.0961C181.765 52.5912 182.131 54.1588 182.531 57.0845C180.17 59.0115 153.022 76.3207 133.349 84.2417L133.716 84.2138C137.042 83.9465 139.505 83.3599 140.181 82.539C143.542 95.0821 143.466 108.535 139.963 121.039C139.471 122.798 141.516 124.097 143.231 124.768L143.319 124.802C155.471 129.435 167.008 135.688 177.532 143.346C171.491 146.255 165.957 150.222 161.256 155.014L160.757 155.528C159.092 157.249 157.426 159.031 155.265 160.027C152.887 161.123 149.675 160.947 148.106 158.846L150.956 164.134C144.68 167.843 137.608 170.184 130.365 170.954L129.984 170.993C129.207 171.07 128.358 171.111 127.716 170.665C127.256 170.345 126.984 169.828 126.74 169.319L117.152 149.119C115.405 145.428 113.698 141.668 113.037 137.642C111.603 128.909 114.866 119.951 113.545 111.2C112.132 101.833 105.368 94.3039 101.349 85.7311C99.8018 82.4303 97.5212 77.6103 99.4352 72.3697C101.349 67.1291 123.056 67.7675 139.963 63.2955C161.796 57.5207 179.913 49.653 180.192 50.0961Z" fill="white"/>
<ellipse cx="118.975" cy="52.4458" rx="12.9183" ry="15.6654" fill="white"/>
<path d="M136.561 101.41C136.13 103.28 133.875 104.471 132.084 103.796C131.846 103.706 131.739 103.434 131.661 103.191C130.636 99.9994 129.959 96.6952 129.646 93.3565C129.59 92.7521 129.547 92.1303 129.719 91.5483C130.094 90.2812 131.59 89.4753 132.85 89.8625C133.707 90.1263 134.369 90.8423 134.773 91.6466C135.176 92.4509 135.356 93.3463 135.532 94.2293C135.823 95.6868 136.113 97.1443 136.404 98.6018C136.588 99.5284 136.773 100.489 136.561 101.41Z" fill="white"/>
<path d="M128.101 181.792C127.818 181.622 125.616 176.406 126.602 175.808C130.733 173.303 163.008 161.271 166.788 159.044C170.568 156.818 165.991 154.185 166.234 152.469C166.618 149.755 174.942 147.752 174.96 146.375C180.379 149.915 185.527 153.228 189.242 158.54C190.626 160.52 192.04 164.403 190.696 166.411C189.9 167.599 187.862 168.196 186.502 168.627C175.585 172.09 125.956 185.244 128.101 181.792Z" fill="white"/>
<path d="M108.797 223.09C107.882 230.747 105.919 238.276 102.981 245.401C102.445 246.699 101.81 248.064 100.613 248.792C99.4151 249.52 97.5096 249.211 97.0774 247.875C93.7263 237.511 92.0664 226.6 92.1838 215.705C92.1886 215.263 92.2022 214.798 92.4256 214.417C92.7656 213.837 93.4803 213.619 94.1312 213.458C97.4627 212.635 100.856 212.064 104.273 211.75C104.651 211.931 103.552 221.374 108.797 223.09Z" fill="white"/>
<ellipse cx="194.723" cy="64.7167" rx="17.9013" ry="17.9667" fill="#FFB61D"/>
<path fill-rule="evenodd" clip-rule="evenodd" d="M183.216 48.9277C183.73 51.2055 184.545 53.4857 186.455 53.1362C188.938 52.682 183.869 51.783 217.428 48.6613C217.811 48.6256 217.138 47.8775 216.804 47.686C215.04 46.6758 213.18 45.8193 211.268 45.1331C208.165 44.0197 182.922 47.6238 183.216 48.9277Z" fill="white"/>
<path fill-rule="evenodd" clip-rule="evenodd" d="M178.748 127.012C172.661 120.833 165.185 116.041 157.039 113.099C152.428 111.434 147.576 110.338 143.271 107.99C143.64 107.938 143.976 107.687 144.13 107.347C156.027 111.448 168.346 115.805 177.331 124.639C178.003 125.3 178.693 126.069 178.748 127.012Z" fill="#00160A"/>
<path fill-rule="evenodd" clip-rule="evenodd" d="M143.214 94.4628C145.028 95.1364 146.44 96.562 147.925 97.8044C156.077 104.621 167.393 106.458 175.912 112.806C175.136 112.601 174.399 112.273 173.666 111.947C165.896 108.489 158.111 105.024 150.722 100.809C147.844 99.1678 144.922 97.3081 143.214 94.4628L143.214 94.4628Z" fill="#00160A"/>
<path fill-rule="evenodd" clip-rule="evenodd" d="M105.191 48.463C104.394 45.2896 103.703 41.9287 104.596 38.7811C105.488 35.6336 108.488 32.8474 111.713 33.3318C113.897 33.6599 116.034 32.6671 118.042 31.7341L118.125 31.6957C120.738 30.4821 123.502 29.3364 126.379 29.4456C129.257 29.5548 132.268 31.265 132.998 34.0603C133.312 35.2625 133.184 36.5308 133.055 37.7668L131.975 48.0564C131.545 52.1566 131.042 56.4569 128.673 59.825C126.304 63.1931 121.409 65.1525 117.957 62.9164C117.482 64.2539 118.537 65.7453 119.856 66.2582C121.175 66.771 122.65 66.5711 124.049 66.3577C140.542 63.8426 157.545 60.2258 170.834 50.1045C170.576 48.353 171.492 46.4866 173.034 45.6252L173.179 45.5435C174.198 44.9723 175.757 44.0975 176.821 44.3197C178.061 44.5784 178.933 45.8088 179.735 46.9415C179.935 47.2239 180.131 47.5002 180.327 47.754C182.019 49.9418 182.581 52.7757 183.094 55.4967C183.256 56.3558 183.18 57.5744 182.316 57.6897C187.081 57.7703 191.837 58.3074 196.5 59.2914L197.603 56.3519C194.738 51.819 186.784 52.2347 184.403 57.0417C183.676 56.1712 184.836 54.9982 185.841 54.4722C185.78 54.5035 185.785 54.4993 185.846 54.4657C184.324 51.7257 183.204 48.762 182.531 45.6988C183.141 47.0235 183.788 48.1069 184.435 49.1904C185.082 50.2739 185.729 51.3574 186.339 52.682C191.205 50.4229 196.306 49.9362 201.638 49.4274L201.775 49.4143C201.783 49.4136 201.79 49.4129 201.797 49.4122C201.795 49.413 201.793 49.4137 201.791 49.4145C199.695 50.2056 198.415 52.721 199.008 54.889C201.519 54.8361 204.01 54.0398 206.09 52.6252C204.774 51.9953 203.767 50.752 203.42 49.3314C205.915 50.5963 207.668 51.9808 206.716 53.0959C205.385 54.6542 200.352 55.7647 198.615 55.9791L197.634 59.5919C201.843 60.7677 205.827 62.748 209.31 65.3952C211.509 67.066 213.536 70.489 211.418 72.2606L224.711 72.453C225.585 72.4656 226.821 73.0424 226.393 73.8068L169.271 73.8366C168.485 73.837 167.419 72.9495 168.118 72.5868C171.313 72.7589 174.526 72.6168 177.695 72.163C176.423 69.3513 175.994 66.1625 176.477 63.113C177.207 58.4996 174.933 53.5499 170.964 51.1107C153.548 63.5656 131.276 66.3976 110.003 68.6003C107.421 68.8677 104.656 69.208 102.706 70.9291C100.672 72.7243 100.001 75.7008 100.359 78.3952C100.717 81.0896 101.957 83.5761 103.235 85.9728C103.982 87.3734 104.751 88.7758 105.523 90.1831L105.523 90.1832C110.333 98.9486 115.246 107.902 115.394 117.796C115.432 120.364 115.142 122.926 114.851 125.486C114.488 128.686 114.125 131.881 114.407 135.079C114.88 140.468 117.149 145.511 119.384 150.434L127.254 167.763C127.557 168.43 127.886 169.129 128.488 169.544C129.488 170.235 130.84 169.905 132.001 169.549L145.128 165.526C146.415 165.131 147.943 164.453 148.05 163.106C148.108 162.364 147.685 161.68 147.279 161.057L143.656 155.499L151.917 158.661C152.499 158.884 153.113 159.111 153.73 159.025C154.491 158.919 155.102 158.363 155.665 157.838C161.634 152.275 168.155 147.31 175.101 143.039C164.25 134.867 151.923 128.675 138.902 124.856C141.841 111.304 141.92 97.1339 139.131 83.5496L120.743 89.4172C120.654 91.6767 121.224 93.8855 121.792 96.0866L121.792 96.0869C121.942 96.668 122.092 97.2485 122.229 97.8292C122.888 100.61 123.246 103.647 122.045 106.238C120.844 108.83 117.574 110.622 115.04 109.317C118.055 110.308 121.273 107.626 122.075 104.546C122.877 101.465 121.969 98.2251 121.067 95.1723L119.165 88.7339C139.554 82.6599 158.803 72.7519 175.616 59.6771C165.514 69.5487 152.768 76.164 140.181 82.539C143.542 95.0821 143.466 108.535 139.963 121.039C139.462 122.829 141.587 124.142 143.319 124.802C155.471 129.435 167.008 135.688 177.532 143.346C171.491 146.255 165.957 150.222 161.256 155.014C161.018 155.256 160.781 155.502 160.544 155.748L160.542 155.75C158.948 157.401 157.333 159.074 155.265 160.027C152.887 161.123 149.675 160.947 148.106 158.846L150.956 164.134C144.57 167.908 137.359 170.266 129.984 170.993C129.207 171.07 128.358 171.111 127.716 170.665C127.225 170.324 126.948 169.758 126.691 169.217L117.46 149.77C115.609 145.87 113.737 141.905 113.037 137.642C112.312 133.227 112.881 128.754 113.45 124.28C114.007 119.904 114.564 115.527 113.911 111.2C112.982 105.047 109.745 99.6874 106.494 94.3039C104.796 91.4916 103.094 88.6728 101.715 85.7311C100.167 82.4302 99.0023 78.7686 99.5904 75.1687C100.179 71.5688 102.961 68.1304 106.583 67.8244C105.67 63.2665 106.031 58.4587 107.613 54.0894C107.664 58.7658 107.433 63.4452 106.921 68.0936L118.878 67.021L115.483 61.5898C119.784 64.7221 126.31 62.0266 129.025 57.4421C131.74 52.8576 131.663 47.1859 131.32 41.8639C127.823 44.0135 123.263 44.3104 119.519 42.6322C117.781 41.8531 115.664 42.9024 114.601 44.4873C113.538 46.0723 113.27 48.0453 113.03 49.9408C112.201 49.6246 112.006 48.7349 111.802 47.8089L111.802 47.8089C111.659 47.1588 111.512 46.4908 111.14 45.9908C109.81 44.2058 106.646 46.1375 106.726 48.3646C106.805 50.5917 108.698 52.2761 110.495 53.5851C107.888 54.5812 105.872 51.1781 105.191 48.463ZM177.769 46.1687C177.428 45.7706 177.025 45.3607 176.506 45.3006C175.934 45.2346 175.414 45.611 174.961 45.9675L173.283 47.2876C172.709 47.7386 172.119 48.209 171.778 48.8551C171.437 49.5012 171.412 50.376 171.919 50.9015C173.654 52.7015 175.416 54.5384 176.54 56.7748C177.663 59.0112 178.071 61.7497 177.012 64.0174C176.462 65.1927 177.171 66.6649 178.278 67.3349C179.386 68.0049 180.76 68.0427 182.047 67.9089C184.398 67.6642 186.665 66.9176 188.911 66.1757L193.56 64.6395C195.172 64.1071 196.306 62.3855 196.163 60.6887C196.371 60.3379 195.847 60.0182 195.447 59.9452C192.433 59.395 189.392 58.9882 186.339 58.7267C183.492 58.4827 180.342 58.4555 178.131 60.272C179.087 58.6075 180.708 57.3411 182.551 56.8202C182.016 52.9087 180.334 49.1623 177.769 46.1687ZM195.647 64.7467C197.174 65.2719 198.236 66.6725 198.967 68.1178C199.229 68.6361 199.462 69.1703 199.694 69.7043L199.694 69.7044C200.11 70.6593 200.526 71.6131 201.108 72.4728C203.551 72.5654 205.998 72.5478 208.439 72.42C209.088 72.3861 209.752 72.3408 210.348 72.0814C210.945 71.822 211.47 71.3039 211.56 70.6578C211.581 70.508 211.579 70.3549 211.576 70.2023V70.2022C211.573 69.9776 211.569 69.754 211.64 69.543C211.663 69.4758 211.692 69.4056 211.721 69.3345L211.721 69.3344C211.829 69.0772 211.941 68.8089 211.759 68.6282C207.978 64.8777 203.237 62.1108 198.12 60.6685C197.83 60.5868 197.487 60.5189 197.253 60.7095C197.121 60.8168 197.056 60.9838 196.996 61.1431L195.647 64.7467ZM179.454 72.3665L189.986 72.3994C190.659 72.4015 191.108 71.7252 191.428 71.1303L194.589 65.2585C192.772 65.6099 191.035 66.256 189.297 66.9027L189.297 66.9027C188.237 67.297 187.177 67.6915 186.098 68.0196C183.247 68.8858 180.05 69.2561 177.376 67.9412C177.416 69.1948 177.915 70.4285 178.756 71.3558C178.529 71.4436 178.401 71.7317 178.489 71.96C178.624 72.3081 179.082 72.3653 179.454 72.3665ZM191.598 72.3609C193.584 72.169 195.585 72.2332 197.579 72.2975L199.813 72.3697C199.172 70.2952 198.182 68.3298 196.898 66.5818C196.652 66.2478 196.378 65.9073 195.993 65.7557C195.608 65.604 195.087 65.722 194.93 66.1059C194.035 68.2973 192.917 70.3968 191.598 72.3609ZM197.108 54.7531C197.283 54.8412 197.481 54.9285 197.668 54.871C197.943 54.7866 198.037 54.4514 198.088 54.1675L198.632 51.1418C198.663 50.9738 198.689 50.7869 198.596 50.6439C198.45 50.4183 198.107 50.4471 197.865 50.5631C197.803 50.5927 197.742 50.6265 197.681 50.6603L197.681 50.6603C197.503 50.759 197.324 50.858 197.124 50.8548C195.676 50.832 194.224 51.1575 192.924 51.7964C194.163 52.982 195.578 53.982 197.108 54.7531ZM130.261 46.7854L127.919 47.858C127.731 47.9442 127.51 48.0304 127.326 47.9365C127.09 47.8166 127.074 47.4592 127.227 47.243C127.38 47.0268 127.639 46.9179 127.884 46.8195L128.905 46.4101C129.168 46.3048 129.444 46.1975 129.725 46.2332C130.005 46.2689 130.282 46.5024 130.261 46.7854ZM122.09 49.1209C122.44 49.0954 122.792 48.7467 122.66 48.4212L121.251 48.1245C120.067 47.875 118.678 47.6759 117.781 48.4907C117.49 48.755 117.298 49.2565 117.592 49.5182C118.52 48.6851 119.916 48.418 121.085 48.8501C121.152 48.8749 121.219 48.902 121.287 48.9291L121.287 48.9291C121.549 49.0347 121.813 49.1412 122.09 49.1209ZM126.067 50.0613L125.797 49.5896C125.676 49.5255 125.508 49.5742 125.44 49.6933C124.951 51.1617 125.179 52.852 126.038 54.1375C126.25 54.4541 125.883 54.901 125.503 54.8992C125.123 54.8973 124.805 54.6188 124.549 54.3377C124.251 54.8356 124.765 55.5348 125.343 55.5282C125.922 55.5217 126.396 54.9935 126.516 54.4251C126.635 53.8568 126.477 53.267 126.267 52.7253C126.215 52.5907 126.16 52.4569 126.104 52.3231L126.104 52.3229C125.937 51.9185 125.769 51.5138 125.693 51.0841C125.624 50.6945 125.695 50.1948 126.067 50.0613ZM116.216 56.4565C116.052 55.6841 116.014 54.651 116.741 54.3487C117.282 54.1238 117.909 54.5242 118.182 55.0439C118.39 55.4393 118.456 55.8859 118.523 56.3315C118.543 56.4716 118.564 56.6116 118.589 56.7498C118.694 57.3278 118.92 57.9411 119.428 58.2337C120.979 59.1278 122.768 59.6028 124.557 59.5959C122.825 60.3605 120.851 59.4601 119.175 58.5765L115.36 56.5646C115.113 56.434 114.823 56.1655 114.975 55.9296C115.412 56.0399 115.833 56.2183 116.216 56.4565ZM117.356 55.9417C117.442 56.3237 117.465 56.7199 117.424 57.1093C117.745 57.1585 118.05 57.3108 118.283 57.5383C118.2 56.6782 117.981 55.8313 117.637 55.0395C117.447 54.6047 116.71 54.7716 116.541 55.2147C116.372 55.6578 116.583 56.1507 116.823 56.5592C116.835 56.2656 117.068 55.996 117.356 55.9417ZM119.91 129.734C126.158 128.884 132.577 127.979 138.069 124.872C138.307 124.738 138.566 124.416 138.355 124.242C132.267 127.206 125.579 128.922 118.82 129.252C118.826 129.705 119.462 129.795 119.91 129.734ZM125.631 192.873C125.979 192.114 126.252 191.321 126.444 190.508L121.612 189.426C121.711 189.025 122.256 188.977 122.664 189.032C123.998 189.211 125.311 189.542 126.57 190.017L127.469 186.26C127.66 186.156 127.896 186.139 128.101 186.214C127.485 189.668 126.505 193.056 125.183 196.305C124.991 196.776 124.68 197.324 124.173 197.32C124.137 197.019 124.185 196.709 124.311 196.435C123.094 196.506 121.738 196.531 120.825 195.721C122.023 195.566 123.247 195.619 124.426 195.877C124.906 195.137 125.275 194.325 125.516 193.477C124.115 193.409 122.727 193.097 121.43 192.56C121.563 192.174 122.103 192.178 122.503 192.257L125.631 192.873ZM99.2072 247.061C96.6147 237.265 95.0244 227.202 94.4694 217.082C94.4212 216.202 94.4144 215.222 95.0022 214.568C95.4077 224.672 96.832 234.734 99.2463 244.551C99.4517 245.386 99.6507 246.325 99.2072 247.061ZM102.873 229.449C104.265 229.134 105.734 229.166 107.111 229.543L107.734 227.12C106.039 226.981 104.362 226.627 102.755 226.068C104.469 225.748 106.28 225.975 107.863 226.708C107.593 225.445 107.949 224.063 108.797 223.09C107.882 230.747 105.919 238.276 102.981 245.401C102.445 246.699 101.81 248.064 100.613 248.792C99.4151 249.52 97.5095 249.211 97.0774 247.875C93.7263 237.511 92.0664 226.6 92.1838 215.705C92.1886 215.263 92.2022 214.798 92.4256 214.417C92.7656 213.837 93.4803 213.619 94.1312 213.458C97.4627 212.635 100.856 212.064 104.273 211.75C104.651 211.931 104.154 212.451 103.742 212.529L92.673 214.619C92.7898 225.728 94.4754 236.82 97.6636 247.459C97.7876 247.873 97.9332 248.314 98.2789 248.572C99.171 249.236 100.319 248.171 100.884 247.211C103.471 242.818 105.298 237.975 106.26 232.964C105.084 233.485 103.662 233.402 102.554 232.75C103.81 232.415 105.149 232.398 106.412 232.702L107.041 230.442L102.873 229.449ZM166.788 156.563C166.791 156.231 166.646 155.916 166.473 155.634C166.025 154.904 165.364 154.308 164.593 153.94C164.256 154.461 164.714 155.112 165.091 155.604C165.469 156.097 165.724 156.931 165.185 157.237L156.174 162.349C155.876 162.518 155.537 162.887 155.767 163.141C157.838 162.88 159.688 161.759 161.468 160.664L165.434 158.222C166.07 157.83 166.782 157.311 166.788 156.563ZM132.663 128.645C132.904 128.576 132.624 128.226 132.374 128.199C132.125 128.173 131.775 127.943 131.965 127.778L133.017 127.82C133.476 128.012 133.324 128.786 132.873 128.995C132.421 129.205 131.894 129.042 131.424 128.877C131.367 129.46 130.736 129.915 130.167 129.783C129.598 129.651 129.229 128.965 129.432 128.415C129.762 128.131 130.256 128.053 130.656 128.224C130.695 128.395 130.52 128.448 130.33 128.505C130.22 128.538 130.105 128.572 130.023 128.632C129.693 128.873 130.172 129.434 130.554 129.291C130.937 129.149 131.089 128.697 131.194 128.301C131.628 128.573 132.153 128.696 132.663 128.645ZM121.868 50.4647C122.499 50.3671 122.775 51.34 122.432 51.8805C122.14 52.3413 121.517 52.6314 121.031 52.3864C120.891 51.8581 121.007 51.2674 121.337 50.8324C121.471 50.6562 121.65 50.4984 121.868 50.4647ZM128.832 51.273C129.45 50.9309 129.227 49.9972 128.922 49.3584C128.066 49.467 127.518 50.5769 127.949 51.3261C128.245 51.3803 128.568 51.4189 128.832 51.273ZM126.602 175.808L130.612 173.976C130.939 173.005 130.557 171.838 129.72 171.251C129.696 171.938 129.845 172.631 130.149 173.248C128.42 174.087 126.64 174.824 124.824 175.453C125.831 177.89 126.57 180.439 127.021 183.038C129.446 183.118 131.878 182.932 134.262 182.483L137.063 188.579L125.663 197.087C121.855 199.93 120.033 204.659 118.397 209.131C119.847 207.794 120.628 205.92 121.406 204.055C122.261 202.003 123.112 199.961 124.844 198.657L136.445 189.922C136.865 189.606 137.312 189.25 137.439 188.739C137.559 188.26 137.366 187.764 137.176 187.308L135.077 182.253C141.153 181.324 147.146 179.851 152.962 177.857L154.479 192.099C154.677 193.952 154.838 195.97 153.836 197.539C153.116 198.667 151.908 199.37 150.741 200.021C137.186 207.596 123.047 214.119 108.494 219.514L105.788 212.473C108.382 210.546 111.078 208.756 113.859 207.113C113.84 208.099 113.835 209.14 114.325 209.994C114.815 210.848 115.99 211.388 116.813 210.851C117.732 210.25 117.607 208.888 117.391 207.809C115.337 197.534 115.008 187.001 114.686 176.527C113.87 187.536 114.672 198.664 117.058 209.44C117.22 210.171 116.094 210.608 115.489 210.171C114.884 209.734 114.731 208.91 114.631 208.168C113.271 198.148 112.664 188.025 112.816 177.913C112.826 177.23 112.888 176.447 113.434 176.039C113.794 175.771 114.273 175.743 114.72 175.725L124.184 175.354C120.921 174.878 117.599 174.805 114.318 175.138C113.786 175.191 113.218 175.272 112.82 175.631C112.301 176.101 112.239 176.883 112.217 177.585C111.946 186.468 112.434 195.375 113.674 204.175C113.9 205.776 112.685 207.243 111.32 208.103C110.746 208.465 110.134 208.762 109.523 209.06C108.679 209.469 107.836 209.879 107.099 210.455C105.827 211.448 104.912 213.22 105.601 214.682L108.409 220.641C122.825 215.998 136.38 209.046 149.786 201.983C152.069 200.781 154.531 199.375 155.438 196.953C155.957 195.566 155.881 194.036 155.768 192.559C155.383 187.55 154.646 182.569 153.564 177.665C164.603 174.615 175.585 171.357 186.502 167.894C187.862 167.462 189.325 166.953 190.121 165.764C191.465 163.757 190.214 161.063 188.83 159.084C185.115 153.772 180.379 149.182 174.96 145.641C174.942 147.018 176.193 148.021 177.29 148.849C181.123 151.746 184.508 155.24 187.284 159.169C188.463 160.838 189.512 163.206 188.208 164.779C187.623 165.484 186.707 165.802 185.838 166.087C166.716 172.356 147.306 177.736 127.689 182.205L126.602 175.808ZM214.567 127.541C214.993 128.372 215.657 129.383 216.568 129.184C214.641 125.201 211.922 121.606 208.617 118.673L218.111 110.083L217.241 124.815C217.178 125.868 217.126 126.976 217.589 127.924C218.477 127.629 218.632 126.458 218.639 125.52C218.754 108.562 221.632 91.6258 227.124 75.588C226.55 74.7727 225.401 74.6797 224.407 74.675C219.875 74.6533 215.346 74.8607 210.817 75.0681H210.817H210.817C205.759 75.2997 200.701 75.5313 195.64 75.4437C193.222 75.4018 190.798 75.2875 188.374 75.1731C181.868 74.8662 175.361 74.5592 168.962 75.6536C168.865 75.6702 168.765 75.6884 168.684 75.7444C168.439 75.9141 168.512 76.2899 168.611 76.5718C172.561 87.7973 175.285 99.4571 176.718 111.275C176.925 112.988 178.434 114.198 179.824 115.214L185.351 119.252C186.137 119.826 187.489 120.267 187.862 119.367C188.128 118.726 188.934 118.452 189.614 118.583C190.294 118.714 190.87 119.152 191.4 119.599C194.499 122.207 196.981 125.547 198.588 129.272L207.689 119.371C210.555 121.528 212.926 124.345 214.567 127.541ZM193.919 82.993C198.636 83.0925 203.37 81.433 206.999 78.4076C207.544 77.9538 208.067 77.4677 208.498 76.905C208.876 76.4136 209.524 75.8051 209.985 76.2186C209.543 78.0386 209.475 79.9489 209.784 81.7961C210.019 83.1974 208.777 84.3638 207.659 85.2349L204.273 87.8714C203.428 88.5294 202.559 89.2 201.54 89.5264C200.521 89.8529 199.304 89.7705 198.516 89.0437L192.642 83.6211C192.199 83.2118 191.744 82.7862 191.5 82.2334C191.302 81.7861 191.259 81.288 191.226 80.8C191.125 79.2674 191.114 77.7289 191.193 76.1951C192.992 76.5353 194.838 76.481 196.668 76.4254L201.387 76.2821C201.706 76.2724 202.03 76.2635 202.336 76.3532C202.62 76.4363 202.872 76.5997 203.119 76.761L205.953 78.6069C205.215 78.5532 204.648 79.0715 204.075 79.5948C203.822 79.8257 203.569 80.0575 203.299 80.2416C202.741 80.6223 202.076 80.8069 201.42 80.9692C200.377 81.2275 199.324 81.4451 198.264 81.6213C196.242 81.9574 194.156 82.1404 192.152 81.7064C191.938 82.5246 193.076 82.9752 193.919 82.993ZM187.454 101.035C187.762 100.797 188.09 100.55 188.476 100.503C188.868 100.456 189.252 100.624 189.605 100.803C193.377 102.714 196.098 106.167 198.692 109.514C196.006 110.973 193.575 112.904 191.545 115.193L191.496 115.249C191.167 115.62 190.828 116.003 190.377 116.203C189.903 116.412 189.262 116.348 188.977 115.914C186.632 112.343 183.678 109.175 180.281 106.592L187.454 101.035ZM190.094 99.1452C192.861 96.9668 195.72 94.9071 198.662 92.9736C198.962 92.7758 199.28 92.5737 199.638 92.5419C200.029 92.5074 200.405 92.6806 200.753 92.8626C204.06 94.5938 206.715 97.5456 208.094 101.024C205.059 102.852 202.335 105.2 200.076 107.936C199.82 108.247 199.326 108.571 199.082 108.249C196.497 104.84 193.467 101.771 190.094 99.1452ZM212.195 104.413C213.95 105.983 215.842 107.399 217.842 108.64C214.032 111.104 210.657 114.241 207.918 117.864C205.969 114.858 203.583 112.139 200.857 109.82C200.722 109.705 200.577 109.575 200.552 109.399C200.526 109.203 200.659 109.024 200.785 108.872C203.424 105.705 206.677 103.054 210.307 101.112C210.202 102.425 211.215 103.537 212.195 104.413ZM178.745 76.2361C179.472 76.2084 180.301 76.2313 180.782 76.7792C183.318 79.6665 186.788 81.7137 190.535 82.533C188.025 85.0534 185.182 87.2385 182.103 89.0126C181.604 89.3001 180.997 88.9182 180.555 88.5479C176.545 85.1845 172.976 81.2927 169.968 77.0038C172.878 76.6041 175.809 76.3478 178.745 76.2361ZM191.346 118.039C193.02 115.03 195.759 112.632 198.957 111.378C200.028 110.959 201.148 111.802 201.962 112.617C203.725 114.38 205.339 116.293 206.782 118.328C206.863 118.441 206.945 118.563 206.953 118.701C206.971 119.008 206.641 119.2 206.369 119.341C204.752 120.176 203.667 121.66 202.573 123.154C201.73 124.307 200.882 125.467 199.781 126.34C199.671 126.427 199.551 126.514 199.412 126.527C199.179 126.549 198.984 126.361 198.825 126.188L191.346 118.039ZM210.575 84.7311C213.142 87.5092 216.138 89.8873 219.423 91.7545C216.093 93.8878 213.042 96.4601 210.375 99.3845C209.99 99.8058 209.328 99.3196 208.976 98.8702C206.678 95.9322 203.928 93.3509 200.854 91.246C204.361 89.8959 207.472 87.5271 209.712 84.5011C209.916 84.2253 210.342 84.4791 210.575 84.7311ZM199.61 91.328C195.716 92.7757 192.207 95.2506 189.53 98.4364C187.478 95.3387 184.573 92.9272 181.712 90.5636C185.156 88.808 188.357 86.5701 191.191 83.9349C193.805 86.6088 196.622 89.0826 199.61 91.328ZM219.43 77.8602C220.63 77.0162 221.89 76.1474 223.342 75.9484C224.123 75.8413 224.916 75.9361 225.698 76.0356C223.831 81.0869 222.316 86.2694 221.169 91.5325C217.718 89.4235 214.496 86.9348 211.582 84.1252C211.499 84.0451 211.412 83.9585 211.385 83.8462C211.326 83.6067 211.554 83.4018 211.755 83.2603L219.43 77.8602ZM179.916 105.687C179.326 104.837 178.528 104.133 177.612 103.653L177.551 103.621C177.349 103.517 177.142 103.41 177.006 103.229C176.89 103.075 176.839 102.882 176.789 102.695C176.37 101.091 175.947 99.4277 176.227 97.794C176.598 95.632 178.131 93.8798 179.639 92.2915C179.825 92.0959 180.027 91.8916 180.29 91.8328C180.569 91.7702 180.855 91.8858 181.114 92.0084C184.223 93.4805 186.531 96.2307 188.499 99.0599C185.189 100.582 182.231 102.867 179.916 105.687ZM211.264 101.277C211.449 99.8629 212.411 98.6826 213.425 97.6835C215.545 95.5934 218.07 93.919 220.818 92.7817L218.472 107.717C215.637 106.138 213.156 103.921 211.264 101.277ZM179.111 106.333C179.169 106.579 178.962 106.8 178.773 106.968L177.862 107.777C177.897 107.999 178.216 108.03 178.416 107.931C178.476 107.901 178.534 107.864 178.592 107.828L178.593 107.828C178.728 107.743 178.863 107.658 179.019 107.659C179.164 107.66 179.296 107.737 179.42 107.813C183.022 110.015 186.076 113.111 188.235 116.746C188.371 116.975 188.507 117.22 188.504 117.487C188.5 117.87 188.213 118.183 187.944 118.455C187.338 119.07 186.346 119.706 185.717 119.114C183.679 117.195 181.404 115.53 178.959 114.169C178.43 113.874 178.29 113.188 178.205 112.586L177.083 104.614C177.742 105.009 178.353 105.483 178.9 106.023C178.99 106.112 179.082 106.209 179.111 106.333ZM172.231 81.943C174.856 84.7371 177.574 87.4439 180.377 90.0574C178.487 91.8719 176.536 93.7752 175.627 96.2372L171.775 81.7771C171.942 81.757 172.116 81.8205 172.231 81.943ZM210.704 80.6899C210.581 79.1339 210.487 77.4517 211.324 76.1365L220.416 76.3664L210.893 83.0676L210.704 80.6899ZM190.281 81.7741L188.495 80.9836L188.538 80.4987C188.27 80.7398 187.961 80.5187 187.632 80.2835C187.339 80.0737 187.03 79.8528 186.72 79.9386C186.646 79.9591 186.563 79.9913 186.479 80.0239C186.216 80.126 185.942 80.2319 185.911 79.9927C185.899 79.8957 185.966 79.8084 186.028 79.7337L188.287 77.053C188.553 76.7375 188.841 76.4069 189.234 76.2863C189.628 76.1656 190.147 76.3643 190.208 76.7728C190.457 78.4264 190.481 80.1139 190.281 81.7741ZM186.905 76.4531C187.063 76.2755 187.393 76.3074 187.514 76.5121C187.099 77.5798 186.353 78.5154 185.406 79.1566C185.135 79.3405 184.651 79.4257 184.579 79.1049C184.493 78.7231 184.049 78.6429 183.637 78.5685L183.637 78.5685C183.55 78.5527 183.464 78.5373 183.384 78.5192C182.479 78.3167 181.843 77.3007 182.053 76.3946C183.011 75.9249 184.122 75.9271 185.188 75.9389C185.804 75.9457 186.5 75.9871 186.905 76.4531ZM207.714 76.558C207.377 76.7749 207.141 77.1433 207.084 77.5411C205.953 77.5515 204.827 77.0612 204.062 76.2256C204.855 76.0718 205.703 76.2238 206.394 76.6434C206.698 76.247 207.361 76.2042 207.714 76.558ZM217.453 48.8521C216.483 47.148 211.102 44.5425 207.194 43.7408C198.953 42.0501 190.27 42.5815 182.295 45.2647C188.873 42.1342 196.79 41.7233 204.306 42.4715C211.04 43.1419 220.308 48.9441 218.024 49.4599C216.112 49.8919 208.252 49.4599 204.062 48.4456C206.298 47.7856 210.953 48.3283 214.143 48.7002C216.163 48.9357 217.595 49.1026 217.453 48.8521Z" fill="#00160A"/>
<path fill-rule="evenodd" clip-rule="evenodd" d="M100.309 226.421C100.566 226.968 100.673 227.584 100.618 228.186C100.028 227.746 99.4872 227.242 99.0068 226.685C98.5389 227.077 97.9639 227.339 97.3617 227.435C97.3007 226.814 97.6703 226.174 98.2375 225.918C97.5116 225.672 96.6232 225.158 96.7937 224.408C97.4936 224.415 98.1921 224.541 98.8508 224.779C98.8444 224.127 99.1764 223.48 99.7095 223.107C99.8629 223.799 100.016 224.49 100.17 225.181C100.573 225.355 100.996 225.481 101.428 225.556C101.194 225.982 100.779 226.303 100.309 226.421L100.309 226.421Z" fill="#FFB61D"/>
<path fill-rule="evenodd" clip-rule="evenodd" d="M119.349 190.124C118.699 189.946 118.113 189.546 117.709 189.006C117.28 189.33 116.746 189.512 116.209 189.518C116.366 189.101 116.607 188.716 116.913 188.394C116.441 187.972 116.006 187.508 115.616 187.008C116.268 186.531 117.369 187.642 117.9 187.032C118.064 186.843 118.071 186.569 118.157 186.334C118.244 186.099 118.519 185.881 118.725 186.022C118.974 186.466 119.077 186.99 119.015 187.495C119.378 187.61 119.74 187.726 120.102 187.841C120.089 188.265 119.607 188.601 119.207 188.466C119.254 189.019 119.301 189.571 119.349 190.124H119.349Z" fill="#FFB61D"/>
<path fill-rule="evenodd" clip-rule="evenodd" d="M184.172 121.016C184.535 120.698 185.097 120.947 185.494 121.221C188.17 123.066 190.218 125.671 192.223 128.234C192.42 128.486 192.628 128.778 192.58 129.095C192.532 129.411 192.055 129.62 191.89 129.346C190.153 126.453 187.832 123.916 185.108 121.933C184.751 121.674 184.374 121.408 184.172 121.016L184.172 121.016Z" fill="#00160A"/>
<path fill-rule="evenodd" clip-rule="evenodd" d="M117.356 55.9417C117.442 56.3237 117.465 56.7199 117.424 57.1093C117.745 57.1585 118.05 57.3108 118.283 57.5383C118.2 56.6782 117.981 55.8313 117.637 55.0395C117.447 54.6047 116.71 54.7717 116.541 55.2147C116.372 55.6578 116.583 56.1507 116.823 56.5593C116.835 56.2656 117.068 55.996 117.356 55.9417Z" fill="#FFB61D"/>
<path fill-rule="evenodd" clip-rule="evenodd" d="M189.998 128.323C187.565 126.938 185.024 125.742 182.407 124.752C181.831 124.534 181.115 124.802 180.822 125.345C180.458 125.079 180.673 124.436 181.088 124.261C181.504 124.086 181.978 124.224 182.404 124.368C184.681 125.141 186.9 126.086 189.035 127.194C189.5 127.436 190.029 127.798 189.998 128.323H189.998Z" fill="#00160A"/>
<path fill-rule="evenodd" clip-rule="evenodd" d="M179.273 120.585C180.05 122.749 180.341 125.087 180.12 127.377C180.096 127.628 179.993 127.949 179.742 127.95C179.451 127.952 179.38 127.547 179.4 127.255C179.565 124.855 179.25 122.423 178.48 120.144C178.686 119.825 179.145 120.228 179.273 120.585H179.273Z" fill="#00160A"/>
<path fill-rule="evenodd" clip-rule="evenodd" d="M191.293 125.835C190.04 124.363 188.788 122.892 187.535 121.42C187.385 121.244 187.23 120.989 187.366 120.801C189.015 122.17 190.365 123.899 191.293 125.835Z" fill="#00160A"/>
<path fill-rule="evenodd" clip-rule="evenodd" d="M51.0589 127.425C50.8569 127.303 50.745 127.046 50.792 126.814C50.9234 126.677 51.1716 126.681 51.2989 126.822C51.4206 127.048 51.306 127.369 51.0685 127.467L51.0589 127.425Z" fill="#00160A"/>
<path fill-rule="evenodd" clip-rule="evenodd" d="M184.778 11.4862C184.629 11.5088 184.481 11.5314 184.332 11.554C184.251 11.4183 184.219 11.2531 184.245 11.0968C184.374 11.0128 184.535 10.9813 184.686 11.0109C184.77 11.1385 184.8 11.3011 184.767 11.4506L184.778 11.4862Z" fill="#00160A"/>
<path fill-rule="evenodd" clip-rule="evenodd" d="M136.561 101.41C136.13 103.28 133.875 104.471 132.084 103.796C131.846 103.706 131.739 103.434 131.661 103.191C130.636 99.9994 129.959 96.6952 129.646 93.3565C129.59 92.7521 129.547 92.1303 129.719 91.5483C130.094 90.2812 131.59 89.4753 132.85 89.8625C133.707 90.1263 134.369 90.8423 134.773 91.6466C135.176 92.4509 135.356 93.3463 135.532 94.2293C135.823 95.6868 136.113 97.1443 136.404 98.6018C136.588 99.5284 136.773 100.489 136.561 101.41ZM132.529 103.171C132.81 103.416 133.22 103.45 133.586 103.385C135.155 103.102 136.015 101.29 135.964 99.6914C135.913 98.0931 135.228 96.592 134.88 95.0315C134.638 93.9448 134.546 92.7884 133.967 91.8381C133.389 90.8877 132.089 90.2457 131.15 90.8391C130.202 91.4382 130.212 92.8069 130.362 93.9208C130.746 96.7509 131.324 99.5545 132.091 102.305C132.179 102.622 132.281 102.956 132.529 103.171Z" fill="#FFB61D"/>
<path fill-rule="evenodd" clip-rule="evenodd" d="M134.652 101.573C134.321 101.786 133.856 101.643 133.586 101.356C133.316 101.069 133.195 100.676 133.088 100.296C132.455 98.0422 132.015 95.7338 131.777 93.4047C131.744 93.0852 131.717 92.7502 131.841 92.4541C131.965 92.158 132.29 91.9207 132.598 92.0087C132.898 92.0944 133.045 92.4261 133.149 92.7212C134.013 95.1603 134.627 97.6882 134.979 100.252C135.045 100.728 135.055 101.313 134.652 101.573ZM132.289 92.432C132.35 95.2342 132.871 98.0258 133.826 100.66C133.935 100.961 134.239 101.325 134.494 101.133C134.312 98.1278 133.56 95.159 132.289 92.432Z" fill="#FFB61D"/>
<path fill-rule="evenodd" clip-rule="evenodd" d="M197.603 56.3519L196.5 59.2914C196.252 59.239 195.96 59.175 195.631 59.1029C192.654 58.4509 186.642 57.1341 182.551 57.7123C178.596 58.2712 176.817 60.966 176.477 63.1131C175.994 66.1625 176.423 69.3513 177.695 72.163C177.218 72.2314 177.749 72.2828 178.981 72.3206C179.134 72.3561 179.301 72.366 179.454 72.3665L181.814 72.3739C186.608 72.4305 194.549 72.4168 201.047 72.3821C201.067 72.4124 201.088 72.4427 201.108 72.4728C203.551 72.5654 205.998 72.5478 208.439 72.4201C208.804 72.401 209.173 72.3783 209.533 72.3161C211.428 72.2938 212.271 72.273 211.418 72.2606C213.536 70.4891 211.509 67.066 209.31 65.3952C205.827 62.748 201.843 60.7677 197.634 59.5919L198.615 55.9791C201.594 55.6112 204.497 54.6289 207.09 53.1109C207.852 54.8548 209.308 52.3158 203.42 49.3314C203.767 50.752 204.774 51.9953 206.09 52.6253C204.01 54.0398 201.519 54.8362 199.008 54.889C198.415 52.7189 199.697 50.2007 201.797 49.4122C198.232 49.4122 190.511 51.5544 186.516 53.681C184.363 54.827 184.148 56.7362 184.403 57.0417C186.784 52.2347 194.738 51.819 197.603 56.3519ZM209.533 72.3161C209.813 72.2676 210.087 72.195 210.348 72.0814C210.945 71.822 211.47 71.3039 211.56 70.6579C211.581 70.508 211.579 70.3549 211.576 70.2023V70.2023C211.573 69.9777 211.569 69.7541 211.64 69.5431C211.663 69.4758 211.692 69.4055 211.722 69.3344C211.829 69.0772 211.941 68.8089 211.759 68.6282C207.978 64.8777 203.237 62.1108 198.12 60.6685C197.83 60.5868 197.487 60.5189 197.253 60.7096C197.121 60.8168 197.056 60.9839 196.996 61.1432L195.647 64.7467C197.174 65.2719 198.236 66.6726 198.967 68.1178C199.229 68.6362 199.462 69.1705 199.694 69.7045C200.096 70.6258 200.497 71.5462 201.047 72.3821C204.522 72.3635 207.584 72.339 209.533 72.3161ZM181.814 72.3739L189.986 72.3994C190.659 72.4016 191.108 71.7252 191.428 71.1303L194.589 65.2586C192.772 65.6099 191.036 66.256 189.297 66.9027L189.297 66.9027C188.237 67.297 187.177 67.6915 186.098 68.0196C183.247 68.8858 180.05 69.2561 177.376 67.9412C177.416 69.1948 177.915 70.4285 178.756 71.3558C178.529 71.4436 178.401 71.7317 178.489 71.9601C178.569 72.1654 178.761 72.2695 178.981 72.3206C179.704 72.3428 180.669 72.3603 181.814 72.3739ZM178.278 67.3349C177.171 66.6649 176.462 65.1927 177.012 64.0174C179.286 59.1494 181.002 58.2694 186.339 58.7267C189.392 58.9882 192.433 59.395 195.447 59.9452C195.847 60.0182 196.371 60.3379 196.163 60.6887C196.306 62.3855 195.172 64.1071 193.56 64.6396L188.911 66.1757C186.665 66.9176 184.398 67.6643 182.047 67.9089C180.76 68.0427 179.386 68.005 178.278 67.3349ZM191.598 72.3609C193.584 72.169 195.585 72.2332 197.579 72.2976L199.813 72.3697C199.172 70.2952 198.182 68.3298 196.898 66.5818C196.652 66.2478 196.378 65.9073 195.993 65.7557C195.608 65.604 195.087 65.722 194.931 66.1059C194.035 68.2973 192.917 70.3968 191.598 72.3609ZM197.668 54.871C197.481 54.9285 197.283 54.8413 197.108 54.7532C195.578 53.9821 194.163 52.9821 192.924 51.7964C194.224 51.1575 195.676 50.832 197.124 50.8548C197.324 50.858 197.503 50.759 197.681 50.6603C197.742 50.6265 197.803 50.5927 197.865 50.5631C198.107 50.4471 198.45 50.4183 198.596 50.6439C198.689 50.7869 198.663 50.9738 198.632 51.1418L198.088 54.1675C198.037 54.4514 197.943 54.7866 197.668 54.871Z" fill="white"/>
</svg>
