<svg width="400" height="300" viewBox="0 0 700 500" fill="none" xmlns="http://www.w3.org/2000/svg">
<path opacity="0.18" d="M609.697 482.912C644.525 470.439 676.013 443.762 682.84 409.056C688.467 380.43 676.868 351.367 662.769 325.47C648.67 299.573 631.594 274.549 625.013 246.11C612.757 193.224 638.043 134.554 614.023 85.4253C606.801 70.6758 595.515 57.9533 582.765 47.1173C527.011 -0.0934488 443.289 -10.6644 371.872 10.2125C300.456 31.0893 240.835 79.828 196.975 137.173C178.879 160.81 163.151 186.052 143.426 208.457C117.136 238.299 83.0153 264.492 71.5979 301.771C63.2898 328.713 68.3076 357.9 78.1785 384.406C93.3634 425.037 158.791 497.303 189.934 497.163C259.343 496.835 392.519 500.062 456.861 497.724C505.064 495.931 559.24 500.967 609.697 482.912Z" fill="#68E1FD"/>
<path d="M312.17 428.171C310.524 432.614 309.077 437.712 311.462 441.844C313.057 444.148 315.205 446.06 317.73 447.426L340.433 462.051C344.793 464.857 349.416 467.741 354.648 468.116C359.879 468.49 365.818 465.325 366.262 460.32C366.789 454.598 360.455 450.684 357.494 445.664C353.611 439.084 355.75 430.93 357.773 423.633C362.876 405.269 366.603 386.585 368.928 367.723C364.272 365.914 350.716 357.822 345.895 359.163C340.466 360.722 335.564 375.113 333.145 379.806C324.971 395.444 317.962 411.605 312.17 428.171Z" fill="#F1AF8C"/>
<path d="M355.717 304.765C349.827 320.621 343.576 336.524 334.132 350.775C333.79 351.188 333.61 351.7 333.622 352.225C333.772 352.719 334.098 353.148 334.544 353.441C344.036 361.315 354.286 369.531 366.772 371.231C367.586 371.409 368.439 371.338 369.207 371.028C369.928 370.544 370.46 369.848 370.721 369.048C378.683 351.57 381.497 332.424 381.233 313.496C381.061 304.041 380.27 294.606 378.864 285.244C378.535 282.968 378.354 272.865 376.265 271.68C373.09 269.902 369.602 276.108 368.22 278.057C362.495 286.18 359.106 295.535 355.717 304.765Z" fill="white"/>
<path d="M381.53 274.549C381.53 274.549 374.11 277.184 368.072 296.985C362.034 316.786 347.623 364.776 347.623 364.776C347.623 364.776 369.915 375.331 375.492 371.371C381.069 367.411 381.53 274.549 381.53 274.549Z" fill="url(#paint0_linear_154_407)"/>
<path d="M444.769 254.155C456.911 253.797 469.2 254.358 480.881 257.476C492.561 260.594 503.666 266.488 511.333 275.422C519.822 285.307 523.54 298.232 524.395 310.939C525.251 323.646 523.474 336.384 522.125 349.075C518.964 378.782 518.128 408.669 519.624 438.492C519.986 445.633 524.296 482.912 518.999 488.01C515.709 491.222 522.289 494.434 517.601 495.494C479.268 504.225 410.402 499.938 374.11 485.375C364.88 481.665 355.618 476.504 351.078 468.053C346.142 458.901 359.468 422.62 361.064 412.439C365.9 381.37 369.388 350.136 371.527 318.735C372.465 304.843 371.379 289.875 374.389 276.233C376.578 266.332 383.306 263.635 393.013 261.202C409.933 257.031 427.294 254.667 444.769 254.155Z" fill="white"/>
<path d="M476.307 416.695C475.04 423.01 473.379 429.605 468.822 434.376C465.217 437.791 460.807 440.345 455.957 441.829C433.089 449.999 407.013 448.72 385.099 458.979C383.554 459.621 382.131 460.501 380.888 461.583C376.66 465.543 377.844 472.497 381.2 477.174C388.653 487.511 403.147 490.411 416.226 492.329C447.583 497.007 479.597 500.826 510.938 496.04C512.643 495.923 514.274 495.332 515.626 494.34C516.708 493.151 517.399 491.688 517.617 490.131C524.724 460.227 519.131 429.091 518.999 398.438C518.999 380.757 520.644 363.061 519.377 345.427C518.74 334.454 516.332 323.638 512.237 313.356C509.325 306.371 500.804 290.951 495.687 305.264C487.56 328.012 485.224 352.537 482.296 376.251C480.7 389.769 478.989 403.302 476.307 416.695Z" fill="url(#paint1_linear_154_407)"/>
<path d="M486.112 471.515H220.222C212.762 471.515 206.715 477.246 206.715 484.315C206.715 491.385 212.762 497.116 220.222 497.116H486.112C493.572 497.116 499.619 491.385 499.619 484.315C499.619 477.246 493.572 471.515 486.112 471.515Z" fill="#68E1FD"/>
<path d="M486.112 471.515H220.222C212.762 471.515 206.715 477.246 206.715 484.315C206.715 491.385 212.762 497.116 220.222 497.116H486.112C493.572 497.116 499.619 491.385 499.619 484.315C499.619 477.246 493.572 471.515 486.112 471.515Z" fill="url(#paint2_linear_154_407)"/>
<path d="M415.436 278.384C409.991 277.558 406.931 272.366 409.366 259.862C409.629 258.474 409.974 257.133 410.369 255.792C410.369 255.543 410.517 255.293 410.583 255.044C411.175 253.111 411.85 251.177 412.508 249.26C414.34 244.657 415.308 239.787 415.37 234.869C415.222 231.283 414.926 227.556 416.325 224.251C417.668 221.446 419.775 219.03 422.428 217.25C428.301 212.963 445.46 204.902 448.751 215.551C450.215 220.104 449.146 225.405 449.08 230.067C448.751 236.747 450.045 243.409 452.864 249.54C456.45 256.369 428.811 280.411 415.436 278.384Z" fill="#F1AF8C"/>
<path d="M411.57 252.986C411.57 252.986 441.907 242.072 447.764 224.812L415.436 234.837C415.436 234.837 414.663 250.631 411.57 252.986Z" fill="url(#paint3_linear_154_407)"/>
<path d="M493.812 290.312C490.715 322.931 496.422 355.761 510.395 385.715C510.808 386.82 511.503 387.811 512.418 388.6C513.894 389.468 515.621 389.872 517.354 389.753C530.887 390.029 544.128 386 554.962 378.309C558.253 375.955 561.345 372.946 561.625 369.282C561.633 367.318 561.224 365.372 560.424 363.56C552.025 340.429 542.22 317.778 531.058 295.722C526.912 287.552 521.352 277.979 511.316 274.377C499.241 270.058 494.651 281.768 493.812 290.312Z" fill="white"/>
<path d="M435.03 308.959C444.029 299.962 450.626 289.095 457.141 278.353C461.106 271.804 465.169 264.96 465.729 257.414C465.87 256.557 465.726 255.679 465.317 254.903C464.921 254.362 464.405 253.91 463.804 253.578L451.449 245.642C451.235 252.83 445.789 259.004 439.571 263.136C432.99 267.564 414.153 272.412 418.184 281.596C419.187 283.919 433.977 310.003 435.03 308.959Z" fill="#68E1FD"/>
<path d="M435.03 308.959C444.029 299.962 450.626 289.095 457.141 278.353C461.106 271.804 465.169 264.96 465.729 257.414C465.87 256.557 465.726 255.679 465.317 254.903C464.921 254.362 464.405 253.91 463.804 253.578L451.449 245.642C451.235 252.83 445.789 259.004 439.571 263.136C432.99 267.564 414.153 272.412 418.184 281.596C419.187 283.919 433.977 310.003 435.03 308.959Z" fill="url(#paint4_linear_154_407)"/>
<path d="M505.328 477.377L577.386 464.327C581.647 463.547 586.089 462.768 589.461 460.117C594.084 456.594 595.713 450.419 595.038 444.822C594.364 439.225 591.748 434.033 589.149 428.95C578.916 408.868 558.154 372.821 558.022 374.926C545.42 377.452 534.99 377.576 524.165 384.14C522.301 385.094 520.727 386.484 519.591 388.179C515.265 395.974 527.093 407.356 531.107 413.281C532.646 415.174 533.674 417.396 534.102 419.751C534.188 421.416 533.861 423.077 533.147 424.6C529.248 433.674 515.363 438.96 506.825 443.622C495.661 450.018 483.146 454 470.171 455.284C460.102 456.095 449.82 454.863 439.982 456.999C433.948 458.361 428.294 460.937 423.403 464.553C418.512 468.169 414.499 472.739 411.636 477.954C417.493 481.477 425.11 479.435 431.855 477.829C444.353 474.891 457.272 473.907 470.105 474.913C478.429 475.584 501.379 484.72 505.328 477.377Z" fill="#F1AF8C"/>
<path d="M393.917 497.131H189.918L136.105 367.723C135.375 365.997 135.104 364.127 135.314 362.278C135.525 360.43 136.211 358.658 137.312 357.119C138.413 355.58 139.895 354.32 141.63 353.451C143.364 352.581 145.297 352.128 147.259 352.131H307.399C315.154 352.127 322.731 354.337 329.143 358.472C335.554 362.608 340.503 368.477 343.345 375.316L393.917 497.131Z" fill="#68E1FD"/>
<path d="M393.917 497.131H189.918L136.105 367.723C135.375 365.997 135.104 364.127 135.314 362.278C135.525 360.43 136.211 358.658 137.312 357.119C138.413 355.58 139.895 354.32 141.63 353.451C143.364 352.581 145.297 352.128 147.259 352.131H307.399C315.154 352.127 322.731 354.337 329.143 358.472C335.554 362.608 340.503 368.477 343.345 375.316L393.917 497.131Z" fill="url(#paint5_linear_154_407)"/>
<path d="M383.553 497.272H189.72L138.589 374.396C137.908 372.758 137.66 370.988 137.866 369.239C138.071 367.49 138.725 365.815 139.769 364.36C140.813 362.905 142.217 361.713 143.857 360.889C145.498 360.065 147.327 359.633 149.184 359.631H301.295C308.662 359.636 315.857 361.739 321.947 365.668C328.037 369.596 332.741 375.168 335.449 381.661L383.553 497.272Z" fill="url(#paint6_linear_154_407)"/>
<path d="M408.856 70.2235C413.791 67.4794 418.727 64.6886 424.304 63.6596C429.881 62.6305 437.465 63.2542 441.232 67.2456C436.347 67.5712 431.587 68.8583 427.256 71.0247C422.925 73.191 419.118 76.1892 416.078 79.8278C415.796 80.3006 415.347 80.6648 414.811 80.8568C414.352 80.9026 413.889 80.8214 413.478 80.623C411.208 79.8122 394.197 83.4918 393.21 81.5429C393.259 81.5429 406.766 71.4241 408.856 70.2235Z" fill="#68E1FD"/>
<path d="M408.856 70.2235C413.791 67.4794 418.727 64.6886 424.304 63.6596C429.881 62.6305 437.465 63.2542 441.232 67.2456C436.347 67.5712 431.587 68.8583 427.256 71.0247C422.925 73.191 419.118 76.1892 416.078 79.8278C415.796 80.3006 415.347 80.6648 414.811 80.8568C414.352 80.9026 413.889 80.8214 413.478 80.623C411.208 79.8122 394.197 83.4918 393.21 81.5429C393.259 81.5429 406.766 71.4241 408.856 70.2235Z" fill="url(#paint7_linear_154_407)"/>
<path d="M372.086 189.124C383.117 189.124 392.059 178.681 392.059 165.799C392.059 152.917 383.117 142.474 372.086 142.474C361.056 142.474 352.114 152.917 352.114 165.799C352.114 178.681 361.056 189.124 372.086 189.124Z" fill="#68E1FD"/>
<path d="M376.183 189.997C386.386 189.997 394.658 180.336 394.658 168.418C394.658 156.501 386.386 146.84 376.183 146.84C365.979 146.84 357.708 156.501 357.708 168.418C357.708 180.336 365.979 189.997 376.183 189.997Z" fill="#68E1FD"/>
<path d="M376.183 189.997C386.386 189.997 394.658 180.336 394.658 168.418C394.658 156.501 386.386 146.84 376.183 146.84C365.979 146.84 357.708 156.501 357.708 168.418C357.708 180.336 365.979 189.997 376.183 189.997Z" fill="url(#paint8_linear_154_407)"/>
<path d="M369.684 124.949L374.307 205.105C374.307 205.105 376.364 235.352 408 235.648C446.003 236.007 457.569 215.068 463.343 199.133C469.118 183.199 474.333 136.393 463.343 123.453C452.354 110.512 390.512 78.6585 369.684 124.949Z" fill="#F1AF8C"/>
<path d="M393.72 76.8188C378.815 76.5694 361.788 83.1645 354.993 96.4951C353.362 99.5624 352.475 102.936 352.395 106.37C352.316 109.803 353.046 113.211 354.532 116.343C355.078 117.264 355.509 118.243 355.816 119.259C355.964 120.382 355.964 121.518 355.816 122.642C355.686 125.35 356.262 128.047 357.493 130.494C358.724 132.942 360.572 135.064 362.873 136.674C365.489 138.467 368.664 139.59 370.754 141.913L369.948 126.992C369.761 126.186 369.92 125.342 370.389 124.647C370.857 123.951 371.598 123.46 372.448 123.281L382.467 118.853C382.467 118.853 385.56 120.989 385.938 121.161C387.601 121.832 389.397 122.156 391.203 122.112C395.13 122.2 399.058 121.991 402.949 121.488C411.356 120.35 419.401 117.434 427.248 114.534C426.995 116.84 425.942 119 424.254 120.677L449.804 125.355C453.546 130.231 456.562 135.572 458.77 141.227C460.536 145.647 461.697 150.263 462.225 154.963C462.908 161.352 462.277 167.807 460.365 173.969C462.103 172.713 463.624 171.209 464.873 169.51C467.183 171.03 469.739 172.183 472.441 172.924C473.003 173.122 473.612 173.171 474.201 173.064C475.452 172.737 475.715 171.334 475.846 170.211C476.866 160.155 484.763 151.657 488.383 142.053C492.775 130.422 490.554 117.341 483.842 106.567C481.853 103.153 479.149 100.161 475.896 97.7736C464.133 89.6038 447.418 93.3457 433.994 89.0737C427.61 87.0468 422.477 83.1957 416.374 80.6543C409.596 77.9258 401.107 76.9436 393.72 76.8188Z" fill="#3F3D56"/>
<path d="M393.72 76.8188C378.815 76.5694 361.788 83.1645 354.993 96.4951C353.362 99.5624 352.475 102.936 352.395 106.37C352.316 109.803 353.046 113.211 354.532 116.343C355.078 117.264 355.509 118.243 355.816 119.259C355.964 120.382 355.964 121.518 355.816 122.642C355.686 125.35 356.262 128.047 357.493 130.494C358.724 132.942 360.572 135.064 362.873 136.674C365.489 138.467 368.664 139.59 370.754 141.913L369.948 126.992C369.761 126.186 369.92 125.342 370.389 124.647C370.857 123.951 371.598 123.46 372.448 123.281L382.467 118.853C382.467 118.853 385.56 120.989 385.938 121.161C387.601 121.832 389.397 122.156 391.203 122.112C395.13 122.2 399.058 121.991 402.949 121.488C411.356 120.35 419.401 117.434 427.248 114.534C426.995 116.84 425.942 119 424.254 120.677L449.804 125.355C453.546 130.231 456.562 135.572 458.77 141.227C460.536 145.647 461.697 150.263 462.225 154.963C462.908 161.352 462.277 167.807 460.365 173.969C462.103 172.713 463.624 171.209 464.873 169.51C467.183 171.03 469.739 172.183 472.441 172.924C473.003 173.122 473.612 173.171 474.201 173.064C475.452 172.737 475.715 171.334 475.846 170.211C476.866 160.155 484.763 151.657 488.383 142.053C492.775 130.422 490.554 117.341 483.842 106.567C481.853 103.153 479.149 100.161 475.896 97.7736C464.133 89.6038 447.418 93.3457 433.994 89.0737C427.61 87.0468 422.477 83.1957 416.374 80.6543C409.596 77.9258 401.107 76.9436 393.72 76.8188Z" fill="url(#paint9_linear_154_407)"/>
<path d="M482.098 191.759C493.01 191.759 501.856 181.42 501.856 168.668C501.856 155.915 493.01 145.577 482.098 145.577C471.186 145.577 462.34 155.915 462.34 168.668C462.34 181.42 471.186 191.759 482.098 191.759Z" fill="#68E1FD"/>
<path d="M482.098 191.759C493.01 191.759 501.856 181.42 501.856 168.668C501.856 155.915 493.01 145.577 482.098 145.577C471.186 145.577 462.34 155.915 462.34 168.668C462.34 181.42 471.186 191.759 482.098 191.759Z" fill="url(#paint10_linear_154_407)"/>
<path d="M489.666 191.759C500.578 191.759 509.424 181.42 509.424 168.668C509.424 155.915 500.578 145.577 489.666 145.577C478.754 145.577 469.907 155.915 469.907 168.668C469.907 181.42 478.754 191.759 489.666 191.759Z" fill="#68E1FD"/>
<path d="M489.814 147.416L479.943 148.414L477.59 148.648L467.719 102.607C462.586 84.396 450.034 70.395 434.29 64.9692C431.852 64.1634 429.258 63.8708 426.689 64.1117L419.96 64.6885L423.251 63.8622L429.831 62.2095C431.888 61.6719 434.016 61.4249 436.149 61.4767C453.719 62.0848 470.385 75.509 476.422 94.7487L489.814 147.416Z" fill="#68E1FD"/>
<path d="M489.814 147.416L479.943 148.414L477.59 148.648L467.719 102.607C462.586 84.396 450.034 70.395 434.29 64.9692C431.852 64.1634 429.258 63.8708 426.689 64.1117L419.96 64.6885L423.251 63.8622L429.831 62.2095C431.888 61.6719 434.016 61.4249 436.149 61.4767C453.719 62.0848 470.385 75.509 476.422 94.7487L489.814 147.416Z" fill="url(#paint11_linear_154_407)"/>
<path d="M489.814 147.416L479.943 148.414L470.072 102.264C464.857 83.8659 452.189 69.7557 436.297 64.2832C433.838 63.4479 431.212 63.1495 428.614 63.41L423.251 63.8622L429.831 62.2095C431.888 61.6719 434.016 61.4249 436.149 61.4767C453.719 62.0848 470.385 75.509 476.422 94.7487L489.814 147.416Z" fill="#68E1FD"/>
<path opacity="0.45" d="M282.672 8.04517H41.4421C27.2317 8.04517 15.7118 18.9627 15.7118 32.4301V300.882C15.7118 314.35 27.2317 325.267 41.4421 325.267H282.672C296.882 325.267 308.402 314.35 308.402 300.882V32.4301C308.402 18.9627 296.882 8.04517 282.672 8.04517Z" fill="#68E1FD"/>
<path d="M103.975 294.926C128.161 294.926 147.769 276.344 147.769 253.422C147.769 230.5 128.161 211.918 103.975 211.918C79.7878 211.918 60.1805 230.5 60.1805 253.422C60.1805 276.344 79.7878 294.926 103.975 294.926Z" fill="url(#paint12_linear_154_407)"/>
<path d="M228.859 38.1208H41.7876V48.0993H228.859V38.1208Z" fill="#68E1FD"/>
<path opacity="0.51" d="M234.502 169.338H47.4305V179.317H234.502V169.338Z" fill="#68E1FD"/>
<path d="M180.409 152.265H47.4305V162.244H180.409V152.265Z" fill="#68E1FD"/>
<path d="M287.624 152.265H198.604V162.244H287.624V152.265Z" fill="#68E1FD"/>
<path d="M287.328 89.1047H150.45V97.9762H287.328V89.1047Z" fill="#68E1FD"/>
<path opacity="0.51" d="M268.211 104.836H121.775V113.708H268.211V104.836Z" fill="#68E1FD"/>
<path d="M140.004 89.1047H49.9805V97.9762H140.004V89.1047Z" fill="#68E1FD"/>
<path d="M287.328 120.116H89.4643V128.987H287.328V120.116Z" fill="#68E1FD"/>
<path opacity="0.51" d="M79.034 120.116H49.9805V128.987H79.034V120.116Z" fill="#68E1FD"/>
<path opacity="0.51" d="M287.311 135.863H156.718V144.735H287.311V135.863Z" fill="#68E1FD"/>
<path d="M140.004 135.863H49.9805V144.735H140.004V135.863Z" fill="#68E1FD"/>
<path d="M107.874 104.462H49.9805V113.334H107.874V104.462Z" fill="#68E1FD"/>
<path d="M113.681 226.137C111.115 229.115 110.687 233.278 111.164 237.051C111.312 237.736 111.312 238.441 111.164 239.125C110.946 239.701 110.61 240.231 110.177 240.684C103.206 248.897 95.3973 256.438 86.865 263.198C86.6249 263.418 86.3392 263.588 86.0259 263.697C85.4674 263.807 84.8861 263.73 84.3808 263.479C81.913 262.559 79.2643 261.561 76.6814 262.154C75.5109 262.485 74.44 263.075 73.5564 263.874C72.6728 264.674 72.0016 265.66 71.5979 266.753C70.7998 268.956 70.6687 271.327 71.2195 273.598C74.0272 271.384 76.9501 269.305 79.9882 267.361L84.315 271.43C84.5396 271.593 84.7238 271.799 84.8546 272.037C84.9853 272.274 85.0595 272.535 85.0717 272.802C84.9875 273.123 84.8109 273.414 84.5618 273.644L78.1785 280.785C80.2781 281.582 82.568 281.817 84.7988 281.465C87.0296 281.113 89.1157 280.188 90.8298 278.79C94.1201 275.827 94.6137 270.292 91.3892 267.314L115.886 241.292C117.537 242.45 119.544 243.061 121.597 243.033C123.651 243.005 125.638 242.339 127.254 241.136C128.822 239.88 130.035 238.272 130.782 236.459C131.529 234.645 131.786 232.684 131.531 230.753C128.482 232.484 125.655 234.546 123.108 236.896L118.172 231.064C119.916 229.505 126.678 225.202 122.285 223.518C119.39 222.411 115.557 223.97 113.681 226.137Z" fill="#68E1FD"/>
<path d="M255.477 268.203L257.83 261.109C257.83 261.109 248.535 254.155 248.255 254.592L247.877 249.462L256.382 240.887L252.467 234.448C252.467 234.448 240.951 236.225 240.951 236.724C238.728 234.744 236.334 232.945 233.794 231.345L233.432 219.651L225.864 217.702C225.864 217.702 218.938 226.808 219.399 227.057C219.399 227.057 214.069 228.117 211.519 228.881L202.898 221.928L196.317 225.95C196.317 225.95 198.275 234.635 199.048 236.459C197.206 238.377 194.903 240.544 194.903 240.544L182.63 242.415L181.577 249.774C181.577 249.774 190.214 254.202 191.892 254.654C191.927 257.037 192.315 259.404 193.044 261.686L186.348 271.446L191.398 277.121C191.398 277.121 198.094 274.892 201.006 273.675C203.721 276.014 207.587 278.789 207.587 278.789L210.68 290.202L218.511 290.514C218.511 290.514 222.278 282.204 222.673 280.38C225.192 280.114 227.732 280.082 230.257 280.286L241.263 285.759L246.774 280.458C245.184 277.088 243.411 273.799 241.461 270.604C242.159 269.799 242.792 268.944 243.353 268.047L255.477 268.203ZM218.955 268.468C215.876 268.471 212.865 267.609 210.304 265.99C207.742 264.371 205.745 262.068 204.565 259.374C203.384 256.679 203.074 253.713 203.672 250.851C204.271 247.988 205.752 245.359 207.928 243.295C210.104 241.23 212.877 239.824 215.896 239.254C218.915 238.683 222.046 238.974 224.89 240.09C227.735 241.206 230.167 243.097 231.878 245.522C233.588 247.948 234.502 250.801 234.502 253.718C234.497 257.626 232.858 261.373 229.944 264.138C227.03 266.903 223.078 268.46 218.955 268.468Z" fill="url(#paint13_linear_154_407)"/>
<path d="M359.057 120.911C361.969 115.454 368.286 112.211 374.653 111.229C381.019 110.247 387.534 111.151 393.901 112.071C387.732 116.748 370.507 123.718 370.178 124.965C369.946 127.172 369.918 129.395 370.096 131.607C370.326 134.819 370.441 138.186 370.425 141.398C368.836 139.923 367.056 138.645 365.127 137.594C363.47 136.988 361.959 136.071 360.685 134.897C359.021 132.962 357.982 130.613 357.693 128.132C357.404 125.651 357.878 123.143 359.057 120.911Z" fill="url(#paint14_linear_154_407)"/>
<path d="M442.845 224.641C435.413 224.498 428.042 223.332 420.964 221.179C420.126 220.942 419.422 220.398 419.007 219.669C418.592 218.939 418.5 218.083 418.751 217.289C419.002 216.495 419.575 215.828 420.345 215.435C421.115 215.042 422.018 214.954 422.856 215.192C439.801 220.026 452.551 219.386 460.695 213.29C471.783 205.042 471.059 189.326 471.059 189.17C471.015 188.343 471.32 187.534 471.906 186.92C472.493 186.306 473.312 185.937 474.185 185.896C475.057 185.855 475.912 186.144 476.56 186.699C477.208 187.255 477.596 188.031 477.64 188.858C477.64 189.622 478.512 207.989 464.758 218.217C459.033 222.489 451.728 224.63 442.845 224.641Z" fill="#68E1FD"/>
<path d="M442.845 224.641C435.413 224.498 428.042 223.332 420.964 221.179C420.126 220.942 419.422 220.398 419.007 219.669C418.592 218.939 418.5 218.083 418.751 217.289C419.002 216.495 419.575 215.828 420.345 215.435C421.115 215.042 422.018 214.954 422.856 215.192C439.801 220.026 452.551 219.386 460.695 213.29C471.783 205.042 471.059 189.326 471.059 189.17C471.015 188.343 471.32 187.534 471.906 186.92C472.493 186.306 473.312 185.937 474.185 185.896C475.057 185.855 475.912 186.144 476.56 186.699C477.208 187.255 477.596 188.031 477.64 188.858C477.64 189.622 478.512 207.989 464.758 218.217C459.033 222.489 451.728 224.63 442.845 224.641Z" fill="url(#paint15_linear_154_407)"/>
<path d="M422.675 209.922C424.563 210.822 426.042 212.34 426.837 214.195C427.561 216.845 425.389 219.386 423.152 221.117C421.229 222.741 418.863 223.822 416.325 224.235C412.607 224.656 409.053 222.754 405.96 220.743C404.234 219.745 402.762 218.398 401.65 216.798C398.787 212.027 402.489 205.884 407.342 203.857C412.722 201.659 418.447 207.288 422.675 209.922Z" fill="#68E1FD"/>
<path d="M422.675 209.922C424.563 210.822 426.042 212.34 426.837 214.195C427.561 216.845 425.389 219.386 423.152 221.117C421.229 222.741 418.863 223.822 416.325 224.235C412.607 224.656 409.053 222.754 405.96 220.743C404.234 219.745 402.762 218.398 401.65 216.798C398.787 212.027 402.489 205.884 407.342 203.857C412.722 201.659 418.447 207.288 422.675 209.922Z" fill="url(#paint16_linear_154_407)"/>
<defs>
<linearGradient id="paint0_linear_154_407" x1="454.492" y1="320.169" x2="341.823" y2="325.393" gradientUnits="userSpaceOnUse">
<stop offset="0.01"/>
<stop offset="1" stop-opacity="0"/>
</linearGradient>
<linearGradient id="paint1_linear_154_407" x1="63555.5" y1="88534.5" x2="22644.2" y2="61349.8" gradientUnits="userSpaceOnUse">
<stop offset="0.01"/>
<stop offset="1" stop-opacity="0"/>
</linearGradient>
<linearGradient id="paint2_linear_154_407" x1="60175.9" y1="8259.86" x2="60179.7" y2="8992.3" gradientUnits="userSpaceOnUse">
<stop offset="0.01"/>
<stop offset="1" stop-opacity="0"/>
</linearGradient>
<linearGradient id="paint3_linear_154_407" x1="9794.01" y1="4582.42" x2="9665.11" y2="5879" gradientUnits="userSpaceOnUse">
<stop offset="0.01"/>
<stop offset="1" stop-opacity="0"/>
</linearGradient>
<linearGradient id="paint4_linear_154_407" x1="426.541" y1="260.766" x2="459.598" y2="293.784" gradientUnits="userSpaceOnUse">
<stop offset="0.02" stop-color="white" stop-opacity="0"/>
<stop offset="0.58" stop-color="white" stop-opacity="0.39"/>
<stop offset="1" stop-color="white"/>
</linearGradient>
<linearGradient id="paint5_linear_154_407" x1="63654.8" y1="21378.6" x2="53746.5" y2="52608.1" gradientUnits="userSpaceOnUse">
<stop offset="0.01"/>
<stop offset="1" stop-opacity="0"/>
</linearGradient>
<linearGradient id="paint6_linear_154_407" x1="307.316" y1="557.782" x2="214.474" y2="285.249" gradientUnits="userSpaceOnUse">
<stop offset="0.01"/>
<stop offset="0.09" stop-opacity="0.82"/>
<stop offset="1" stop-opacity="0"/>
</linearGradient>
<linearGradient id="paint7_linear_154_407" x1="12254.2" y1="1298.44" x2="12269.7" y2="1710.57" gradientUnits="userSpaceOnUse">
<stop offset="0.01"/>
<stop offset="1" stop-opacity="0"/>
</linearGradient>
<linearGradient id="paint8_linear_154_407" x1="8656.74" y1="3881.21" x2="8141.48" y2="5609.56" gradientUnits="userSpaceOnUse">
<stop offset="0.01"/>
<stop offset="1" stop-opacity="0"/>
</linearGradient>
<linearGradient id="paint9_linear_154_407" x1="37884.7" y1="9289.21" x2="36213" y2="11193.2" gradientUnits="userSpaceOnUse">
<stop offset="0.01"/>
<stop offset="1" stop-opacity="0"/>
</linearGradient>
<linearGradient id="paint10_linear_154_407" x1="11747.9" y1="5122.11" x2="11174.9" y2="5220.17" gradientUnits="userSpaceOnUse">
<stop offset="0.01"/>
<stop offset="1" stop-opacity="0"/>
</linearGradient>
<linearGradient id="paint11_linear_154_407" x1="20789.2" y1="7781.1" x2="18384.8" y2="8619.15" gradientUnits="userSpaceOnUse">
<stop offset="0.01"/>
<stop offset="1" stop-opacity="0"/>
</linearGradient>
<linearGradient id="paint12_linear_154_407" x1="111.822" y1="104.758" x2="102.998" y2="290.889" gradientUnits="userSpaceOnUse">
<stop offset="0.02" stop-color="white" stop-opacity="0"/>
<stop offset="0.58" stop-color="white" stop-opacity="0.39"/>
<stop offset="0.68" stop-color="white" stop-opacity="0.68"/>
<stop offset="1" stop-color="white"/>
</linearGradient>
<linearGradient id="paint13_linear_154_407" x1="11842.2" y1="9875.45" x2="10171.9" y2="14061.7" gradientUnits="userSpaceOnUse">
<stop offset="0.02" stop-color="white" stop-opacity="0"/>
<stop offset="0.58" stop-color="white" stop-opacity="0.39"/>
<stop offset="0.68" stop-color="white" stop-opacity="0.68"/>
<stop offset="1" stop-color="white"/>
</linearGradient>
<linearGradient id="paint14_linear_154_407" x1="8401.74" y1="3885.58" x2="8455.21" y2="2980.23" gradientUnits="userSpaceOnUse">
<stop offset="0.01"/>
<stop offset="1" stop-opacity="0"/>
</linearGradient>
<linearGradient id="paint15_linear_154_407" x1="15888.4" y1="5999.72" x2="16182.3" y2="6920.33" gradientUnits="userSpaceOnUse">
<stop offset="0.02" stop-color="white" stop-opacity="0"/>
<stop offset="0.58" stop-color="white" stop-opacity="0.39"/>
<stop offset="0.68" stop-color="white" stop-opacity="0.68"/>
<stop offset="1" stop-color="white"/>
</linearGradient>
<linearGradient id="paint16_linear_154_407" x1="7011.03" y1="3477.88" x2="6788.09" y2="4042.96" gradientUnits="userSpaceOnUse">
<stop offset="0.01"/>
<stop offset="1" stop-opacity="0"/>
</linearGradient>
</defs>
</svg>
